<?xml version="1.0" encoding="utf-8" standalone="no"?>
<!DOCTYPE svg PUBLIC "-//W3C//DTD SVG 1.1//EN"
  "http://www.w3.org/Graphics/SVG/1.1/DTD/svg11.dtd">
<!-- Created with matplotlib (http://matplotlib.org/) -->
<svg height="720pt" version="1.1" viewBox="0 0 720 720" width="720pt" xmlns="http://www.w3.org/2000/svg" xmlns:xlink="http://www.w3.org/1999/xlink">
 <defs>
  <style type="text/css">
*{stroke-linecap:butt;stroke-linejoin:round;}
  </style>
 </defs>
 <g id="figure_1">
  <g id="patch_1">
   <path d="
M0 720
L720 720
L720 0
L0 0
z
" style="fill:#ffffff;"/>
  </g>
  <g id="axes_1">
   <g id="patch_2">
    <path d="
M90 648
L648 648
L648 72
L90 72
z
" style="fill:#aaaaaa;"/>
   </g>
   <g id="patch_3">
    <path clip-path="url(#p8deeaca9bf)" d="
M90 648
L100.379 648
L100.379 429.12
L90 429.12
z
" style="fill:#008000;stroke:#000000;"/>
   </g>
   <g id="patch_4">
    <path clip-path="url(#p8deeaca9bf)" d="
M100.379 648
L110.758 648
L110.758 502.848
L100.379 502.848
z
" style="fill:#008000;stroke:#000000;"/>
   </g>
   <g id="patch_5">
    <path clip-path="url(#p8deeaca9bf)" d="
M110.758 648
L121.136 648
L121.136 376.128
L110.758 376.128
z
" style="fill:#008000;stroke:#000000;"/>
   </g>
   <g id="patch_6">
    <path clip-path="url(#p8deeaca9bf)" d="
M121.136 648
L131.515 648
L131.515 247.104
L121.136 247.104
z
" style="fill:#008000;stroke:#000000;"/>
   </g>
   <g id="patch_7">
    <path clip-path="url(#p8deeaca9bf)" d="
M131.515 648
L141.894 648
L141.894 214.848
L131.515 214.848
z
" style="fill:#008000;stroke:#000000;"/>
   </g>
   <g id="patch_8">
    <path clip-path="url(#p8deeaca9bf)" d="
M141.894 648
L152.273 648
L152.273 212.544
L141.894 212.544
z
" style="fill:#008000;stroke:#000000;"/>
   </g>
   <g id="patch_9">
    <path clip-path="url(#p8deeaca9bf)" d="
M152.273 648
L162.652 648
L162.652 161.856
L152.273 161.856
z
" style="fill:#008000;stroke:#000000;"/>
   </g>
   <g id="patch_10">
    <path clip-path="url(#p8deeaca9bf)" d="
M162.652 648
L173.03 648
L173.03 189.504
L162.652 189.504
z
" style="fill:#008000;stroke:#000000;"/>
   </g>
   <g id="patch_11">
    <path clip-path="url(#p8deeaca9bf)" d="
M173.03 648
L183.409 648
L183.409 203.328
L173.03 203.328
z
" style="fill:#008000;stroke:#000000;"/>
   </g>
   <g id="patch_12">
    <path clip-path="url(#p8deeaca9bf)" d="
M183.409 648
L193.788 648
L193.788 141.12
L183.409 141.12
z
" style="fill:#008000;stroke:#000000;"/>
   </g>
   <g id="patch_13">
    <path clip-path="url(#p8deeaca9bf)" d="
M193.788 648
L204.167 648
L204.167 194.112
L193.788 194.112
z
" style="fill:#008000;stroke:#000000;"/>
   </g>
   <g id="patch_14">
    <path clip-path="url(#p8deeaca9bf)" d="
M204.167 648
L214.546 648
L214.546 226.368
L204.167 226.368
z
" style="fill:#008000;stroke:#000000;"/>
   </g>
   <g id="patch_15">
    <path clip-path="url(#p8deeaca9bf)" d="
M214.546 648
L224.924 648
L224.924 309.312
L214.546 309.312
z
" style="fill:#008000;stroke:#000000;"/>
   </g>
   <g id="patch_16">
    <path clip-path="url(#p8deeaca9bf)" d="
M224.924 648
L235.303 648
L235.303 323.136
L224.924 323.136
z
" style="fill:#008000;stroke:#000000;"/>
   </g>
   <g id="patch_17">
    <path clip-path="url(#p8deeaca9bf)" d="
M235.303 648
L245.682 648
L245.682 304.704
L235.303 304.704
z
" style="fill:#008000;stroke:#000000;"/>
   </g>
   <g id="patch_18">
    <path clip-path="url(#p8deeaca9bf)" d="
M245.682 648
L256.061 648
L256.061 410.688
L245.682 410.688
z
" style="fill:#008000;stroke:#000000;"/>
   </g>
   <g id="patch_19">
    <path clip-path="url(#p8deeaca9bf)" d="
M256.061 648
L266.44 648
L266.44 456.768
L256.061 456.768
z
" style="fill:#008000;stroke:#000000;"/>
   </g>
   <g id="patch_20">
    <path clip-path="url(#p8deeaca9bf)" d="
M266.44 648
L276.818 648
L276.818 461.376
L266.44 461.376
z
" style="fill:#008000;stroke:#000000;"/>
   </g>
   <g id="patch_21">
    <path clip-path="url(#p8deeaca9bf)" d="
M276.818 648
L287.197 648
L287.197 500.544
L276.818 500.544
z
" style="fill:#008000;stroke:#000000;"/>
   </g>
   <g id="patch_22">
    <path clip-path="url(#p8deeaca9bf)" d="
M287.197 648
L297.576 648
L297.576 512.064
L287.197 512.064
z
" style="fill:#008000;stroke:#000000;"/>
   </g>
   <g id="patch_23">
    <path clip-path="url(#p8deeaca9bf)" d="
M297.576 648
L307.955 648
L307.955 560.448
L297.576 560.448
z
" style="fill:#008000;stroke:#000000;"/>
   </g>
   <g id="patch_24">
    <path clip-path="url(#p8deeaca9bf)" d="
M307.955 648
L318.334 648
L318.334 574.272
L307.955 574.272
z
" style="fill:#008000;stroke:#000000;"/>
   </g>
   <g id="patch_25">
    <path clip-path="url(#p8deeaca9bf)" d="
M318.334 648
L328.712 648
L328.712 611.136
L318.334 611.136
z
" style="fill:#008000;stroke:#000000;"/>
   </g>
   <g id="patch_26">
    <path clip-path="url(#p8deeaca9bf)" d="
M328.712 648
L339.091 648
L339.091 627.264
L328.712 627.264
z
" style="fill:#008000;stroke:#000000;"/>
   </g>
   <g id="patch_27">
    <path clip-path="url(#p8deeaca9bf)" d="
M339.091 648
L349.47 648
L349.47 627.264
L339.091 627.264
z
" style="fill:#008000;stroke:#000000;"/>
   </g>
   <g id="patch_28">
    <path clip-path="url(#p8deeaca9bf)" d="
M349.47 648
L359.849 648
L359.849 634.176
L349.47 634.176
z
" style="fill:#008000;stroke:#000000;"/>
   </g>
   <g id="patch_29">
    <path clip-path="url(#p8deeaca9bf)" d="
M359.849 648
L370.228 648
L370.228 627.264
L359.849 627.264
z
" style="fill:#008000;stroke:#000000;"/>
   </g>
   <g id="patch_30">
    <path clip-path="url(#p8deeaca9bf)" d="
M370.228 648
L380.606 648
L380.606 638.784
L370.228 638.784
z
" style="fill:#008000;stroke:#000000;"/>
   </g>
   <g id="patch_31">
    <path clip-path="url(#p8deeaca9bf)" d="
M380.606 648
L390.985 648
L390.985 643.392
L380.606 643.392
z
" style="fill:#008000;stroke:#000000;"/>
   </g>
   <g id="patch_32">
    <path clip-path="url(#p8deeaca9bf)" d="
M390.985 648
L401.364 648
L401.364 641.088
L390.985 641.088
z
" style="fill:#008000;stroke:#000000;"/>
   </g>
   <g id="patch_33">
    <path clip-path="url(#p8deeaca9bf)" d="
M401.364 648
L411.743 648
L411.743 648
L401.364 648
z
" style="fill:#008000;stroke:#000000;"/>
   </g>
   <g id="patch_34">
    <path clip-path="url(#p8deeaca9bf)" d="
M411.743 648
L422.122 648
L422.122 643.392
L411.743 643.392
z
" style="fill:#008000;stroke:#000000;"/>
   </g>
   <g id="patch_35">
    <path clip-path="url(#p8deeaca9bf)" d="
M422.122 648
L432.5 648
L432.5 645.696
L422.122 645.696
z
" style="fill:#008000;stroke:#000000;"/>
   </g>
   <g id="patch_36">
    <path clip-path="url(#p8deeaca9bf)" d="
M432.5 648
L442.879 648
L442.879 643.392
L432.5 643.392
z
" style="fill:#008000;stroke:#000000;"/>
   </g>
   <g id="patch_37">
    <path clip-path="url(#p8deeaca9bf)" d="
M442.879 648
L453.258 648
L453.258 643.392
L442.879 643.392
z
" style="fill:#008000;stroke:#000000;"/>
   </g>
   <g id="patch_38">
    <path clip-path="url(#p8deeaca9bf)" d="
M453.258 648
L463.637 648
L463.637 645.696
L453.258 645.696
z
" style="fill:#008000;stroke:#000000;"/>
   </g>
   <g id="patch_39">
    <path clip-path="url(#p8deeaca9bf)" d="
M463.637 648
L474.016 648
L474.016 645.696
L463.637 645.696
z
" style="fill:#008000;stroke:#000000;"/>
   </g>
   <g id="patch_40">
    <path clip-path="url(#p8deeaca9bf)" d="
M474.016 648
L484.394 648
L484.394 645.696
L474.016 645.696
z
" style="fill:#008000;stroke:#000000;"/>
   </g>
   <g id="patch_41">
    <path clip-path="url(#p8deeaca9bf)" d="
M484.394 648
L494.773 648
L494.773 645.696
L484.394 645.696
z
" style="fill:#008000;stroke:#000000;"/>
   </g>
   <g id="patch_42">
    <path clip-path="url(#p8deeaca9bf)" d="
M494.773 648
L505.152 648
L505.152 648
L494.773 648
z
" style="fill:#008000;stroke:#000000;"/>
   </g>
   <g id="patch_43">
    <path clip-path="url(#p8deeaca9bf)" d="
M505.152 648
L515.531 648
L515.531 648
L505.152 648
z
" style="fill:#008000;stroke:#000000;"/>
   </g>
   <g id="patch_44">
    <path clip-path="url(#p8deeaca9bf)" d="
M515.531 648
L525.91 648
L525.91 645.696
L515.531 645.696
z
" style="fill:#008000;stroke:#000000;"/>
   </g>
   <g id="patch_45">
    <path clip-path="url(#p8deeaca9bf)" d="
M525.91 648
L536.288 648
L536.288 648
L525.91 648
z
" style="fill:#008000;stroke:#000000;"/>
   </g>
   <g id="patch_46">
    <path clip-path="url(#p8deeaca9bf)" d="
M536.288 648
L546.667 648
L546.667 648
L536.288 648
z
" style="fill:#008000;stroke:#000000;"/>
   </g>
   <g id="patch_47">
    <path clip-path="url(#p8deeaca9bf)" d="
M546.667 648
L557.046 648
L557.046 648
L546.667 648
z
" style="fill:#008000;stroke:#000000;"/>
   </g>
   <g id="patch_48">
    <path clip-path="url(#p8deeaca9bf)" d="
M557.046 648
L567.425 648
L567.425 648
L557.046 648
z
" style="fill:#008000;stroke:#000000;"/>
   </g>
   <g id="patch_49">
    <path clip-path="url(#p8deeaca9bf)" d="
M567.425 648
L577.804 648
L577.804 645.696
L567.425 645.696
z
" style="fill:#008000;stroke:#000000;"/>
   </g>
   <g id="patch_50">
    <path clip-path="url(#p8deeaca9bf)" d="
M577.804 648
L588.182 648
L588.182 645.696
L577.804 645.696
z
" style="fill:#008000;stroke:#000000;"/>
   </g>
   <g id="patch_51">
    <path clip-path="url(#p8deeaca9bf)" d="
M588.182 648
L598.561 648
L598.561 648
L588.182 648
z
" style="fill:#008000;stroke:#000000;"/>
   </g>
   <g id="patch_52">
    <path clip-path="url(#p8deeaca9bf)" d="
M598.561 648
L608.94 648
L608.94 645.696
L598.561 645.696
z
" style="fill:#008000;stroke:#000000;"/>
   </g>
   <g id="matplotlib.axis_1">
    <g id="xtick_1">
     <g id="line2d_1">
      <defs>
       <path d="
M0 0
L0 -4" id="mc7db9fdffb" style="stroke:#000000;stroke-width:0.5;"/>
      </defs>
      <g>
       <use style="stroke:#000000;stroke-width:0.5;" x="90.0" xlink:href="#mc7db9fdffb" y="648.0"/>
      </g>
     </g>
     <g id="line2d_2">
      <defs>
       <path d="
M0 0
L0 4" id="m5a7d422ac3" style="stroke:#000000;stroke-width:0.5;"/>
      </defs>
      <g>
       <use style="stroke:#000000;stroke-width:0.5;" x="90.0" xlink:href="#m5a7d422ac3" y="72.0"/>
      </g>
     </g>
     <g id="text_1">
      <!-- 0 -->
      <defs>
       <path d="
M31.7812 66.4062
Q24.1719 66.4062 20.3281 58.9062
Q16.5 51.4219 16.5 36.375
Q16.5 21.3906 20.3281 13.8906
Q24.1719 6.39062 31.7812 6.39062
Q39.4531 6.39062 43.2812 13.8906
Q47.125 21.3906 47.125 36.375
Q47.125 51.4219 43.2812 58.9062
Q39.4531 66.4062 31.7812 66.4062
M31.7812 74.2188
Q44.0469 74.2188 50.5156 64.5156
Q56.9844 54.8281 56.9844 36.375
Q56.9844 17.9688 50.5156 8.26562
Q44.0469 -1.42188 31.7812 -1.42188
Q19.5312 -1.42188 13.0625 8.26562
Q6.59375 17.9688 6.59375 36.375
Q6.59375 54.8281 13.0625 64.5156
Q19.5312 74.2188 31.7812 74.2188" id="BitstreamVeraSans-Roman-30"/>
      </defs>
      <g transform="translate(86.9765625 661.118125)scale(0.12 -0.12)">
       <use xlink:href="#BitstreamVeraSans-Roman-30"/>
      </g>
     </g>
    </g>
    <g id="xtick_2">
     <g id="line2d_3">
      <g>
       <use style="stroke:#000000;stroke-width:0.5;" x="159.75" xlink:href="#mc7db9fdffb" y="648.0"/>
      </g>
     </g>
     <g id="line2d_4">
      <g>
       <use style="stroke:#000000;stroke-width:0.5;" x="159.75" xlink:href="#m5a7d422ac3" y="72.0"/>
      </g>
     </g>
     <g id="text_2">
      <!-- 200 -->
      <defs>
       <path d="
M19.1875 8.29688
L53.6094 8.29688
L53.6094 0
L7.32812 0
L7.32812 8.29688
Q12.9375 14.1094 22.625 23.8906
Q32.3281 33.6875 34.8125 36.5312
Q39.5469 41.8438 41.4219 45.5312
Q43.3125 49.2188 43.3125 52.7812
Q43.3125 58.5938 39.2344 62.25
Q35.1562 65.9219 28.6094 65.9219
Q23.9688 65.9219 18.8125 64.3125
Q13.6719 62.7031 7.8125 59.4219
L7.8125 69.3906
Q13.7656 71.7812 18.9375 73
Q24.125 74.2188 28.4219 74.2188
Q39.75 74.2188 46.4844 68.5469
Q53.2188 62.8906 53.2188 53.4219
Q53.2188 48.9219 51.5312 44.8906
Q49.8594 40.875 45.4062 35.4062
Q44.1875 33.9844 37.6406 27.2188
Q31.1094 20.4531 19.1875 8.29688" id="BitstreamVeraSans-Roman-32"/>
      </defs>
      <g transform="translate(149.135625 661.118125)scale(0.12 -0.12)">
       <use xlink:href="#BitstreamVeraSans-Roman-32"/>
       <use x="63.623046875" xlink:href="#BitstreamVeraSans-Roman-30"/>
       <use x="127.24609375" xlink:href="#BitstreamVeraSans-Roman-30"/>
      </g>
     </g>
    </g>
    <g id="xtick_3">
     <g id="line2d_5">
      <g>
       <use style="stroke:#000000;stroke-width:0.5;" x="229.5" xlink:href="#mc7db9fdffb" y="648.0"/>
      </g>
     </g>
     <g id="line2d_6">
      <g>
       <use style="stroke:#000000;stroke-width:0.5;" x="229.5" xlink:href="#m5a7d422ac3" y="72.0"/>
      </g>
     </g>
     <g id="text_3">
      <!-- 400 -->
      <defs>
       <path d="
M37.7969 64.3125
L12.8906 25.3906
L37.7969 25.3906
z

M35.2031 72.9062
L47.6094 72.9062
L47.6094 25.3906
L58.0156 25.3906
L58.0156 17.1875
L47.6094 17.1875
L47.6094 0
L37.7969 0
L37.7969 17.1875
L4.89062 17.1875
L4.89062 26.7031
z
" id="BitstreamVeraSans-Roman-34"/>
      </defs>
      <g transform="translate(218.739375 661.118125)scale(0.12 -0.12)">
       <use xlink:href="#BitstreamVeraSans-Roman-34"/>
       <use x="63.623046875" xlink:href="#BitstreamVeraSans-Roman-30"/>
       <use x="127.24609375" xlink:href="#BitstreamVeraSans-Roman-30"/>
      </g>
     </g>
    </g>
    <g id="xtick_4">
     <g id="line2d_7">
      <g>
       <use style="stroke:#000000;stroke-width:0.5;" x="299.25" xlink:href="#mc7db9fdffb" y="648.0"/>
      </g>
     </g>
     <g id="line2d_8">
      <g>
       <use style="stroke:#000000;stroke-width:0.5;" x="299.25" xlink:href="#m5a7d422ac3" y="72.0"/>
      </g>
     </g>
     <g id="text_4">
      <!-- 600 -->
      <defs>
       <path d="
M33.0156 40.375
Q26.375 40.375 22.4844 35.8281
Q18.6094 31.2969 18.6094 23.3906
Q18.6094 15.5312 22.4844 10.9531
Q26.375 6.39062 33.0156 6.39062
Q39.6562 6.39062 43.5312 10.9531
Q47.4062 15.5312 47.4062 23.3906
Q47.4062 31.2969 43.5312 35.8281
Q39.6562 40.375 33.0156 40.375
M52.5938 71.2969
L52.5938 62.3125
Q48.875 64.0625 45.0938 64.9844
Q41.3125 65.9219 37.5938 65.9219
Q27.8281 65.9219 22.6719 59.3281
Q17.5312 52.7344 16.7969 39.4062
Q19.6719 43.6562 24.0156 45.9219
Q28.375 48.1875 33.5938 48.1875
Q44.5781 48.1875 50.9531 41.5156
Q57.3281 34.8594 57.3281 23.3906
Q57.3281 12.1562 50.6875 5.35938
Q44.0469 -1.42188 33.0156 -1.42188
Q20.3594 -1.42188 13.6719 8.26562
Q6.98438 17.9688 6.98438 36.375
Q6.98438 53.6562 15.1875 63.9375
Q23.3906 74.2188 37.2031 74.2188
Q40.9219 74.2188 44.7031 73.4844
Q48.4844 72.75 52.5938 71.2969" id="BitstreamVeraSans-Roman-36"/>
      </defs>
      <g transform="translate(288.615 661.118125)scale(0.12 -0.12)">
       <use xlink:href="#BitstreamVeraSans-Roman-36"/>
       <use x="63.623046875" xlink:href="#BitstreamVeraSans-Roman-30"/>
       <use x="127.24609375" xlink:href="#BitstreamVeraSans-Roman-30"/>
      </g>
     </g>
    </g>
    <g id="xtick_5">
     <g id="line2d_9">
      <g>
       <use style="stroke:#000000;stroke-width:0.5;" x="369.0" xlink:href="#mc7db9fdffb" y="648.0"/>
      </g>
     </g>
     <g id="line2d_10">
      <g>
       <use style="stroke:#000000;stroke-width:0.5;" x="369.0" xlink:href="#m5a7d422ac3" y="72.0"/>
      </g>
     </g>
     <g id="text_5">
      <!-- 800 -->
      <defs>
       <path d="
M31.7812 34.625
Q24.75 34.625 20.7188 30.8594
Q16.7031 27.0938 16.7031 20.5156
Q16.7031 13.9219 20.7188 10.1562
Q24.75 6.39062 31.7812 6.39062
Q38.8125 6.39062 42.8594 10.1719
Q46.9219 13.9688 46.9219 20.5156
Q46.9219 27.0938 42.8906 30.8594
Q38.875 34.625 31.7812 34.625
M21.9219 38.8125
Q15.5781 40.375 12.0312 44.7188
Q8.5 49.0781 8.5 55.3281
Q8.5 64.0625 14.7188 69.1406
Q20.9531 74.2188 31.7812 74.2188
Q42.6719 74.2188 48.875 69.1406
Q55.0781 64.0625 55.0781 55.3281
Q55.0781 49.0781 51.5312 44.7188
Q48 40.375 41.7031 38.8125
Q48.8281 37.1562 52.7969 32.3125
Q56.7812 27.4844 56.7812 20.5156
Q56.7812 9.90625 50.3125 4.23438
Q43.8438 -1.42188 31.7812 -1.42188
Q19.7344 -1.42188 13.25 4.23438
Q6.78125 9.90625 6.78125 20.5156
Q6.78125 27.4844 10.7812 32.3125
Q14.7969 37.1562 21.9219 38.8125
M18.3125 54.3906
Q18.3125 48.7344 21.8438 45.5625
Q25.3906 42.3906 31.7812 42.3906
Q38.1406 42.3906 41.7188 45.5625
Q45.3125 48.7344 45.3125 54.3906
Q45.3125 60.0625 41.7188 63.2344
Q38.1406 66.4062 31.7812 66.4062
Q25.3906 66.4062 21.8438 63.2344
Q18.3125 60.0625 18.3125 54.3906" id="BitstreamVeraSans-Roman-38"/>
      </defs>
      <g transform="translate(358.3528125 661.118125)scale(0.12 -0.12)">
       <use xlink:href="#BitstreamVeraSans-Roman-38"/>
       <use x="63.623046875" xlink:href="#BitstreamVeraSans-Roman-30"/>
       <use x="127.24609375" xlink:href="#BitstreamVeraSans-Roman-30"/>
      </g>
     </g>
    </g>
    <g id="xtick_6">
     <g id="line2d_11">
      <g>
       <use style="stroke:#000000;stroke-width:0.5;" x="438.75" xlink:href="#mc7db9fdffb" y="648.0"/>
      </g>
     </g>
     <g id="line2d_12">
      <g>
       <use style="stroke:#000000;stroke-width:0.5;" x="438.75" xlink:href="#m5a7d422ac3" y="72.0"/>
      </g>
     </g>
     <g id="text_6">
      <!-- 1000 -->
      <defs>
       <path d="
M12.4062 8.29688
L28.5156 8.29688
L28.5156 63.9219
L10.9844 60.4062
L10.9844 69.3906
L28.4219 72.9062
L38.2812 72.9062
L38.2812 8.29688
L54.3906 8.29688
L54.3906 0
L12.4062 0
z
" id="BitstreamVeraSans-Roman-31"/>
      </defs>
      <g transform="translate(424.5375 661.118125)scale(0.12 -0.12)">
       <use xlink:href="#BitstreamVeraSans-Roman-31"/>
       <use x="63.623046875" xlink:href="#BitstreamVeraSans-Roman-30"/>
       <use x="127.24609375" xlink:href="#BitstreamVeraSans-Roman-30"/>
       <use x="190.869140625" xlink:href="#BitstreamVeraSans-Roman-30"/>
      </g>
     </g>
    </g>
    <g id="xtick_7">
     <g id="line2d_13">
      <g>
       <use style="stroke:#000000;stroke-width:0.5;" x="508.5" xlink:href="#mc7db9fdffb" y="648.0"/>
      </g>
     </g>
     <g id="line2d_14">
      <g>
       <use style="stroke:#000000;stroke-width:0.5;" x="508.5" xlink:href="#m5a7d422ac3" y="72.0"/>
      </g>
     </g>
     <g id="text_7">
      <!-- 1200 -->
      <g transform="translate(494.2875 661.118125)scale(0.12 -0.12)">
       <use xlink:href="#BitstreamVeraSans-Roman-31"/>
       <use x="63.623046875" xlink:href="#BitstreamVeraSans-Roman-32"/>
       <use x="127.24609375" xlink:href="#BitstreamVeraSans-Roman-30"/>
       <use x="190.869140625" xlink:href="#BitstreamVeraSans-Roman-30"/>
      </g>
     </g>
    </g>
    <g id="xtick_8">
     <g id="line2d_15">
      <g>
       <use style="stroke:#000000;stroke-width:0.5;" x="578.25" xlink:href="#mc7db9fdffb" y="648.0"/>
      </g>
     </g>
     <g id="line2d_16">
      <g>
       <use style="stroke:#000000;stroke-width:0.5;" x="578.25" xlink:href="#m5a7d422ac3" y="72.0"/>
      </g>
     </g>
     <g id="text_8">
      <!-- 1400 -->
      <g transform="translate(564.0375 661.118125)scale(0.12 -0.12)">
       <use xlink:href="#BitstreamVeraSans-Roman-31"/>
       <use x="63.623046875" xlink:href="#BitstreamVeraSans-Roman-34"/>
       <use x="127.24609375" xlink:href="#BitstreamVeraSans-Roman-30"/>
       <use x="190.869140625" xlink:href="#BitstreamVeraSans-Roman-30"/>
      </g>
     </g>
    </g>
    <g id="xtick_9">
     <g id="line2d_17">
      <g>
       <use style="stroke:#000000;stroke-width:0.5;" x="648.0" xlink:href="#mc7db9fdffb" y="648.0"/>
      </g>
     </g>
     <g id="line2d_18">
      <g>
       <use style="stroke:#000000;stroke-width:0.5;" x="648.0" xlink:href="#m5a7d422ac3" y="72.0"/>
      </g>
     </g>
     <g id="text_9">
      <!-- 1600 -->
      <g transform="translate(633.7875 661.118125)scale(0.12 -0.12)">
       <use xlink:href="#BitstreamVeraSans-Roman-31"/>
       <use x="63.623046875" xlink:href="#BitstreamVeraSans-Roman-36"/>
       <use x="127.24609375" xlink:href="#BitstreamVeraSans-Roman-30"/>
       <use x="190.869140625" xlink:href="#BitstreamVeraSans-Roman-30"/>
      </g>
     </g>
    </g>
    <g id="text_10">
     <!-- N of SNV in window -->
     <defs>
      <path d="
M30.6094 48.3906
Q23.3906 48.3906 19.1875 42.75
Q14.9844 37.1094 14.9844 27.2969
Q14.9844 17.4844 19.1562 11.8438
Q23.3438 6.20312 30.6094 6.20312
Q37.7969 6.20312 41.9844 11.8594
Q46.1875 17.5312 46.1875 27.2969
Q46.1875 37.0156 41.9844 42.7031
Q37.7969 48.3906 30.6094 48.3906
M30.6094 56
Q42.3281 56 49.0156 48.375
Q55.7188 40.7656 55.7188 27.2969
Q55.7188 13.875 49.0156 6.21875
Q42.3281 -1.42188 30.6094 -1.42188
Q18.8438 -1.42188 12.1719 6.21875
Q5.51562 13.875 5.51562 27.2969
Q5.51562 40.7656 12.1719 48.375
Q18.8438 56 30.6094 56" id="BitstreamVeraSans-Roman-6f"/>
      <path d="
M37.1094 75.9844
L37.1094 68.5
L28.5156 68.5
Q23.6875 68.5 21.7969 66.5469
Q19.9219 64.5938 19.9219 59.5156
L19.9219 54.6875
L34.7188 54.6875
L34.7188 47.7031
L19.9219 47.7031
L19.9219 0
L10.8906 0
L10.8906 47.7031
L2.29688 47.7031
L2.29688 54.6875
L10.8906 54.6875
L10.8906 58.5
Q10.8906 67.625 15.1406 71.7969
Q19.3906 75.9844 28.6094 75.9844
z
" id="BitstreamVeraSans-Roman-66"/>
      <path d="
M4.20312 54.6875
L13.1875 54.6875
L24.4219 12.0156
L35.5938 54.6875
L46.1875 54.6875
L57.4219 12.0156
L68.6094 54.6875
L77.5938 54.6875
L63.2812 0
L52.6875 0
L40.9219 44.8281
L29.1094 0
L18.5 0
z
" id="BitstreamVeraSans-Roman-77"/>
      <path d="
M54.8906 33.0156
L54.8906 0
L45.9062 0
L45.9062 32.7188
Q45.9062 40.4844 42.875 44.3281
Q39.8438 48.1875 33.7969 48.1875
Q26.5156 48.1875 22.3125 43.5469
Q18.1094 38.9219 18.1094 30.9062
L18.1094 0
L9.07812 0
L9.07812 54.6875
L18.1094 54.6875
L18.1094 46.1875
Q21.3438 51.125 25.7031 53.5625
Q30.0781 56 35.7969 56
Q45.2188 56 50.0469 50.1719
Q54.8906 44.3438 54.8906 33.0156" id="BitstreamVeraSans-Roman-6e"/>
      <path d="
M9.8125 72.9062
L23.0938 72.9062
L55.4219 11.9219
L55.4219 72.9062
L64.9844 72.9062
L64.9844 0
L51.7031 0
L19.3906 60.9844
L19.3906 0
L9.8125 0
z
" id="BitstreamVeraSans-Roman-4e"/>
      <path d="
M28.6094 0
L0.78125 72.9062
L11.0781 72.9062
L34.1875 11.5312
L57.3281 72.9062
L67.5781 72.9062
L39.7969 0
z
" id="BitstreamVeraSans-Roman-56"/>
      <path id="BitstreamVeraSans-Roman-20"/>
      <path d="
M53.5156 70.5156
L53.5156 60.8906
Q47.9062 63.5781 42.9219 64.8906
Q37.9375 66.2188 33.2969 66.2188
Q25.25 66.2188 20.875 63.0938
Q16.5 59.9688 16.5 54.2031
Q16.5 49.3594 19.4062 46.8906
Q22.3125 44.4375 30.4219 42.9219
L36.375 41.7031
Q47.4062 39.5938 52.6562 34.2969
Q57.9062 29 57.9062 20.125
Q57.9062 9.51562 50.7969 4.04688
Q43.7031 -1.42188 29.9844 -1.42188
Q24.8125 -1.42188 18.9688 -0.25
Q13.1406 0.921875 6.89062 3.21875
L6.89062 13.375
Q12.8906 10.0156 18.6562 8.29688
Q24.4219 6.59375 29.9844 6.59375
Q38.4219 6.59375 43.0156 9.90625
Q47.6094 13.2344 47.6094 19.3906
Q47.6094 24.75 44.3125 27.7812
Q41.0156 30.8125 33.5 32.3281
L27.4844 33.5
Q16.4531 35.6875 11.5156 40.375
Q6.59375 45.0625 6.59375 53.4219
Q6.59375 63.0938 13.4062 68.6562
Q20.2188 74.2188 32.1719 74.2188
Q37.3125 74.2188 42.625 73.2812
Q47.9531 72.3594 53.5156 70.5156" id="BitstreamVeraSans-Roman-53"/>
      <path d="
M45.4062 46.3906
L45.4062 75.9844
L54.3906 75.9844
L54.3906 0
L45.4062 0
L45.4062 8.20312
Q42.5781 3.32812 38.25 0.953125
Q33.9375 -1.42188 27.875 -1.42188
Q17.9688 -1.42188 11.7344 6.48438
Q5.51562 14.4062 5.51562 27.2969
Q5.51562 40.1875 11.7344 48.0938
Q17.9688 56 27.875 56
Q33.9375 56 38.25 53.625
Q42.5781 51.2656 45.4062 46.3906
M14.7969 27.2969
Q14.7969 17.3906 18.875 11.75
Q22.9531 6.10938 30.0781 6.10938
Q37.2031 6.10938 41.2969 11.75
Q45.4062 17.3906 45.4062 27.2969
Q45.4062 37.2031 41.2969 42.8438
Q37.2031 48.4844 30.0781 48.4844
Q22.9531 48.4844 18.875 42.8438
Q14.7969 37.2031 14.7969 27.2969" id="BitstreamVeraSans-Roman-64"/>
      <path d="
M9.42188 54.6875
L18.4062 54.6875
L18.4062 0
L9.42188 0
z

M9.42188 75.9844
L18.4062 75.9844
L18.4062 64.5938
L9.42188 64.5938
z
" id="BitstreamVeraSans-Roman-69"/>
     </defs>
     <g transform="translate(310.7165625 677.731875)scale(0.12 -0.12)">
      <use xlink:href="#BitstreamVeraSans-Roman-4e"/>
      <use x="74.8046875" xlink:href="#BitstreamVeraSans-Roman-20"/>
      <use x="106.591796875" xlink:href="#BitstreamVeraSans-Roman-6f"/>
      <use x="167.7734375" xlink:href="#BitstreamVeraSans-Roman-66"/>
      <use x="202.978515625" xlink:href="#BitstreamVeraSans-Roman-20"/>
      <use x="234.765625" xlink:href="#BitstreamVeraSans-Roman-53"/>
      <use x="298.2421875" xlink:href="#BitstreamVeraSans-Roman-4e"/>
      <use x="373.046875" xlink:href="#BitstreamVeraSans-Roman-56"/>
      <use x="441.455078125" xlink:href="#BitstreamVeraSans-Roman-20"/>
      <use x="473.2421875" xlink:href="#BitstreamVeraSans-Roman-69"/>
      <use x="501.025390625" xlink:href="#BitstreamVeraSans-Roman-6e"/>
      <use x="564.404296875" xlink:href="#BitstreamVeraSans-Roman-20"/>
      <use x="596.19140625" xlink:href="#BitstreamVeraSans-Roman-77"/>
      <use x="677.978515625" xlink:href="#BitstreamVeraSans-Roman-69"/>
      <use x="705.76171875" xlink:href="#BitstreamVeraSans-Roman-6e"/>
      <use x="769.140625" xlink:href="#BitstreamVeraSans-Roman-64"/>
      <use x="832.6171875" xlink:href="#BitstreamVeraSans-Roman-6f"/>
      <use x="893.798828125" xlink:href="#BitstreamVeraSans-Roman-77"/>
     </g>
    </g>
   </g>
   <g id="matplotlib.axis_2">
    <g id="ytick_1">
     <g id="line2d_19">
      <defs>
       <path d="
M0 0
L4 0" id="md7965d1ba0" style="stroke:#000000;stroke-width:0.5;"/>
      </defs>
      <g>
       <use style="stroke:#000000;stroke-width:0.5;" x="90.0" xlink:href="#md7965d1ba0" y="648.0"/>
      </g>
     </g>
     <g id="line2d_20">
      <defs>
       <path d="
M0 0
L-4 0" id="md9a1c1a7cd" style="stroke:#000000;stroke-width:0.5;"/>
      </defs>
      <g>
       <use style="stroke:#000000;stroke-width:0.5;" x="648.0" xlink:href="#md9a1c1a7cd" y="648.0"/>
      </g>
     </g>
     <g id="text_11">
      <!-- 0 -->
      <g transform="translate(79.953125 651.31125)scale(0.12 -0.12)">
       <use xlink:href="#BitstreamVeraSans-Roman-30"/>
      </g>
     </g>
    </g>
    <g id="ytick_2">
     <g id="line2d_21">
      <g>
       <use style="stroke:#000000;stroke-width:0.5;" x="90.0" xlink:href="#md7965d1ba0" y="532.8"/>
      </g>
     </g>
     <g id="line2d_22">
      <g>
       <use style="stroke:#000000;stroke-width:0.5;" x="648.0" xlink:href="#md9a1c1a7cd" y="532.8"/>
      </g>
     </g>
     <g id="text_12">
      <!-- 50 -->
      <defs>
       <path d="
M10.7969 72.9062
L49.5156 72.9062
L49.5156 64.5938
L19.8281 64.5938
L19.8281 46.7344
Q21.9688 47.4688 24.1094 47.8281
Q26.2656 48.1875 28.4219 48.1875
Q40.625 48.1875 47.75 41.5
Q54.8906 34.8125 54.8906 23.3906
Q54.8906 11.625 47.5625 5.09375
Q40.2344 -1.42188 26.9062 -1.42188
Q22.3125 -1.42188 17.5469 -0.640625
Q12.7969 0.140625 7.71875 1.70312
L7.71875 11.625
Q12.1094 9.23438 16.7969 8.0625
Q21.4844 6.89062 26.7031 6.89062
Q35.1562 6.89062 40.0781 11.3281
Q45.0156 15.7656 45.0156 23.3906
Q45.0156 31 40.0781 35.4375
Q35.1562 39.8906 26.7031 39.8906
Q22.75 39.8906 18.8125 39.0156
Q14.8906 38.1406 10.7969 36.2812
z
" id="BitstreamVeraSans-Roman-35"/>
      </defs>
      <g transform="translate(72.453125 536.11125)scale(0.12 -0.12)">
       <use xlink:href="#BitstreamVeraSans-Roman-35"/>
       <use x="63.623046875" xlink:href="#BitstreamVeraSans-Roman-30"/>
      </g>
     </g>
    </g>
    <g id="ytick_3">
     <g id="line2d_23">
      <g>
       <use style="stroke:#000000;stroke-width:0.5;" x="90.0" xlink:href="#md7965d1ba0" y="417.6"/>
      </g>
     </g>
     <g id="line2d_24">
      <g>
       <use style="stroke:#000000;stroke-width:0.5;" x="648.0" xlink:href="#md9a1c1a7cd" y="417.6"/>
      </g>
     </g>
     <g id="text_13">
      <!-- 100 -->
      <g transform="translate(65.21 420.91125)scale(0.12 -0.12)">
       <use xlink:href="#BitstreamVeraSans-Roman-31"/>
       <use x="63.623046875" xlink:href="#BitstreamVeraSans-Roman-30"/>
       <use x="127.24609375" xlink:href="#BitstreamVeraSans-Roman-30"/>
      </g>
     </g>
    </g>
    <g id="ytick_4">
     <g id="line2d_25">
      <g>
       <use style="stroke:#000000;stroke-width:0.5;" x="90.0" xlink:href="#md7965d1ba0" y="302.4"/>
      </g>
     </g>
     <g id="line2d_26">
      <g>
       <use style="stroke:#000000;stroke-width:0.5;" x="648.0" xlink:href="#md9a1c1a7cd" y="302.4"/>
      </g>
     </g>
     <g id="text_14">
      <!-- 150 -->
      <g transform="translate(65.21 305.71125)scale(0.12 -0.12)">
       <use xlink:href="#BitstreamVeraSans-Roman-31"/>
       <use x="63.623046875" xlink:href="#BitstreamVeraSans-Roman-35"/>
       <use x="127.24609375" xlink:href="#BitstreamVeraSans-Roman-30"/>
      </g>
     </g>
    </g>
    <g id="ytick_5">
     <g id="line2d_27">
      <g>
       <use style="stroke:#000000;stroke-width:0.5;" x="90.0" xlink:href="#md7965d1ba0" y="187.2"/>
      </g>
     </g>
     <g id="line2d_28">
      <g>
       <use style="stroke:#000000;stroke-width:0.5;" x="648.0" xlink:href="#md9a1c1a7cd" y="187.2"/>
      </g>
     </g>
     <g id="text_15">
      <!-- 200 -->
      <g transform="translate(64.77125 190.51125)scale(0.12 -0.12)">
       <use xlink:href="#BitstreamVeraSans-Roman-32"/>
       <use x="63.623046875" xlink:href="#BitstreamVeraSans-Roman-30"/>
       <use x="127.24609375" xlink:href="#BitstreamVeraSans-Roman-30"/>
      </g>
     </g>
    </g>
    <g id="ytick_6">
     <g id="line2d_29">
      <g>
       <use style="stroke:#000000;stroke-width:0.5;" x="90.0" xlink:href="#md7965d1ba0" y="72.0"/>
      </g>
     </g>
     <g id="line2d_30">
      <g>
       <use style="stroke:#000000;stroke-width:0.5;" x="648.0" xlink:href="#md9a1c1a7cd" y="72.0"/>
      </g>
     </g>
     <g id="text_16">
      <!-- 250 -->
      <g transform="translate(64.77125 75.31125)scale(0.12 -0.12)">
       <use xlink:href="#BitstreamVeraSans-Roman-32"/>
       <use x="63.623046875" xlink:href="#BitstreamVeraSans-Roman-35"/>
       <use x="127.24609375" xlink:href="#BitstreamVeraSans-Roman-30"/>
      </g>
     </g>
    </g>
    <g id="text_17">
     <!-- N of windows -->
     <defs>
      <path d="
M44.2812 53.0781
L44.2812 44.5781
Q40.4844 46.5312 36.375 47.5
Q32.2812 48.4844 27.875 48.4844
Q21.1875 48.4844 17.8438 46.4375
Q14.5 44.3906 14.5 40.2812
Q14.5 37.1562 16.8906 35.375
Q19.2812 33.5938 26.5156 31.9844
L29.5938 31.2969
Q39.1562 29.25 43.1875 25.5156
Q47.2188 21.7812 47.2188 15.0938
Q47.2188 7.46875 41.1875 3.01562
Q35.1562 -1.42188 24.6094 -1.42188
Q20.2188 -1.42188 15.4531 -0.5625
Q10.6875 0.296875 5.42188 2
L5.42188 11.2812
Q10.4062 8.6875 15.2344 7.39062
Q20.0625 6.10938 24.8125 6.10938
Q31.1562 6.10938 34.5625 8.28125
Q37.9844 10.4531 37.9844 14.4062
Q37.9844 18.0625 35.5156 20.0156
Q33.0625 21.9688 24.7031 23.7812
L21.5781 24.5156
Q13.2344 26.2656 9.51562 29.9062
Q5.8125 33.5469 5.8125 39.8906
Q5.8125 47.6094 11.2812 51.7969
Q16.75 56 26.8125 56
Q31.7812 56 36.1719 55.2656
Q40.5781 54.5469 44.2812 53.0781" id="BitstreamVeraSans-Roman-73"/>
     </defs>
     <g transform="translate(57.275625 399.6825)rotate(-90.0)scale(0.12 -0.12)">
      <use xlink:href="#BitstreamVeraSans-Roman-4e"/>
      <use x="74.8046875" xlink:href="#BitstreamVeraSans-Roman-20"/>
      <use x="106.591796875" xlink:href="#BitstreamVeraSans-Roman-6f"/>
      <use x="167.7734375" xlink:href="#BitstreamVeraSans-Roman-66"/>
      <use x="202.978515625" xlink:href="#BitstreamVeraSans-Roman-20"/>
      <use x="234.765625" xlink:href="#BitstreamVeraSans-Roman-77"/>
      <use x="316.552734375" xlink:href="#BitstreamVeraSans-Roman-69"/>
      <use x="344.3359375" xlink:href="#BitstreamVeraSans-Roman-6e"/>
      <use x="407.71484375" xlink:href="#BitstreamVeraSans-Roman-64"/>
      <use x="471.19140625" xlink:href="#BitstreamVeraSans-Roman-6f"/>
      <use x="532.373046875" xlink:href="#BitstreamVeraSans-Roman-77"/>
      <use x="614.16015625" xlink:href="#BitstreamVeraSans-Roman-73"/>
     </g>
    </g>
   </g>
   <g id="patch_53">
    <path d="
M90 648
L648 648" style="fill:none;stroke:#000000;"/>
   </g>
   <g id="patch_54">
    <path d="
M648 648
L648 72" style="fill:none;stroke:#000000;"/>
   </g>
   <g id="patch_55">
    <path d="
M90 648
L90 72" style="fill:none;stroke:#000000;"/>
   </g>
   <g id="patch_56">
    <path d="
M90 72
L648 72" style="fill:none;stroke:#000000;"/>
   </g>
   <g id="text_18">
    <!-- Chromosome All -->
    <defs>
     <path d="
M34.1875 63.1875
L20.7969 26.9062
L47.6094 26.9062
z

M28.6094 72.9062
L39.7969 72.9062
L67.5781 0
L57.3281 0
L50.6875 18.7031
L17.8281 18.7031
L11.1875 0
L0.78125 0
z
" id="BitstreamVeraSans-Roman-41"/>
     <path d="
M52 44.1875
Q55.375 50.25 60.0625 53.125
Q64.75 56 71.0938 56
Q79.6406 56 84.2812 50.0156
Q88.9219 44.0469 88.9219 33.0156
L88.9219 0
L79.8906 0
L79.8906 32.7188
Q79.8906 40.5781 77.0938 44.375
Q74.3125 48.1875 68.6094 48.1875
Q61.625 48.1875 57.5625 43.5469
Q53.5156 38.9219 53.5156 30.9062
L53.5156 0
L44.4844 0
L44.4844 32.7188
Q44.4844 40.625 41.7031 44.4062
Q38.9219 48.1875 33.1094 48.1875
Q26.2188 48.1875 22.1562 43.5312
Q18.1094 38.875 18.1094 30.9062
L18.1094 0
L9.07812 0
L9.07812 54.6875
L18.1094 54.6875
L18.1094 46.1875
Q21.1875 51.2188 25.4844 53.6094
Q29.7812 56 35.6875 56
Q41.6562 56 45.8281 52.9688
Q50 49.9531 52 44.1875" id="BitstreamVeraSans-Roman-6d"/>
     <path d="
M56.2031 29.5938
L56.2031 25.2031
L14.8906 25.2031
Q15.4844 15.9219 20.4844 11.0625
Q25.4844 6.20312 34.4219 6.20312
Q39.5938 6.20312 44.4531 7.46875
Q49.3125 8.73438 54.1094 11.2812
L54.1094 2.78125
Q49.2656 0.734375 44.1875 -0.34375
Q39.1094 -1.42188 33.8906 -1.42188
Q20.7969 -1.42188 13.1562 6.1875
Q5.51562 13.8125 5.51562 26.8125
Q5.51562 40.2344 12.7656 48.1094
Q20.0156 56 32.3281 56
Q43.3594 56 49.7812 48.8906
Q56.2031 41.7969 56.2031 29.5938
M47.2188 32.2344
Q47.125 39.5938 43.0938 43.9844
Q39.0625 48.3906 32.4219 48.3906
Q24.9062 48.3906 20.3906 44.1406
Q15.875 39.8906 15.1875 32.1719
z
" id="BitstreamVeraSans-Roman-65"/>
     <path d="
M9.42188 75.9844
L18.4062 75.9844
L18.4062 0
L9.42188 0
z
" id="BitstreamVeraSans-Roman-6c"/>
     <path d="
M41.1094 46.2969
Q39.5938 47.1719 37.8125 47.5781
Q36.0312 48 33.8906 48
Q26.2656 48 22.1875 43.0469
Q18.1094 38.0938 18.1094 28.8125
L18.1094 0
L9.07812 0
L9.07812 54.6875
L18.1094 54.6875
L18.1094 46.1875
Q20.9531 51.1719 25.4844 53.5781
Q30.0312 56 36.5312 56
Q37.4531 56 38.5781 55.875
Q39.7031 55.7656 41.0625 55.5156
z
" id="BitstreamVeraSans-Roman-72"/>
     <path d="
M64.4062 67.2812
L64.4062 56.8906
Q59.4219 61.5312 53.7812 63.8125
Q48.1406 66.1094 41.7969 66.1094
Q29.2969 66.1094 22.6562 58.4688
Q16.0156 50.8281 16.0156 36.375
Q16.0156 21.9688 22.6562 14.3281
Q29.2969 6.6875 41.7969 6.6875
Q48.1406 6.6875 53.7812 8.98438
Q59.4219 11.2812 64.4062 15.9219
L64.4062 5.60938
Q59.2344 2.09375 53.4375 0.328125
Q47.6562 -1.42188 41.2188 -1.42188
Q24.6562 -1.42188 15.125 8.70312
Q5.60938 18.8438 5.60938 36.375
Q5.60938 53.9531 15.125 64.0781
Q24.6562 74.2188 41.2188 74.2188
Q47.75 74.2188 53.5312 72.4844
Q59.3281 70.75 64.4062 67.2812" id="BitstreamVeraSans-Roman-43"/>
     <path d="
M54.8906 33.0156
L54.8906 0
L45.9062 0
L45.9062 32.7188
Q45.9062 40.4844 42.875 44.3281
Q39.8438 48.1875 33.7969 48.1875
Q26.5156 48.1875 22.3125 43.5469
Q18.1094 38.9219 18.1094 30.9062
L18.1094 0
L9.07812 0
L9.07812 75.9844
L18.1094 75.9844
L18.1094 46.1875
Q21.3438 51.125 25.7031 53.5625
Q30.0781 56 35.7969 56
Q45.2188 56 50.0469 50.1719
Q54.8906 44.3438 54.8906 33.0156" id="BitstreamVeraSans-Roman-68"/>
    </defs>
    <g transform="translate(310.6485 67.0)scale(0.144 -0.144)">
     <use xlink:href="#BitstreamVeraSans-Roman-43"/>
     <use x="69.82421875" xlink:href="#BitstreamVeraSans-Roman-68"/>
     <use x="133.203125" xlink:href="#BitstreamVeraSans-Roman-72"/>
     <use x="172.06640625" xlink:href="#BitstreamVeraSans-Roman-6f"/>
     <use x="233.248046875" xlink:href="#BitstreamVeraSans-Roman-6d"/>
     <use x="330.66015625" xlink:href="#BitstreamVeraSans-Roman-6f"/>
     <use x="391.841796875" xlink:href="#BitstreamVeraSans-Roman-73"/>
     <use x="443.94140625" xlink:href="#BitstreamVeraSans-Roman-6f"/>
     <use x="505.123046875" xlink:href="#BitstreamVeraSans-Roman-6d"/>
     <use x="602.53515625" xlink:href="#BitstreamVeraSans-Roman-65"/>
     <use x="664.05859375" xlink:href="#BitstreamVeraSans-Roman-20"/>
     <use x="695.845703125" xlink:href="#BitstreamVeraSans-Roman-41"/>
     <use x="764.25390625" xlink:href="#BitstreamVeraSans-Roman-6c"/>
     <use x="792.037109375" xlink:href="#BitstreamVeraSans-Roman-6c"/>
    </g>
   </g>
  </g>
 </g>
 <defs>
  <clipPath id="p8deeaca9bf">
   <rect height="576.0" width="558.0" x="90.0" y="72.0"/>
  </clipPath>
 </defs>
</svg>
