<?xml version="1.0" encoding="utf-8" standalone="no"?>
<!DOCTYPE svg PUBLIC "-//W3C//DTD SVG 1.1//EN"
  "http://www.w3.org/Graphics/SVG/1.1/DTD/svg11.dtd">
<!-- Created with matplotlib (http://matplotlib.org/) -->
<svg height="1440pt" version="1.1" viewBox="0 0 1440 1440" width="1440pt" xmlns="http://www.w3.org/2000/svg" xmlns:xlink="http://www.w3.org/1999/xlink">
 <defs>
  <style type="text/css">
*{stroke-linecap:butt;stroke-linejoin:round;}
  </style>
 </defs>
 <g id="figure_1">
  <g id="patch_1">
   <path d="
M0 1440
L1440 1440
L1440 0
L0 0
z
" style="fill:#ffffff;"/>
  </g>
  <g id="axes_1">
   <g id="patch_2">
    <path d="
M180 1296
L1296 1296
L1296 144
L180 144
z
" style="fill:#ffffff;"/>
   </g>
   <g id="patch_3">
    <path clip-path="url(#p5843153e70)" d="
M182.278 1296
L188.351 1296
L188.351 224.64
L182.278 224.64
z
" style="fill:#0000ff;opacity:0.5;stroke:#000000;"/>
   </g>
   <g id="patch_4">
    <path clip-path="url(#p5843153e70)" d="
M205.053 1296
L211.127 1296
L211.127 414.72
L205.053 414.72
z
" style="fill:#0000ff;opacity:0.5;stroke:#000000;"/>
   </g>
   <g id="patch_5">
    <path clip-path="url(#p5843153e70)" d="
M227.829 1296
L233.902 1296
L233.902 636.48
L227.829 636.48
z
" style="fill:#0000ff;opacity:0.5;stroke:#000000;"/>
   </g>
   <g id="patch_6">
    <path clip-path="url(#p5843153e70)" d="
M250.604 1296
L256.678 1296
L256.678 838.08
L250.604 838.08
z
" style="fill:#0000ff;opacity:0.5;stroke:#000000;"/>
   </g>
   <g id="patch_7">
    <path clip-path="url(#p5843153e70)" d="
M273.38 1296
L279.453 1296
L279.453 887.04
L273.38 887.04
z
" style="fill:#0000ff;opacity:0.5;stroke:#000000;"/>
   </g>
   <g id="patch_8">
    <path clip-path="url(#p5843153e70)" d="
M296.155 1296
L302.229 1296
L302.229 1013.76
L296.155 1013.76
z
" style="fill:#0000ff;opacity:0.5;stroke:#000000;"/>
   </g>
   <g id="patch_9">
    <path clip-path="url(#p5843153e70)" d="
M318.931 1296
L325.004 1296
L325.004 996.48
L318.931 996.48
z
" style="fill:#0000ff;opacity:0.5;stroke:#000000;"/>
   </g>
   <g id="patch_10">
    <path clip-path="url(#p5843153e70)" d="
M341.706 1296
L347.78 1296
L347.78 1082.88
L341.706 1082.88
z
" style="fill:#0000ff;opacity:0.5;stroke:#000000;"/>
   </g>
   <g id="patch_11">
    <path clip-path="url(#p5843153e70)" d="
M364.482 1296
L370.555 1296
L370.555 1258.56
L364.482 1258.56
z
" style="fill:#0000ff;opacity:0.5;stroke:#000000;"/>
   </g>
   <g id="patch_12">
    <path clip-path="url(#p5843153e70)" d="
M387.257 1296
L393.331 1296
L393.331 1270.08
L387.257 1270.08
z
" style="fill:#0000ff;opacity:0.5;stroke:#000000;"/>
   </g>
   <g id="patch_13">
    <path clip-path="url(#p5843153e70)" d="
M410.033 1296
L416.106 1296
L416.106 1278.72
L410.033 1278.72
z
" style="fill:#0000ff;opacity:0.5;stroke:#000000;"/>
   </g>
   <g id="patch_14">
    <path clip-path="url(#p5843153e70)" d="
M432.808 1296
L438.882 1296
L438.882 1284.48
L432.808 1284.48
z
" style="fill:#0000ff;opacity:0.5;stroke:#000000;"/>
   </g>
   <g id="patch_15">
    <path clip-path="url(#p5843153e70)" d="
M455.584 1296
L461.657 1296
L461.657 1296
L455.584 1296
z
" style="fill:#0000ff;opacity:0.5;stroke:#000000;"/>
   </g>
   <g id="patch_16">
    <path clip-path="url(#p5843153e70)" d="
M478.359 1296
L484.433 1296
L484.433 1272.96
L478.359 1272.96
z
" style="fill:#0000ff;opacity:0.5;stroke:#000000;"/>
   </g>
   <g id="patch_17">
    <path clip-path="url(#p5843153e70)" d="
M501.135 1296
L507.208 1296
L507.208 1226.88
L501.135 1226.88
z
" style="fill:#0000ff;opacity:0.5;stroke:#000000;"/>
   </g>
   <g id="patch_18">
    <path clip-path="url(#p5843153e70)" d="
M523.91 1296
L529.984 1296
L529.984 1293.12
L523.91 1293.12
z
" style="fill:#0000ff;opacity:0.5;stroke:#000000;"/>
   </g>
   <g id="patch_19">
    <path clip-path="url(#p5843153e70)" d="
M546.686 1296
L552.759 1296
L552.759 1296
L546.686 1296
z
" style="fill:#0000ff;opacity:0.5;stroke:#000000;"/>
   </g>
   <g id="patch_20">
    <path clip-path="url(#p5843153e70)" d="
M569.461 1296
L575.535 1296
L575.535 1267.2
L569.461 1267.2
z
" style="fill:#0000ff;opacity:0.5;stroke:#000000;"/>
   </g>
   <g id="patch_21">
    <path clip-path="url(#p5843153e70)" d="
M592.237 1296
L598.31 1296
L598.31 1296
L592.237 1296
z
" style="fill:#0000ff;opacity:0.5;stroke:#000000;"/>
   </g>
   <g id="patch_22">
    <path clip-path="url(#p5843153e70)" d="
M615.012 1296
L621.086 1296
L621.086 1272.96
L615.012 1272.96
z
" style="fill:#0000ff;opacity:0.5;stroke:#000000;"/>
   </g>
   <g id="patch_23">
    <path clip-path="url(#p5843153e70)" d="
M637.788 1296
L643.861 1296
L643.861 1290.24
L637.788 1290.24
z
" style="fill:#0000ff;opacity:0.5;stroke:#000000;"/>
   </g>
   <g id="patch_24">
    <path clip-path="url(#p5843153e70)" d="
M660.563 1296
L666.637 1296
L666.637 1296
L660.563 1296
z
" style="fill:#0000ff;opacity:0.5;stroke:#000000;"/>
   </g>
   <g id="patch_25">
    <path clip-path="url(#p5843153e70)" d="
M683.339 1296
L689.412 1296
L689.412 1296
L683.339 1296
z
" style="fill:#0000ff;opacity:0.5;stroke:#000000;"/>
   </g>
   <g id="patch_26">
    <path clip-path="url(#p5843153e70)" d="
M706.114 1296
L712.188 1296
L712.188 1296
L706.114 1296
z
" style="fill:#0000ff;opacity:0.5;stroke:#000000;"/>
   </g>
   <g id="patch_27">
    <path clip-path="url(#p5843153e70)" d="
M728.89 1296
L734.963 1296
L734.963 1296
L728.89 1296
z
" style="fill:#0000ff;opacity:0.5;stroke:#000000;"/>
   </g>
   <g id="patch_28">
    <path clip-path="url(#p5843153e70)" d="
M751.665 1296
L757.739 1296
L757.739 1296
L751.665 1296
z
" style="fill:#0000ff;opacity:0.5;stroke:#000000;"/>
   </g>
   <g id="patch_29">
    <path clip-path="url(#p5843153e70)" d="
M774.441 1296
L780.514 1296
L780.514 1296
L774.441 1296
z
" style="fill:#0000ff;opacity:0.5;stroke:#000000;"/>
   </g>
   <g id="patch_30">
    <path clip-path="url(#p5843153e70)" d="
M797.216 1296
L803.29 1296
L803.29 1296
L797.216 1296
z
" style="fill:#0000ff;opacity:0.5;stroke:#000000;"/>
   </g>
   <g id="patch_31">
    <path clip-path="url(#p5843153e70)" d="
M819.992 1296
L826.065 1296
L826.065 1296
L819.992 1296
z
" style="fill:#0000ff;opacity:0.5;stroke:#000000;"/>
   </g>
   <g id="patch_32">
    <path clip-path="url(#p5843153e70)" d="
M842.767 1296
L848.841 1296
L848.841 1296
L842.767 1296
z
" style="fill:#0000ff;opacity:0.5;stroke:#000000;"/>
   </g>
   <g id="patch_33">
    <path clip-path="url(#p5843153e70)" d="
M865.543 1296
L871.616 1296
L871.616 1296
L865.543 1296
z
" style="fill:#0000ff;opacity:0.5;stroke:#000000;"/>
   </g>
   <g id="patch_34">
    <path clip-path="url(#p5843153e70)" d="
M888.318 1296
L894.392 1296
L894.392 1296
L888.318 1296
z
" style="fill:#0000ff;opacity:0.5;stroke:#000000;"/>
   </g>
   <g id="patch_35">
    <path clip-path="url(#p5843153e70)" d="
M911.094 1296
L917.167 1296
L917.167 1296
L911.094 1296
z
" style="fill:#0000ff;opacity:0.5;stroke:#000000;"/>
   </g>
   <g id="patch_36">
    <path clip-path="url(#p5843153e70)" d="
M933.869 1296
L939.943 1296
L939.943 1296
L933.869 1296
z
" style="fill:#0000ff;opacity:0.5;stroke:#000000;"/>
   </g>
   <g id="patch_37">
    <path clip-path="url(#p5843153e70)" d="
M956.645 1296
L962.718 1296
L962.718 1296
L956.645 1296
z
" style="fill:#0000ff;opacity:0.5;stroke:#000000;"/>
   </g>
   <g id="patch_38">
    <path clip-path="url(#p5843153e70)" d="
M979.42 1296
L985.494 1296
L985.494 1296
L979.42 1296
z
" style="fill:#0000ff;opacity:0.5;stroke:#000000;"/>
   </g>
   <g id="patch_39">
    <path clip-path="url(#p5843153e70)" d="
M1002.2 1296
L1008.27 1296
L1008.27 1296
L1002.2 1296
z
" style="fill:#0000ff;opacity:0.5;stroke:#000000;"/>
   </g>
   <g id="patch_40">
    <path clip-path="url(#p5843153e70)" d="
M1024.97 1296
L1031.04 1296
L1031.04 1296
L1024.97 1296
z
" style="fill:#0000ff;opacity:0.5;stroke:#000000;"/>
   </g>
   <g id="patch_41">
    <path clip-path="url(#p5843153e70)" d="
M1047.75 1296
L1053.82 1296
L1053.82 1296
L1047.75 1296
z
" style="fill:#0000ff;opacity:0.5;stroke:#000000;"/>
   </g>
   <g id="patch_42">
    <path clip-path="url(#p5843153e70)" d="
M1070.52 1296
L1076.6 1296
L1076.6 1296
L1070.52 1296
z
" style="fill:#0000ff;opacity:0.5;stroke:#000000;"/>
   </g>
   <g id="patch_43">
    <path clip-path="url(#p5843153e70)" d="
M1093.3 1296
L1099.37 1296
L1099.37 1296
L1093.3 1296
z
" style="fill:#0000ff;opacity:0.5;stroke:#000000;"/>
   </g>
   <g id="patch_44">
    <path clip-path="url(#p5843153e70)" d="
M1116.07 1296
L1122.15 1296
L1122.15 1296
L1116.07 1296
z
" style="fill:#0000ff;opacity:0.5;stroke:#000000;"/>
   </g>
   <g id="patch_45">
    <path clip-path="url(#p5843153e70)" d="
M1138.85 1296
L1144.92 1296
L1144.92 1296
L1138.85 1296
z
" style="fill:#0000ff;opacity:0.5;stroke:#000000;"/>
   </g>
   <g id="patch_46">
    <path clip-path="url(#p5843153e70)" d="
M1161.62 1296
L1167.7 1296
L1167.7 1296
L1161.62 1296
z
" style="fill:#0000ff;opacity:0.5;stroke:#000000;"/>
   </g>
   <g id="patch_47">
    <path clip-path="url(#p5843153e70)" d="
M1184.4 1296
L1190.47 1296
L1190.47 1296
L1184.4 1296
z
" style="fill:#0000ff;opacity:0.5;stroke:#000000;"/>
   </g>
   <g id="patch_48">
    <path clip-path="url(#p5843153e70)" d="
M1207.18 1296
L1213.25 1296
L1213.25 1296
L1207.18 1296
z
" style="fill:#0000ff;opacity:0.5;stroke:#000000;"/>
   </g>
   <g id="patch_49">
    <path clip-path="url(#p5843153e70)" d="
M1229.95 1296
L1236.02 1296
L1236.02 1296
L1229.95 1296
z
" style="fill:#0000ff;opacity:0.5;stroke:#000000;"/>
   </g>
   <g id="patch_50">
    <path clip-path="url(#p5843153e70)" d="
M1252.73 1296
L1258.8 1296
L1258.8 1296
L1252.73 1296
z
" style="fill:#0000ff;opacity:0.5;stroke:#000000;"/>
   </g>
   <g id="patch_51">
    <path clip-path="url(#p5843153e70)" d="
M1275.5 1296
L1281.58 1296
L1281.58 1296
L1275.5 1296
z
" style="fill:#0000ff;opacity:0.5;stroke:#000000;"/>
   </g>
   <g id="patch_52">
    <path clip-path="url(#p5843153e70)" d="
M188.351 1296
L194.424 1296
L194.424 1284.48
L188.351 1284.48
z
" style="fill:#008000;opacity:0.5;stroke:#000000;"/>
   </g>
   <g id="patch_53">
    <path clip-path="url(#p5843153e70)" d="
M211.127 1296
L217.2 1296
L217.2 1272.96
L211.127 1272.96
z
" style="fill:#008000;opacity:0.5;stroke:#000000;"/>
   </g>
   <g id="patch_54">
    <path clip-path="url(#p5843153e70)" d="
M233.902 1296
L239.976 1296
L239.976 1258.56
L233.902 1258.56
z
" style="fill:#008000;opacity:0.5;stroke:#000000;"/>
   </g>
   <g id="patch_55">
    <path clip-path="url(#p5843153e70)" d="
M256.678 1296
L262.751 1296
L262.751 1218.24
L256.678 1218.24
z
" style="fill:#008000;opacity:0.5;stroke:#000000;"/>
   </g>
   <g id="patch_56">
    <path clip-path="url(#p5843153e70)" d="
M279.453 1296
L285.527 1296
L285.527 1117.44
L279.453 1117.44
z
" style="fill:#008000;opacity:0.5;stroke:#000000;"/>
   </g>
   <g id="patch_57">
    <path clip-path="url(#p5843153e70)" d="
M302.229 1296
L308.302 1296
L308.302 990.72
L302.229 990.72
z
" style="fill:#008000;opacity:0.5;stroke:#000000;"/>
   </g>
   <g id="patch_58">
    <path clip-path="url(#p5843153e70)" d="
M325.004 1296
L331.078 1296
L331.078 921.6
L325.004 921.6
z
" style="fill:#008000;opacity:0.5;stroke:#000000;"/>
   </g>
   <g id="patch_59">
    <path clip-path="url(#p5843153e70)" d="
M347.78 1296
L353.853 1296
L353.853 898.56
L347.78 898.56
z
" style="fill:#008000;opacity:0.5;stroke:#000000;"/>
   </g>
   <g id="patch_60">
    <path clip-path="url(#p5843153e70)" d="
M370.555 1296
L376.629 1296
L376.629 763.2
L370.555 763.2
z
" style="fill:#008000;opacity:0.5;stroke:#000000;"/>
   </g>
   <g id="patch_61">
    <path clip-path="url(#p5843153e70)" d="
M393.331 1296
L399.404 1296
L399.404 792
L393.331 792
z
" style="fill:#008000;opacity:0.5;stroke:#000000;"/>
   </g>
   <g id="patch_62">
    <path clip-path="url(#p5843153e70)" d="
M416.106 1296
L422.18 1296
L422.18 748.8
L416.106 748.8
z
" style="fill:#008000;opacity:0.5;stroke:#000000;"/>
   </g>
   <g id="patch_63">
    <path clip-path="url(#p5843153e70)" d="
M438.882 1296
L444.955 1296
L444.955 936
L438.882 936
z
" style="fill:#008000;opacity:0.5;stroke:#000000;"/>
   </g>
   <g id="patch_64">
    <path clip-path="url(#p5843153e70)" d="
M461.657 1296
L467.731 1296
L467.731 1005.12
L461.657 1005.12
z
" style="fill:#008000;opacity:0.5;stroke:#000000;"/>
   </g>
   <g id="patch_65">
    <path clip-path="url(#p5843153e70)" d="
M484.433 1296
L490.506 1296
L490.506 1071.36
L484.433 1071.36
z
" style="fill:#008000;opacity:0.5;stroke:#000000;"/>
   </g>
   <g id="patch_66">
    <path clip-path="url(#p5843153e70)" d="
M507.208 1296
L513.282 1296
L513.282 1091.52
L507.208 1091.52
z
" style="fill:#008000;opacity:0.5;stroke:#000000;"/>
   </g>
   <g id="patch_67">
    <path clip-path="url(#p5843153e70)" d="
M529.984 1296
L536.057 1296
L536.057 1163.52
L529.984 1163.52
z
" style="fill:#008000;opacity:0.5;stroke:#000000;"/>
   </g>
   <g id="patch_68">
    <path clip-path="url(#p5843153e70)" d="
M552.759 1296
L558.833 1296
L558.833 1221.12
L552.759 1221.12
z
" style="fill:#008000;opacity:0.5;stroke:#000000;"/>
   </g>
   <g id="patch_69">
    <path clip-path="url(#p5843153e70)" d="
M575.535 1296
L581.608 1296
L581.608 1192.32
L575.535 1192.32
z
" style="fill:#008000;opacity:0.5;stroke:#000000;"/>
   </g>
   <g id="patch_70">
    <path clip-path="url(#p5843153e70)" d="
M598.31 1296
L604.384 1296
L604.384 1241.28
L598.31 1241.28
z
" style="fill:#008000;opacity:0.5;stroke:#000000;"/>
   </g>
   <g id="patch_71">
    <path clip-path="url(#p5843153e70)" d="
M621.086 1296
L627.159 1296
L627.159 1275.84
L621.086 1275.84
z
" style="fill:#008000;opacity:0.5;stroke:#000000;"/>
   </g>
   <g id="patch_72">
    <path clip-path="url(#p5843153e70)" d="
M643.861 1296
L649.935 1296
L649.935 1290.24
L643.861 1290.24
z
" style="fill:#008000;opacity:0.5;stroke:#000000;"/>
   </g>
   <g id="patch_73">
    <path clip-path="url(#p5843153e70)" d="
M666.637 1296
L672.71 1296
L672.71 1272.96
L666.637 1272.96
z
" style="fill:#008000;opacity:0.5;stroke:#000000;"/>
   </g>
   <g id="patch_74">
    <path clip-path="url(#p5843153e70)" d="
M689.412 1296
L695.486 1296
L695.486 1296
L689.412 1296
z
" style="fill:#008000;opacity:0.5;stroke:#000000;"/>
   </g>
   <g id="patch_75">
    <path clip-path="url(#p5843153e70)" d="
M712.188 1296
L718.261 1296
L718.261 1296
L712.188 1296
z
" style="fill:#008000;opacity:0.5;stroke:#000000;"/>
   </g>
   <g id="patch_76">
    <path clip-path="url(#p5843153e70)" d="
M734.963 1296
L741.037 1296
L741.037 1296
L734.963 1296
z
" style="fill:#008000;opacity:0.5;stroke:#000000;"/>
   </g>
   <g id="patch_77">
    <path clip-path="url(#p5843153e70)" d="
M757.739 1296
L763.812 1296
L763.812 1296
L757.739 1296
z
" style="fill:#008000;opacity:0.5;stroke:#000000;"/>
   </g>
   <g id="patch_78">
    <path clip-path="url(#p5843153e70)" d="
M780.514 1296
L786.588 1296
L786.588 1296
L780.514 1296
z
" style="fill:#008000;opacity:0.5;stroke:#000000;"/>
   </g>
   <g id="patch_79">
    <path clip-path="url(#p5843153e70)" d="
M803.29 1296
L809.363 1296
L809.363 1296
L803.29 1296
z
" style="fill:#008000;opacity:0.5;stroke:#000000;"/>
   </g>
   <g id="patch_80">
    <path clip-path="url(#p5843153e70)" d="
M826.065 1296
L832.139 1296
L832.139 1296
L826.065 1296
z
" style="fill:#008000;opacity:0.5;stroke:#000000;"/>
   </g>
   <g id="patch_81">
    <path clip-path="url(#p5843153e70)" d="
M848.841 1296
L854.914 1296
L854.914 1296
L848.841 1296
z
" style="fill:#008000;opacity:0.5;stroke:#000000;"/>
   </g>
   <g id="patch_82">
    <path clip-path="url(#p5843153e70)" d="
M871.616 1296
L877.69 1296
L877.69 1296
L871.616 1296
z
" style="fill:#008000;opacity:0.5;stroke:#000000;"/>
   </g>
   <g id="patch_83">
    <path clip-path="url(#p5843153e70)" d="
M894.392 1296
L900.465 1296
L900.465 1296
L894.392 1296
z
" style="fill:#008000;opacity:0.5;stroke:#000000;"/>
   </g>
   <g id="patch_84">
    <path clip-path="url(#p5843153e70)" d="
M917.167 1296
L923.241 1296
L923.241 1296
L917.167 1296
z
" style="fill:#008000;opacity:0.5;stroke:#000000;"/>
   </g>
   <g id="patch_85">
    <path clip-path="url(#p5843153e70)" d="
M939.943 1296
L946.016 1296
L946.016 1296
L939.943 1296
z
" style="fill:#008000;opacity:0.5;stroke:#000000;"/>
   </g>
   <g id="patch_86">
    <path clip-path="url(#p5843153e70)" d="
M962.718 1296
L968.792 1296
L968.792 1296
L962.718 1296
z
" style="fill:#008000;opacity:0.5;stroke:#000000;"/>
   </g>
   <g id="patch_87">
    <path clip-path="url(#p5843153e70)" d="
M985.494 1296
L991.567 1296
L991.567 1296
L985.494 1296
z
" style="fill:#008000;opacity:0.5;stroke:#000000;"/>
   </g>
   <g id="patch_88">
    <path clip-path="url(#p5843153e70)" d="
M1008.27 1296
L1014.34 1296
L1014.34 1296
L1008.27 1296
z
" style="fill:#008000;opacity:0.5;stroke:#000000;"/>
   </g>
   <g id="patch_89">
    <path clip-path="url(#p5843153e70)" d="
M1031.04 1296
L1037.12 1296
L1037.12 1296
L1031.04 1296
z
" style="fill:#008000;opacity:0.5;stroke:#000000;"/>
   </g>
   <g id="patch_90">
    <path clip-path="url(#p5843153e70)" d="
M1053.82 1296
L1059.89 1296
L1059.89 1296
L1053.82 1296
z
" style="fill:#008000;opacity:0.5;stroke:#000000;"/>
   </g>
   <g id="patch_91">
    <path clip-path="url(#p5843153e70)" d="
M1076.6 1296
L1082.67 1296
L1082.67 1296
L1076.6 1296
z
" style="fill:#008000;opacity:0.5;stroke:#000000;"/>
   </g>
   <g id="patch_92">
    <path clip-path="url(#p5843153e70)" d="
M1099.37 1296
L1105.44 1296
L1105.44 1296
L1099.37 1296
z
" style="fill:#008000;opacity:0.5;stroke:#000000;"/>
   </g>
   <g id="patch_93">
    <path clip-path="url(#p5843153e70)" d="
M1122.15 1296
L1128.22 1296
L1128.22 1296
L1122.15 1296
z
" style="fill:#008000;opacity:0.5;stroke:#000000;"/>
   </g>
   <g id="patch_94">
    <path clip-path="url(#p5843153e70)" d="
M1144.92 1296
L1151 1296
L1151 1296
L1144.92 1296
z
" style="fill:#008000;opacity:0.5;stroke:#000000;"/>
   </g>
   <g id="patch_95">
    <path clip-path="url(#p5843153e70)" d="
M1167.7 1296
L1173.77 1296
L1173.77 1281.6
L1167.7 1281.6
z
" style="fill:#008000;opacity:0.5;stroke:#000000;"/>
   </g>
   <g id="patch_96">
    <path clip-path="url(#p5843153e70)" d="
M1190.47 1296
L1196.55 1296
L1196.55 1290.24
L1190.47 1290.24
z
" style="fill:#008000;opacity:0.5;stroke:#000000;"/>
   </g>
   <g id="patch_97">
    <path clip-path="url(#p5843153e70)" d="
M1213.25 1296
L1219.32 1296
L1219.32 1290.24
L1213.25 1290.24
z
" style="fill:#008000;opacity:0.5;stroke:#000000;"/>
   </g>
   <g id="patch_98">
    <path clip-path="url(#p5843153e70)" d="
M1236.02 1296
L1242.1 1296
L1242.1 1290.24
L1236.02 1290.24
z
" style="fill:#008000;opacity:0.5;stroke:#000000;"/>
   </g>
   <g id="patch_99">
    <path clip-path="url(#p5843153e70)" d="
M1258.8 1296
L1264.87 1296
L1264.87 1296
L1258.8 1296
z
" style="fill:#008000;opacity:0.5;stroke:#000000;"/>
   </g>
   <g id="patch_100">
    <path clip-path="url(#p5843153e70)" d="
M1281.58 1296
L1287.65 1296
L1287.65 1293.12
L1281.58 1293.12
z
" style="fill:#008000;opacity:0.5;stroke:#000000;"/>
   </g>
   <g id="patch_101">
    <path clip-path="url(#p5843153e70)" d="
M194.424 1296
L200.498 1296
L200.498 1296
L194.424 1296
z
" style="fill:#ff0000;opacity:0.5;stroke:#000000;"/>
   </g>
   <g id="patch_102">
    <path clip-path="url(#p5843153e70)" d="
M217.2 1296
L223.273 1296
L223.273 1296
L217.2 1296
z
" style="fill:#ff0000;opacity:0.5;stroke:#000000;"/>
   </g>
   <g id="patch_103">
    <path clip-path="url(#p5843153e70)" d="
M239.976 1296
L246.049 1296
L246.049 1296
L239.976 1296
z
" style="fill:#ff0000;opacity:0.5;stroke:#000000;"/>
   </g>
   <g id="patch_104">
    <path clip-path="url(#p5843153e70)" d="
M262.751 1296
L268.824 1296
L268.824 1293.12
L262.751 1293.12
z
" style="fill:#ff0000;opacity:0.5;stroke:#000000;"/>
   </g>
   <g id="patch_105">
    <path clip-path="url(#p5843153e70)" d="
M285.527 1296
L291.6 1296
L291.6 1284.48
L285.527 1284.48
z
" style="fill:#ff0000;opacity:0.5;stroke:#000000;"/>
   </g>
   <g id="patch_106">
    <path clip-path="url(#p5843153e70)" d="
M308.302 1296
L314.376 1296
L314.376 1272.96
L308.302 1272.96
z
" style="fill:#ff0000;opacity:0.5;stroke:#000000;"/>
   </g>
   <g id="patch_107">
    <path clip-path="url(#p5843153e70)" d="
M331.078 1296
L337.151 1296
L337.151 1270.08
L331.078 1270.08
z
" style="fill:#ff0000;opacity:0.5;stroke:#000000;"/>
   </g>
   <g id="patch_108">
    <path clip-path="url(#p5843153e70)" d="
M353.853 1296
L359.927 1296
L359.927 1252.8
L353.853 1252.8
z
" style="fill:#ff0000;opacity:0.5;stroke:#000000;"/>
   </g>
   <g id="patch_109">
    <path clip-path="url(#p5843153e70)" d="
M376.629 1296
L382.702 1296
L382.702 1209.6
L376.629 1209.6
z
" style="fill:#ff0000;opacity:0.5;stroke:#000000;"/>
   </g>
   <g id="patch_110">
    <path clip-path="url(#p5843153e70)" d="
M399.404 1296
L405.478 1296
L405.478 1157.76
L399.404 1157.76
z
" style="fill:#ff0000;opacity:0.5;stroke:#000000;"/>
   </g>
   <g id="patch_111">
    <path clip-path="url(#p5843153e70)" d="
M422.18 1296
L428.253 1296
L428.253 950.4
L422.18 950.4
z
" style="fill:#ff0000;opacity:0.5;stroke:#000000;"/>
   </g>
   <g id="patch_112">
    <path clip-path="url(#p5843153e70)" d="
M444.955 1296
L451.029 1296
L451.029 754.56
L444.955 754.56
z
" style="fill:#ff0000;opacity:0.5;stroke:#000000;"/>
   </g>
   <g id="patch_113">
    <path clip-path="url(#p5843153e70)" d="
M467.731 1296
L473.804 1296
L473.804 688.32
L467.731 688.32
z
" style="fill:#ff0000;opacity:0.5;stroke:#000000;"/>
   </g>
   <g id="patch_114">
    <path clip-path="url(#p5843153e70)" d="
M490.506 1296
L496.58 1296
L496.58 722.88
L490.506 722.88
z
" style="fill:#ff0000;opacity:0.5;stroke:#000000;"/>
   </g>
   <g id="patch_115">
    <path clip-path="url(#p5843153e70)" d="
M513.282 1296
L519.355 1296
L519.355 898.56
L513.282 898.56
z
" style="fill:#ff0000;opacity:0.5;stroke:#000000;"/>
   </g>
   <g id="patch_116">
    <path clip-path="url(#p5843153e70)" d="
M536.057 1296
L542.131 1296
L542.131 993.6
L536.057 993.6
z
" style="fill:#ff0000;opacity:0.5;stroke:#000000;"/>
   </g>
   <g id="patch_117">
    <path clip-path="url(#p5843153e70)" d="
M558.833 1296
L564.906 1296
L564.906 1054.08
L558.833 1054.08
z
" style="fill:#ff0000;opacity:0.5;stroke:#000000;"/>
   </g>
   <g id="patch_118">
    <path clip-path="url(#p5843153e70)" d="
M581.608 1296
L587.682 1296
L587.682 1059.84
L581.608 1059.84
z
" style="fill:#ff0000;opacity:0.5;stroke:#000000;"/>
   </g>
   <g id="patch_119">
    <path clip-path="url(#p5843153e70)" d="
M604.384 1296
L610.457 1296
L610.457 1111.68
L604.384 1111.68
z
" style="fill:#ff0000;opacity:0.5;stroke:#000000;"/>
   </g>
   <g id="patch_120">
    <path clip-path="url(#p5843153e70)" d="
M627.159 1296
L633.233 1296
L633.233 1088.64
L627.159 1088.64
z
" style="fill:#ff0000;opacity:0.5;stroke:#000000;"/>
   </g>
   <g id="patch_121">
    <path clip-path="url(#p5843153e70)" d="
M649.935 1296
L656.008 1296
L656.008 1134.72
L649.935 1134.72
z
" style="fill:#ff0000;opacity:0.5;stroke:#000000;"/>
   </g>
   <g id="patch_122">
    <path clip-path="url(#p5843153e70)" d="
M672.71 1296
L678.784 1296
L678.784 1169.28
L672.71 1169.28
z
" style="fill:#ff0000;opacity:0.5;stroke:#000000;"/>
   </g>
   <g id="patch_123">
    <path clip-path="url(#p5843153e70)" d="
M695.486 1296
L701.559 1296
L701.559 1218.24
L695.486 1218.24
z
" style="fill:#ff0000;opacity:0.5;stroke:#000000;"/>
   </g>
   <g id="patch_124">
    <path clip-path="url(#p5843153e70)" d="
M718.261 1296
L724.335 1296
L724.335 1261.44
L718.261 1261.44
z
" style="fill:#ff0000;opacity:0.5;stroke:#000000;"/>
   </g>
   <g id="patch_125">
    <path clip-path="url(#p5843153e70)" d="
M741.037 1296
L747.11 1296
L747.11 1267.2
L741.037 1267.2
z
" style="fill:#ff0000;opacity:0.5;stroke:#000000;"/>
   </g>
   <g id="patch_126">
    <path clip-path="url(#p5843153e70)" d="
M763.812 1296
L769.886 1296
L769.886 1270.08
L763.812 1270.08
z
" style="fill:#ff0000;opacity:0.5;stroke:#000000;"/>
   </g>
   <g id="patch_127">
    <path clip-path="url(#p5843153e70)" d="
M786.588 1296
L792.661 1296
L792.661 1275.84
L786.588 1275.84
z
" style="fill:#ff0000;opacity:0.5;stroke:#000000;"/>
   </g>
   <g id="patch_128">
    <path clip-path="url(#p5843153e70)" d="
M809.363 1296
L815.437 1296
L815.437 1284.48
L809.363 1284.48
z
" style="fill:#ff0000;opacity:0.5;stroke:#000000;"/>
   </g>
   <g id="patch_129">
    <path clip-path="url(#p5843153e70)" d="
M832.139 1296
L838.212 1296
L838.212 1290.24
L832.139 1290.24
z
" style="fill:#ff0000;opacity:0.5;stroke:#000000;"/>
   </g>
   <g id="patch_130">
    <path clip-path="url(#p5843153e70)" d="
M854.914 1296
L860.988 1296
L860.988 1287.36
L854.914 1287.36
z
" style="fill:#ff0000;opacity:0.5;stroke:#000000;"/>
   </g>
   <g id="patch_131">
    <path clip-path="url(#p5843153e70)" d="
M877.69 1296
L883.763 1296
L883.763 1296
L877.69 1296
z
" style="fill:#ff0000;opacity:0.5;stroke:#000000;"/>
   </g>
   <g id="patch_132">
    <path clip-path="url(#p5843153e70)" d="
M900.465 1296
L906.539 1296
L906.539 1296
L900.465 1296
z
" style="fill:#ff0000;opacity:0.5;stroke:#000000;"/>
   </g>
   <g id="patch_133">
    <path clip-path="url(#p5843153e70)" d="
M923.241 1296
L929.314 1296
L929.314 1293.12
L923.241 1293.12
z
" style="fill:#ff0000;opacity:0.5;stroke:#000000;"/>
   </g>
   <g id="patch_134">
    <path clip-path="url(#p5843153e70)" d="
M946.016 1296
L952.09 1296
L952.09 1296
L946.016 1296
z
" style="fill:#ff0000;opacity:0.5;stroke:#000000;"/>
   </g>
   <g id="patch_135">
    <path clip-path="url(#p5843153e70)" d="
M968.792 1296
L974.865 1296
L974.865 1284.48
L968.792 1284.48
z
" style="fill:#ff0000;opacity:0.5;stroke:#000000;"/>
   </g>
   <g id="patch_136">
    <path clip-path="url(#p5843153e70)" d="
M991.567 1296
L997.641 1296
L997.641 1293.12
L991.567 1293.12
z
" style="fill:#ff0000;opacity:0.5;stroke:#000000;"/>
   </g>
   <g id="patch_137">
    <path clip-path="url(#p5843153e70)" d="
M1014.34 1296
L1020.42 1296
L1020.42 1287.36
L1014.34 1287.36
z
" style="fill:#ff0000;opacity:0.5;stroke:#000000;"/>
   </g>
   <g id="patch_138">
    <path clip-path="url(#p5843153e70)" d="
M1037.12 1296
L1043.19 1296
L1043.19 1293.12
L1037.12 1293.12
z
" style="fill:#ff0000;opacity:0.5;stroke:#000000;"/>
   </g>
   <g id="patch_139">
    <path clip-path="url(#p5843153e70)" d="
M1059.89 1296
L1065.97 1296
L1065.97 1293.12
L1059.89 1293.12
z
" style="fill:#ff0000;opacity:0.5;stroke:#000000;"/>
   </g>
   <g id="patch_140">
    <path clip-path="url(#p5843153e70)" d="
M1082.67 1296
L1088.74 1296
L1088.74 1290.24
L1082.67 1290.24
z
" style="fill:#ff0000;opacity:0.5;stroke:#000000;"/>
   </g>
   <g id="patch_141">
    <path clip-path="url(#p5843153e70)" d="
M1105.44 1296
L1111.52 1296
L1111.52 1296
L1105.44 1296
z
" style="fill:#ff0000;opacity:0.5;stroke:#000000;"/>
   </g>
   <g id="patch_142">
    <path clip-path="url(#p5843153e70)" d="
M1128.22 1296
L1134.29 1296
L1134.29 1293.12
L1128.22 1293.12
z
" style="fill:#ff0000;opacity:0.5;stroke:#000000;"/>
   </g>
   <g id="patch_143">
    <path clip-path="url(#p5843153e70)" d="
M1151 1296
L1157.07 1296
L1157.07 1296
L1151 1296
z
" style="fill:#ff0000;opacity:0.5;stroke:#000000;"/>
   </g>
   <g id="patch_144">
    <path clip-path="url(#p5843153e70)" d="
M1173.77 1296
L1179.84 1296
L1179.84 1296
L1173.77 1296
z
" style="fill:#ff0000;opacity:0.5;stroke:#000000;"/>
   </g>
   <g id="patch_145">
    <path clip-path="url(#p5843153e70)" d="
M1196.55 1296
L1202.62 1296
L1202.62 1296
L1196.55 1296
z
" style="fill:#ff0000;opacity:0.5;stroke:#000000;"/>
   </g>
   <g id="patch_146">
    <path clip-path="url(#p5843153e70)" d="
M1219.32 1296
L1225.4 1296
L1225.4 1293.12
L1219.32 1293.12
z
" style="fill:#ff0000;opacity:0.5;stroke:#000000;"/>
   </g>
   <g id="patch_147">
    <path clip-path="url(#p5843153e70)" d="
M1242.1 1296
L1248.17 1296
L1248.17 1296
L1242.1 1296
z
" style="fill:#ff0000;opacity:0.5;stroke:#000000;"/>
   </g>
   <g id="patch_148">
    <path clip-path="url(#p5843153e70)" d="
M1264.87 1296
L1270.95 1296
L1270.95 1290.24
L1264.87 1290.24
z
" style="fill:#ff0000;opacity:0.5;stroke:#000000;"/>
   </g>
   <g id="patch_149">
    <path clip-path="url(#p5843153e70)" d="
M1287.65 1296
L1293.72 1296
L1293.72 1296
L1287.65 1296
z
" style="fill:#ff0000;opacity:0.5;stroke:#000000;"/>
   </g>
   <g id="matplotlib.axis_1">
    <g id="xtick_1">
     <g id="line2d_1">
      <defs>
       <path d="
M0 0
L0 -4" id="mc7db9fdffb" style="stroke:#000000;stroke-width:0.5;"/>
      </defs>
      <g>
       <use style="stroke:#000000;stroke-width:0.5;" x="180.0" xlink:href="#mc7db9fdffb" y="1296.0"/>
      </g>
     </g>
     <g id="line2d_2">
      <defs>
       <path d="
M0 0
L0 4" id="m5a7d422ac3" style="stroke:#000000;stroke-width:0.5;"/>
      </defs>
      <g>
       <use style="stroke:#000000;stroke-width:0.5;" x="180.0" xlink:href="#m5a7d422ac3" y="144.0"/>
      </g>
     </g>
     <g id="text_1">
      <!-- 0.0 -->
      <defs>
       <path d="
M10.6875 12.4062
L21 12.4062
L21 0
L10.6875 0
z
" id="BitstreamVeraSans-Roman-2e"/>
       <path d="
M31.7812 66.4062
Q24.1719 66.4062 20.3281 58.9062
Q16.5 51.4219 16.5 36.375
Q16.5 21.3906 20.3281 13.8906
Q24.1719 6.39062 31.7812 6.39062
Q39.4531 6.39062 43.2812 13.8906
Q47.125 21.3906 47.125 36.375
Q47.125 51.4219 43.2812 58.9062
Q39.4531 66.4062 31.7812 66.4062
M31.7812 74.2188
Q44.0469 74.2188 50.5156 64.5156
Q56.9844 54.8281 56.9844 36.375
Q56.9844 17.9688 50.5156 8.26562
Q44.0469 -1.42188 31.7812 -1.42188
Q19.5312 -1.42188 13.0625 8.26562
Q6.59375 17.9688 6.59375 36.375
Q6.59375 54.8281 13.0625 64.5156
Q19.5312 74.2188 31.7812 74.2188" id="BitstreamVeraSans-Roman-30"/>
      </defs>
      <g transform="translate(171.2521875 1309.118125)scale(0.12 -0.12)">
       <use xlink:href="#BitstreamVeraSans-Roman-30"/>
       <use x="63.623046875" xlink:href="#BitstreamVeraSans-Roman-2e"/>
       <use x="95.41015625" xlink:href="#BitstreamVeraSans-Roman-30"/>
      </g>
     </g>
    </g>
    <g id="xtick_2">
     <g id="line2d_3">
      <g>
       <use style="stroke:#000000;stroke-width:0.5;" x="366.0" xlink:href="#mc7db9fdffb" y="1296.0"/>
      </g>
     </g>
     <g id="line2d_4">
      <g>
       <use style="stroke:#000000;stroke-width:0.5;" x="366.0" xlink:href="#m5a7d422ac3" y="144.0"/>
      </g>
     </g>
     <g id="text_2">
      <!-- 0.5 -->
      <defs>
       <path d="
M10.7969 72.9062
L49.5156 72.9062
L49.5156 64.5938
L19.8281 64.5938
L19.8281 46.7344
Q21.9688 47.4688 24.1094 47.8281
Q26.2656 48.1875 28.4219 48.1875
Q40.625 48.1875 47.75 41.5
Q54.8906 34.8125 54.8906 23.3906
Q54.8906 11.625 47.5625 5.09375
Q40.2344 -1.42188 26.9062 -1.42188
Q22.3125 -1.42188 17.5469 -0.640625
Q12.7969 0.140625 7.71875 1.70312
L7.71875 11.625
Q12.1094 9.23438 16.7969 8.0625
Q21.4844 6.89062 26.7031 6.89062
Q35.1562 6.89062 40.0781 11.3281
Q45.0156 15.7656 45.0156 23.3906
Q45.0156 31 40.0781 35.4375
Q35.1562 39.8906 26.7031 39.8906
Q22.75 39.8906 18.8125 39.0156
Q14.8906 38.1406 10.7969 36.2812
z
" id="BitstreamVeraSans-Roman-35"/>
      </defs>
      <g transform="translate(357.3778125 1309.118125)scale(0.12 -0.12)">
       <use xlink:href="#BitstreamVeraSans-Roman-30"/>
       <use x="63.623046875" xlink:href="#BitstreamVeraSans-Roman-2e"/>
       <use x="95.41015625" xlink:href="#BitstreamVeraSans-Roman-35"/>
      </g>
     </g>
    </g>
    <g id="xtick_3">
     <g id="line2d_5">
      <g>
       <use style="stroke:#000000;stroke-width:0.5;" x="552.0" xlink:href="#mc7db9fdffb" y="1296.0"/>
      </g>
     </g>
     <g id="line2d_6">
      <g>
       <use style="stroke:#000000;stroke-width:0.5;" x="552.0" xlink:href="#m5a7d422ac3" y="144.0"/>
      </g>
     </g>
     <g id="text_3">
      <!-- 1.0 -->
      <defs>
       <path d="
M12.4062 8.29688
L28.5156 8.29688
L28.5156 63.9219
L10.9844 60.4062
L10.9844 69.3906
L28.4219 72.9062
L38.2812 72.9062
L38.2812 8.29688
L54.3906 8.29688
L54.3906 0
L12.4062 0
z
" id="BitstreamVeraSans-Roman-31"/>
      </defs>
      <g transform="translate(543.515625 1309.118125)scale(0.12 -0.12)">
       <use xlink:href="#BitstreamVeraSans-Roman-31"/>
       <use x="63.623046875" xlink:href="#BitstreamVeraSans-Roman-2e"/>
       <use x="95.41015625" xlink:href="#BitstreamVeraSans-Roman-30"/>
      </g>
     </g>
    </g>
    <g id="xtick_4">
     <g id="line2d_7">
      <g>
       <use style="stroke:#000000;stroke-width:0.5;" x="738.0" xlink:href="#mc7db9fdffb" y="1296.0"/>
      </g>
     </g>
     <g id="line2d_8">
      <g>
       <use style="stroke:#000000;stroke-width:0.5;" x="738.0" xlink:href="#m5a7d422ac3" y="144.0"/>
      </g>
     </g>
     <g id="text_4">
      <!-- 1.5 -->
      <g transform="translate(729.64125 1309.118125)scale(0.12 -0.12)">
       <use xlink:href="#BitstreamVeraSans-Roman-31"/>
       <use x="63.623046875" xlink:href="#BitstreamVeraSans-Roman-2e"/>
       <use x="95.41015625" xlink:href="#BitstreamVeraSans-Roman-35"/>
      </g>
     </g>
    </g>
    <g id="xtick_5">
     <g id="line2d_9">
      <g>
       <use style="stroke:#000000;stroke-width:0.5;" x="924.0" xlink:href="#mc7db9fdffb" y="1296.0"/>
      </g>
     </g>
     <g id="line2d_10">
      <g>
       <use style="stroke:#000000;stroke-width:0.5;" x="924.0" xlink:href="#m5a7d422ac3" y="144.0"/>
      </g>
     </g>
     <g id="text_5">
      <!-- 2.0 -->
      <defs>
       <path d="
M19.1875 8.29688
L53.6094 8.29688
L53.6094 0
L7.32812 0
L7.32812 8.29688
Q12.9375 14.1094 22.625 23.8906
Q32.3281 33.6875 34.8125 36.5312
Q39.5469 41.8438 41.4219 45.5312
Q43.3125 49.2188 43.3125 52.7812
Q43.3125 58.5938 39.2344 62.25
Q35.1562 65.9219 28.6094 65.9219
Q23.9688 65.9219 18.8125 64.3125
Q13.6719 62.7031 7.8125 59.4219
L7.8125 69.3906
Q13.7656 71.7812 18.9375 73
Q24.125 74.2188 28.4219 74.2188
Q39.75 74.2188 46.4844 68.5469
Q53.2188 62.8906 53.2188 53.4219
Q53.2188 48.9219 51.5312 44.8906
Q49.8594 40.875 45.4062 35.4062
Q44.1875 33.9844 37.6406 27.2188
Q31.1094 20.4531 19.1875 8.29688" id="BitstreamVeraSans-Roman-32"/>
      </defs>
      <g transform="translate(915.29625 1309.118125)scale(0.12 -0.12)">
       <use xlink:href="#BitstreamVeraSans-Roman-32"/>
       <use x="63.623046875" xlink:href="#BitstreamVeraSans-Roman-2e"/>
       <use x="95.41015625" xlink:href="#BitstreamVeraSans-Roman-30"/>
      </g>
     </g>
    </g>
    <g id="xtick_6">
     <g id="line2d_11">
      <g>
       <use style="stroke:#000000;stroke-width:0.5;" x="1110.0" xlink:href="#mc7db9fdffb" y="1296.0"/>
      </g>
     </g>
     <g id="line2d_12">
      <g>
       <use style="stroke:#000000;stroke-width:0.5;" x="1110.0" xlink:href="#m5a7d422ac3" y="144.0"/>
      </g>
     </g>
     <g id="text_6">
      <!-- 2.5 -->
      <g transform="translate(1101.421875 1309.118125)scale(0.12 -0.12)">
       <use xlink:href="#BitstreamVeraSans-Roman-32"/>
       <use x="63.623046875" xlink:href="#BitstreamVeraSans-Roman-2e"/>
       <use x="95.41015625" xlink:href="#BitstreamVeraSans-Roman-35"/>
      </g>
     </g>
    </g>
    <g id="xtick_7">
     <g id="line2d_13">
      <g>
       <use style="stroke:#000000;stroke-width:0.5;" x="1296.0" xlink:href="#mc7db9fdffb" y="1296.0"/>
      </g>
     </g>
     <g id="line2d_14">
      <g>
       <use style="stroke:#000000;stroke-width:0.5;" x="1296.0" xlink:href="#m5a7d422ac3" y="144.0"/>
      </g>
     </g>
     <g id="text_7">
      <!-- 3.0 -->
      <defs>
       <path d="
M40.5781 39.3125
Q47.6562 37.7969 51.625 33
Q55.6094 28.2188 55.6094 21.1875
Q55.6094 10.4062 48.1875 4.48438
Q40.7656 -1.42188 27.0938 -1.42188
Q22.5156 -1.42188 17.6562 -0.515625
Q12.7969 0.390625 7.625 2.20312
L7.625 11.7188
Q11.7188 9.32812 16.5938 8.10938
Q21.4844 6.89062 26.8125 6.89062
Q36.0781 6.89062 40.9375 10.5469
Q45.7969 14.2031 45.7969 21.1875
Q45.7969 27.6406 41.2812 31.2656
Q36.7656 34.9062 28.7188 34.9062
L20.2188 34.9062
L20.2188 43.0156
L29.1094 43.0156
Q36.375 43.0156 40.2344 45.9219
Q44.0938 48.8281 44.0938 54.2969
Q44.0938 59.9062 40.1094 62.9062
Q36.1406 65.9219 28.7188 65.9219
Q24.6562 65.9219 20.0156 65.0312
Q15.375 64.1562 9.8125 62.3125
L9.8125 71.0938
Q15.4375 72.6562 20.3438 73.4375
Q25.25 74.2188 29.5938 74.2188
Q40.8281 74.2188 47.3594 69.1094
Q53.9062 64.0156 53.9062 55.3281
Q53.9062 49.2656 50.4375 45.0938
Q46.9688 40.9219 40.5781 39.3125" id="BitstreamVeraSans-Roman-33"/>
      </defs>
      <g transform="translate(1287.3140625 1309.118125)scale(0.12 -0.12)">
       <use xlink:href="#BitstreamVeraSans-Roman-33"/>
       <use x="63.623046875" xlink:href="#BitstreamVeraSans-Roman-2e"/>
       <use x="95.41015625" xlink:href="#BitstreamVeraSans-Roman-30"/>
      </g>
     </g>
    </g>
   </g>
   <g id="matplotlib.axis_2">
    <g id="ytick_1">
     <g id="line2d_15">
      <defs>
       <path d="
M0 0
L4 0" id="md7965d1ba0" style="stroke:#000000;stroke-width:0.5;"/>
      </defs>
      <g>
       <use style="stroke:#000000;stroke-width:0.5;" x="180.0" xlink:href="#md7965d1ba0" y="1296.0"/>
      </g>
     </g>
     <g id="line2d_16">
      <defs>
       <path d="
M0 0
L-4 0" id="md9a1c1a7cd" style="stroke:#000000;stroke-width:0.5;"/>
      </defs>
      <g>
       <use style="stroke:#000000;stroke-width:0.5;" x="1296.0" xlink:href="#md9a1c1a7cd" y="1296.0"/>
      </g>
     </g>
     <g id="text_8">
      <!-- 0 -->
      <g transform="translate(169.953125 1299.31125)scale(0.12 -0.12)">
       <use xlink:href="#BitstreamVeraSans-Roman-30"/>
      </g>
     </g>
    </g>
    <g id="ytick_2">
     <g id="line2d_17">
      <g>
       <use style="stroke:#000000;stroke-width:0.5;" x="180.0" xlink:href="#md7965d1ba0" y="1152.0"/>
      </g>
     </g>
     <g id="line2d_18">
      <g>
       <use style="stroke:#000000;stroke-width:0.5;" x="1296.0" xlink:href="#md9a1c1a7cd" y="1152.0"/>
      </g>
     </g>
     <g id="text_9">
      <!-- 50 -->
      <g transform="translate(162.453125 1155.31125)scale(0.12 -0.12)">
       <use xlink:href="#BitstreamVeraSans-Roman-35"/>
       <use x="63.623046875" xlink:href="#BitstreamVeraSans-Roman-30"/>
      </g>
     </g>
    </g>
    <g id="ytick_3">
     <g id="line2d_19">
      <g>
       <use style="stroke:#000000;stroke-width:0.5;" x="180.0" xlink:href="#md7965d1ba0" y="1008.0"/>
      </g>
     </g>
     <g id="line2d_20">
      <g>
       <use style="stroke:#000000;stroke-width:0.5;" x="1296.0" xlink:href="#md9a1c1a7cd" y="1008.0"/>
      </g>
     </g>
     <g id="text_10">
      <!-- 100 -->
      <g transform="translate(155.21 1011.31125)scale(0.12 -0.12)">
       <use xlink:href="#BitstreamVeraSans-Roman-31"/>
       <use x="63.623046875" xlink:href="#BitstreamVeraSans-Roman-30"/>
       <use x="127.24609375" xlink:href="#BitstreamVeraSans-Roman-30"/>
      </g>
     </g>
    </g>
    <g id="ytick_4">
     <g id="line2d_21">
      <g>
       <use style="stroke:#000000;stroke-width:0.5;" x="180.0" xlink:href="#md7965d1ba0" y="864.0"/>
      </g>
     </g>
     <g id="line2d_22">
      <g>
       <use style="stroke:#000000;stroke-width:0.5;" x="1296.0" xlink:href="#md9a1c1a7cd" y="864.0"/>
      </g>
     </g>
     <g id="text_11">
      <!-- 150 -->
      <g transform="translate(155.21 867.31125)scale(0.12 -0.12)">
       <use xlink:href="#BitstreamVeraSans-Roman-31"/>
       <use x="63.623046875" xlink:href="#BitstreamVeraSans-Roman-35"/>
       <use x="127.24609375" xlink:href="#BitstreamVeraSans-Roman-30"/>
      </g>
     </g>
    </g>
    <g id="ytick_5">
     <g id="line2d_23">
      <g>
       <use style="stroke:#000000;stroke-width:0.5;" x="180.0" xlink:href="#md7965d1ba0" y="720.0"/>
      </g>
     </g>
     <g id="line2d_24">
      <g>
       <use style="stroke:#000000;stroke-width:0.5;" x="1296.0" xlink:href="#md9a1c1a7cd" y="720.0"/>
      </g>
     </g>
     <g id="text_12">
      <!-- 200 -->
      <g transform="translate(154.77125 723.31125)scale(0.12 -0.12)">
       <use xlink:href="#BitstreamVeraSans-Roman-32"/>
       <use x="63.623046875" xlink:href="#BitstreamVeraSans-Roman-30"/>
       <use x="127.24609375" xlink:href="#BitstreamVeraSans-Roman-30"/>
      </g>
     </g>
    </g>
    <g id="ytick_6">
     <g id="line2d_25">
      <g>
       <use style="stroke:#000000;stroke-width:0.5;" x="180.0" xlink:href="#md7965d1ba0" y="576.0"/>
      </g>
     </g>
     <g id="line2d_26">
      <g>
       <use style="stroke:#000000;stroke-width:0.5;" x="1296.0" xlink:href="#md9a1c1a7cd" y="576.0"/>
      </g>
     </g>
     <g id="text_13">
      <!-- 250 -->
      <g transform="translate(154.77125 579.31125)scale(0.12 -0.12)">
       <use xlink:href="#BitstreamVeraSans-Roman-32"/>
       <use x="63.623046875" xlink:href="#BitstreamVeraSans-Roman-35"/>
       <use x="127.24609375" xlink:href="#BitstreamVeraSans-Roman-30"/>
      </g>
     </g>
    </g>
    <g id="ytick_7">
     <g id="line2d_27">
      <g>
       <use style="stroke:#000000;stroke-width:0.5;" x="180.0" xlink:href="#md7965d1ba0" y="432.0"/>
      </g>
     </g>
     <g id="line2d_28">
      <g>
       <use style="stroke:#000000;stroke-width:0.5;" x="1296.0" xlink:href="#md9a1c1a7cd" y="432.0"/>
      </g>
     </g>
     <g id="text_14">
      <!-- 300 -->
      <g transform="translate(154.806875 435.31125)scale(0.12 -0.12)">
       <use xlink:href="#BitstreamVeraSans-Roman-33"/>
       <use x="63.623046875" xlink:href="#BitstreamVeraSans-Roman-30"/>
       <use x="127.24609375" xlink:href="#BitstreamVeraSans-Roman-30"/>
      </g>
     </g>
    </g>
    <g id="ytick_8">
     <g id="line2d_29">
      <g>
       <use style="stroke:#000000;stroke-width:0.5;" x="180.0" xlink:href="#md7965d1ba0" y="288.0"/>
      </g>
     </g>
     <g id="line2d_30">
      <g>
       <use style="stroke:#000000;stroke-width:0.5;" x="1296.0" xlink:href="#md9a1c1a7cd" y="288.0"/>
      </g>
     </g>
     <g id="text_15">
      <!-- 350 -->
      <g transform="translate(154.806875 291.31125)scale(0.12 -0.12)">
       <use xlink:href="#BitstreamVeraSans-Roman-33"/>
       <use x="63.623046875" xlink:href="#BitstreamVeraSans-Roman-35"/>
       <use x="127.24609375" xlink:href="#BitstreamVeraSans-Roman-30"/>
      </g>
     </g>
    </g>
    <g id="ytick_9">
     <g id="line2d_31">
      <g>
       <use style="stroke:#000000;stroke-width:0.5;" x="180.0" xlink:href="#md7965d1ba0" y="144.0"/>
      </g>
     </g>
     <g id="line2d_32">
      <g>
       <use style="stroke:#000000;stroke-width:0.5;" x="1296.0" xlink:href="#md9a1c1a7cd" y="144.0"/>
      </g>
     </g>
     <g id="text_16">
      <!-- 400 -->
      <defs>
       <path d="
M37.7969 64.3125
L12.8906 25.3906
L37.7969 25.3906
z

M35.2031 72.9062
L47.6094 72.9062
L47.6094 25.3906
L58.0156 25.3906
L58.0156 17.1875
L47.6094 17.1875
L47.6094 0
L37.7969 0
L37.7969 17.1875
L4.89062 17.1875
L4.89062 26.7031
z
" id="BitstreamVeraSans-Roman-34"/>
      </defs>
      <g transform="translate(154.47875 147.31125)scale(0.12 -0.12)">
       <use xlink:href="#BitstreamVeraSans-Roman-34"/>
       <use x="63.623046875" xlink:href="#BitstreamVeraSans-Roman-30"/>
       <use x="127.24609375" xlink:href="#BitstreamVeraSans-Roman-30"/>
      </g>
     </g>
    </g>
   </g>
   <g id="patch_150">
    <path d="
M180 144
L1296 144" style="fill:none;stroke:#000000;"/>
   </g>
   <g id="patch_151">
    <path d="
M180 1296
L180 144" style="fill:none;stroke:#000000;"/>
   </g>
   <g id="patch_152">
    <path d="
M1296 1296
L1296 144" style="fill:none;stroke:#000000;"/>
   </g>
   <g id="patch_153">
    <path d="
M180 1296
L1296 1296" style="fill:none;stroke:#000000;"/>
   </g>
   <g id="legend_1">
    <g id="patch_154">
     <path d="
M1193.28 218.929
L1288.8 218.929
L1288.8 151.2
L1193.28 151.2
L1193.28 218.929
z
" style="fill:#ffffff;stroke:#000000;"/>
    </g>
    <g id="patch_155">
     <path d="
M1199.04 167.902
L1227.84 167.902
L1227.84 157.822
L1199.04 157.822
z
" style="fill:#0000ff;opacity:0.5;stroke:#000000;"/>
    </g>
    <g id="text_17">
     <!-- genus -->
     <defs>
      <path d="
M44.2812 53.0781
L44.2812 44.5781
Q40.4844 46.5312 36.375 47.5
Q32.2812 48.4844 27.875 48.4844
Q21.1875 48.4844 17.8438 46.4375
Q14.5 44.3906 14.5 40.2812
Q14.5 37.1562 16.8906 35.375
Q19.2812 33.5938 26.5156 31.9844
L29.5938 31.2969
Q39.1562 29.25 43.1875 25.5156
Q47.2188 21.7812 47.2188 15.0938
Q47.2188 7.46875 41.1875 3.01562
Q35.1562 -1.42188 24.6094 -1.42188
Q20.2188 -1.42188 15.4531 -0.5625
Q10.6875 0.296875 5.42188 2
L5.42188 11.2812
Q10.4062 8.6875 15.2344 7.39062
Q20.0625 6.10938 24.8125 6.10938
Q31.1562 6.10938 34.5625 8.28125
Q37.9844 10.4531 37.9844 14.4062
Q37.9844 18.0625 35.5156 20.0156
Q33.0625 21.9688 24.7031 23.7812
L21.5781 24.5156
Q13.2344 26.2656 9.51562 29.9062
Q5.8125 33.5469 5.8125 39.8906
Q5.8125 47.6094 11.2812 51.7969
Q16.75 56 26.8125 56
Q31.7812 56 36.1719 55.2656
Q40.5781 54.5469 44.2812 53.0781" id="BitstreamVeraSans-Roman-73"/>
      <path d="
M8.5 21.5781
L8.5 54.6875
L17.4844 54.6875
L17.4844 21.9219
Q17.4844 14.1562 20.5 10.2656
Q23.5312 6.39062 29.5938 6.39062
Q36.8594 6.39062 41.0781 11.0312
Q45.3125 15.6719 45.3125 23.6875
L45.3125 54.6875
L54.2969 54.6875
L54.2969 0
L45.3125 0
L45.3125 8.40625
Q42.0469 3.42188 37.7188 1
Q33.4062 -1.42188 27.6875 -1.42188
Q18.2656 -1.42188 13.375 4.4375
Q8.5 10.2969 8.5 21.5781" id="BitstreamVeraSans-Roman-75"/>
      <path d="
M56.2031 29.5938
L56.2031 25.2031
L14.8906 25.2031
Q15.4844 15.9219 20.4844 11.0625
Q25.4844 6.20312 34.4219 6.20312
Q39.5938 6.20312 44.4531 7.46875
Q49.3125 8.73438 54.1094 11.2812
L54.1094 2.78125
Q49.2656 0.734375 44.1875 -0.34375
Q39.1094 -1.42188 33.8906 -1.42188
Q20.7969 -1.42188 13.1562 6.1875
Q5.51562 13.8125 5.51562 26.8125
Q5.51562 40.2344 12.7656 48.1094
Q20.0156 56 32.3281 56
Q43.3594 56 49.7812 48.8906
Q56.2031 41.7969 56.2031 29.5938
M47.2188 32.2344
Q47.125 39.5938 43.0938 43.9844
Q39.0625 48.3906 32.4219 48.3906
Q24.9062 48.3906 20.3906 44.1406
Q15.875 39.8906 15.1875 32.1719
z
" id="BitstreamVeraSans-Roman-65"/>
      <path d="
M54.8906 33.0156
L54.8906 0
L45.9062 0
L45.9062 32.7188
Q45.9062 40.4844 42.875 44.3281
Q39.8438 48.1875 33.7969 48.1875
Q26.5156 48.1875 22.3125 43.5469
Q18.1094 38.9219 18.1094 30.9062
L18.1094 0
L9.07812 0
L9.07812 54.6875
L18.1094 54.6875
L18.1094 46.1875
Q21.3438 51.125 25.7031 53.5625
Q30.0781 56 35.7969 56
Q45.2188 56 50.0469 50.1719
Q54.8906 44.3438 54.8906 33.0156" id="BitstreamVeraSans-Roman-6e"/>
      <path d="
M45.4062 27.9844
Q45.4062 37.75 41.375 43.1094
Q37.3594 48.4844 30.0781 48.4844
Q22.8594 48.4844 18.8281 43.1094
Q14.7969 37.75 14.7969 27.9844
Q14.7969 18.2656 18.8281 12.8906
Q22.8594 7.51562 30.0781 7.51562
Q37.3594 7.51562 41.375 12.8906
Q45.4062 18.2656 45.4062 27.9844
M54.3906 6.78125
Q54.3906 -7.17188 48.1875 -13.9844
Q42 -20.7969 29.2031 -20.7969
Q24.4688 -20.7969 20.2656 -20.0938
Q16.0625 -19.3906 12.1094 -17.9219
L12.1094 -9.1875
Q16.0625 -11.3281 19.9219 -12.3438
Q23.7812 -13.375 27.7812 -13.375
Q36.625 -13.375 41.0156 -8.76562
Q45.4062 -4.15625 45.4062 5.17188
L45.4062 9.625
Q42.625 4.78125 38.2812 2.39062
Q33.9375 0 27.875 0
Q17.8281 0 11.6719 7.65625
Q5.51562 15.3281 5.51562 27.9844
Q5.51562 40.6719 11.6719 48.3281
Q17.8281 56 27.875 56
Q33.9375 56 38.2812 53.6094
Q42.625 51.2188 45.4062 46.3906
L45.4062 54.6875
L54.3906 54.6875
z
" id="BitstreamVeraSans-Roman-67"/>
     </defs>
     <g transform="translate(1239.35625 167.90175)scale(0.144 -0.144)">
      <use xlink:href="#BitstreamVeraSans-Roman-67"/>
      <use x="63.4765625" xlink:href="#BitstreamVeraSans-Roman-65"/>
      <use x="125.0" xlink:href="#BitstreamVeraSans-Roman-6e"/>
      <use x="188.37890625" xlink:href="#BitstreamVeraSans-Roman-75"/>
      <use x="251.7578125" xlink:href="#BitstreamVeraSans-Roman-73"/>
     </g>
    </g>
    <g id="patch_156">
     <path d="
M1199.04 189.038
L1227.84 189.038
L1227.84 178.958
L1199.04 178.958
z
" style="fill:#008000;opacity:0.5;stroke:#000000;"/>
    </g>
    <g id="text_18">
     <!-- family -->
     <defs>
      <path d="
M9.42188 54.6875
L18.4062 54.6875
L18.4062 0
L9.42188 0
z

M9.42188 75.9844
L18.4062 75.9844
L18.4062 64.5938
L9.42188 64.5938
z
" id="BitstreamVeraSans-Roman-69"/>
      <path d="
M32.1719 -5.07812
Q28.375 -14.8438 24.75 -17.8125
Q21.1406 -20.7969 15.0938 -20.7969
L7.90625 -20.7969
L7.90625 -13.2812
L13.1875 -13.2812
Q16.8906 -13.2812 18.9375 -11.5156
Q21 -9.76562 23.4844 -3.21875
L25.0938 0.875
L2.98438 54.6875
L12.5 54.6875
L29.5938 11.9219
L46.6875 54.6875
L56.2031 54.6875
z
" id="BitstreamVeraSans-Roman-79"/>
      <path d="
M34.2812 27.4844
Q23.3906 27.4844 19.1875 25
Q14.9844 22.5156 14.9844 16.5
Q14.9844 11.7188 18.1406 8.90625
Q21.2969 6.10938 26.7031 6.10938
Q34.1875 6.10938 38.7031 11.4062
Q43.2188 16.7031 43.2188 25.4844
L43.2188 27.4844
z

M52.2031 31.2031
L52.2031 0
L43.2188 0
L43.2188 8.29688
Q40.1406 3.32812 35.5469 0.953125
Q30.9531 -1.42188 24.3125 -1.42188
Q15.9219 -1.42188 10.9531 3.29688
Q6 8.01562 6 15.9219
Q6 25.1406 12.1719 29.8281
Q18.3594 34.5156 30.6094 34.5156
L43.2188 34.5156
L43.2188 35.4062
Q43.2188 41.6094 39.1406 45
Q35.0625 48.3906 27.6875 48.3906
Q23 48.3906 18.5469 47.2656
Q14.1094 46.1406 10.0156 43.8906
L10.0156 52.2031
Q14.9375 54.1094 19.5781 55.0469
Q24.2188 56 28.6094 56
Q40.4844 56 46.3438 49.8438
Q52.2031 43.7031 52.2031 31.2031" id="BitstreamVeraSans-Roman-61"/>
      <path d="
M9.42188 75.9844
L18.4062 75.9844
L18.4062 0
L9.42188 0
z
" id="BitstreamVeraSans-Roman-6c"/>
      <path d="
M52 44.1875
Q55.375 50.25 60.0625 53.125
Q64.75 56 71.0938 56
Q79.6406 56 84.2812 50.0156
Q88.9219 44.0469 88.9219 33.0156
L88.9219 0
L79.8906 0
L79.8906 32.7188
Q79.8906 40.5781 77.0938 44.375
Q74.3125 48.1875 68.6094 48.1875
Q61.625 48.1875 57.5625 43.5469
Q53.5156 38.9219 53.5156 30.9062
L53.5156 0
L44.4844 0
L44.4844 32.7188
Q44.4844 40.625 41.7031 44.4062
Q38.9219 48.1875 33.1094 48.1875
Q26.2188 48.1875 22.1562 43.5312
Q18.1094 38.875 18.1094 30.9062
L18.1094 0
L9.07812 0
L9.07812 54.6875
L18.1094 54.6875
L18.1094 46.1875
Q21.1875 51.2188 25.4844 53.6094
Q29.7812 56 35.6875 56
Q41.6562 56 45.8281 52.9688
Q50 49.9531 52 44.1875" id="BitstreamVeraSans-Roman-6d"/>
      <path d="
M37.1094 75.9844
L37.1094 68.5
L28.5156 68.5
Q23.6875 68.5 21.7969 66.5469
Q19.9219 64.5938 19.9219 59.5156
L19.9219 54.6875
L34.7188 54.6875
L34.7188 47.7031
L19.9219 47.7031
L19.9219 0
L10.8906 0
L10.8906 47.7031
L2.29688 47.7031
L2.29688 54.6875
L10.8906 54.6875
L10.8906 58.5
Q10.8906 67.625 15.1406 71.7969
Q19.3906 75.9844 28.6094 75.9844
z
" id="BitstreamVeraSans-Roman-66"/>
     </defs>
     <g transform="translate(1239.35625 189.03825)scale(0.144 -0.144)">
      <use xlink:href="#BitstreamVeraSans-Roman-66"/>
      <use x="35.205078125" xlink:href="#BitstreamVeraSans-Roman-61"/>
      <use x="96.484375" xlink:href="#BitstreamVeraSans-Roman-6d"/>
      <use x="193.896484375" xlink:href="#BitstreamVeraSans-Roman-69"/>
      <use x="221.6796875" xlink:href="#BitstreamVeraSans-Roman-6c"/>
      <use x="249.462890625" xlink:href="#BitstreamVeraSans-Roman-79"/>
     </g>
    </g>
    <g id="patch_157">
     <path d="
M1199.04 210.175
L1227.84 210.175
L1227.84 200.095
L1199.04 200.095
z
" style="fill:#ff0000;opacity:0.5;stroke:#000000;"/>
    </g>
    <g id="text_19">
     <!-- order -->
     <defs>
      <path d="
M41.1094 46.2969
Q39.5938 47.1719 37.8125 47.5781
Q36.0312 48 33.8906 48
Q26.2656 48 22.1875 43.0469
Q18.1094 38.0938 18.1094 28.8125
L18.1094 0
L9.07812 0
L9.07812 54.6875
L18.1094 54.6875
L18.1094 46.1875
Q20.9531 51.1719 25.4844 53.5781
Q30.0312 56 36.5312 56
Q37.4531 56 38.5781 55.875
Q39.7031 55.7656 41.0625 55.5156
z
" id="BitstreamVeraSans-Roman-72"/>
      <path d="
M45.4062 46.3906
L45.4062 75.9844
L54.3906 75.9844
L54.3906 0
L45.4062 0
L45.4062 8.20312
Q42.5781 3.32812 38.25 0.953125
Q33.9375 -1.42188 27.875 -1.42188
Q17.9688 -1.42188 11.7344 6.48438
Q5.51562 14.4062 5.51562 27.2969
Q5.51562 40.1875 11.7344 48.0938
Q17.9688 56 27.875 56
Q33.9375 56 38.25 53.625
Q42.5781 51.2656 45.4062 46.3906
M14.7969 27.2969
Q14.7969 17.3906 18.875 11.75
Q22.9531 6.10938 30.0781 6.10938
Q37.2031 6.10938 41.2969 11.75
Q45.4062 17.3906 45.4062 27.2969
Q45.4062 37.2031 41.2969 42.8438
Q37.2031 48.4844 30.0781 48.4844
Q22.9531 48.4844 18.875 42.8438
Q14.7969 37.2031 14.7969 27.2969" id="BitstreamVeraSans-Roman-64"/>
      <path d="
M30.6094 48.3906
Q23.3906 48.3906 19.1875 42.75
Q14.9844 37.1094 14.9844 27.2969
Q14.9844 17.4844 19.1562 11.8438
Q23.3438 6.20312 30.6094 6.20312
Q37.7969 6.20312 41.9844 11.8594
Q46.1875 17.5312 46.1875 27.2969
Q46.1875 37.0156 41.9844 42.7031
Q37.7969 48.3906 30.6094 48.3906
M30.6094 56
Q42.3281 56 49.0156 48.375
Q55.7188 40.7656 55.7188 27.2969
Q55.7188 13.875 49.0156 6.21875
Q42.3281 -1.42188 30.6094 -1.42188
Q18.8438 -1.42188 12.1719 6.21875
Q5.51562 13.875 5.51562 27.2969
Q5.51562 40.7656 12.1719 48.375
Q18.8438 56 30.6094 56" id="BitstreamVeraSans-Roman-6f"/>
     </defs>
     <g transform="translate(1239.35625 210.17475)scale(0.144 -0.144)">
      <use xlink:href="#BitstreamVeraSans-Roman-6f"/>
      <use x="61.181640625" xlink:href="#BitstreamVeraSans-Roman-72"/>
      <use x="100.544921875" xlink:href="#BitstreamVeraSans-Roman-64"/>
      <use x="164.021484375" xlink:href="#BitstreamVeraSans-Roman-65"/>
      <use x="225.544921875" xlink:href="#BitstreamVeraSans-Roman-72"/>
     </g>
    </g>
   </g>
  </g>
 </g>
 <defs>
  <clipPath id="p5843153e70">
   <rect height="1152.0" width="1116.0" x="180.0" y="144.0"/>
  </clipPath>
 </defs>
</svg>
