<?xml version="1.0" encoding="utf-8" standalone="no"?>
<!DOCTYPE svg PUBLIC "-//W3C//DTD SVG 1.1//EN"
  "http://www.w3.org/Graphics/SVG/1.1/DTD/svg11.dtd">
<!-- Created with matplotlib (http://matplotlib.org/) -->
<svg height="432pt" version="1.1" viewBox="0 0 864 432" width="864pt" xmlns="http://www.w3.org/2000/svg" xmlns:xlink="http://www.w3.org/1999/xlink">
 <defs>
  <style type="text/css">
*{stroke-linecap:butt;stroke-linejoin:round;}
  </style>
 </defs>
 <g id="figure_1">
  <g id="patch_1">
   <path d="
M0 432
L864 432
L864 0
L0 0
z
" style="fill:#ffffff;"/>
  </g>
  <g id="axes_1">
   <g id="patch_2">
    <path d="
M108 388.8
L777.6 388.8
L777.6 43.2
L108 43.2
z
" style="fill:#ffffff;"/>
   </g>
   <g id="patch_3">
    <path clip-path="url(#pad36b945f0)" d="
M109.367 388.8
L113.011 388.8
L113.011 67.392
L109.367 67.392
z
" style="fill:#0000ff;opacity:0.5;stroke:#000000;"/>
   </g>
   <g id="patch_4">
    <path clip-path="url(#pad36b945f0)" d="
M123.032 388.8
L126.676 388.8
L126.676 124.416
L123.032 124.416
z
" style="fill:#0000ff;opacity:0.5;stroke:#000000;"/>
   </g>
   <g id="patch_5">
    <path clip-path="url(#pad36b945f0)" d="
M136.697 388.8
L140.341 388.8
L140.341 190.944
L136.697 190.944
z
" style="fill:#0000ff;opacity:0.5;stroke:#000000;"/>
   </g>
   <g id="patch_6">
    <path clip-path="url(#pad36b945f0)" d="
M150.362 388.8
L154.007 388.8
L154.007 251.424
L150.362 251.424
z
" style="fill:#0000ff;opacity:0.5;stroke:#000000;"/>
   </g>
   <g id="patch_7">
    <path clip-path="url(#pad36b945f0)" d="
M164.028 388.8
L167.672 388.8
L167.672 266.112
L164.028 266.112
z
" style="fill:#0000ff;opacity:0.5;stroke:#000000;"/>
   </g>
   <g id="patch_8">
    <path clip-path="url(#pad36b945f0)" d="
M177.693 388.8
L181.337 388.8
L181.337 304.128
L177.693 304.128
z
" style="fill:#0000ff;opacity:0.5;stroke:#000000;"/>
   </g>
   <g id="patch_9">
    <path clip-path="url(#pad36b945f0)" d="
M191.358 388.8
L195.002 388.8
L195.002 298.944
L191.358 298.944
z
" style="fill:#0000ff;opacity:0.5;stroke:#000000;"/>
   </g>
   <g id="patch_10">
    <path clip-path="url(#pad36b945f0)" d="
M205.024 388.8
L208.668 388.8
L208.668 324.864
L205.024 324.864
z
" style="fill:#0000ff;opacity:0.5;stroke:#000000;"/>
   </g>
   <g id="patch_11">
    <path clip-path="url(#pad36b945f0)" d="
M218.689 388.8
L222.333 388.8
L222.333 377.568
L218.689 377.568
z
" style="fill:#0000ff;opacity:0.5;stroke:#000000;"/>
   </g>
   <g id="patch_12">
    <path clip-path="url(#pad36b945f0)" d="
M232.354 388.8
L235.998 388.8
L235.998 381.024
L232.354 381.024
z
" style="fill:#0000ff;opacity:0.5;stroke:#000000;"/>
   </g>
   <g id="patch_13">
    <path clip-path="url(#pad36b945f0)" d="
M246.02 388.8
L249.664 388.8
L249.664 383.616
L246.02 383.616
z
" style="fill:#0000ff;opacity:0.5;stroke:#000000;"/>
   </g>
   <g id="patch_14">
    <path clip-path="url(#pad36b945f0)" d="
M259.685 388.8
L263.329 388.8
L263.329 385.344
L259.685 385.344
z
" style="fill:#0000ff;opacity:0.5;stroke:#000000;"/>
   </g>
   <g id="patch_15">
    <path clip-path="url(#pad36b945f0)" d="
M273.35 388.8
L276.994 388.8
L276.994 388.8
L273.35 388.8
z
" style="fill:#0000ff;opacity:0.5;stroke:#000000;"/>
   </g>
   <g id="patch_16">
    <path clip-path="url(#pad36b945f0)" d="
M287.016 388.8
L290.66 388.8
L290.66 381.888
L287.016 381.888
z
" style="fill:#0000ff;opacity:0.5;stroke:#000000;"/>
   </g>
   <g id="patch_17">
    <path clip-path="url(#pad36b945f0)" d="
M300.681 388.8
L304.325 388.8
L304.325 368.064
L300.681 368.064
z
" style="fill:#0000ff;opacity:0.5;stroke:#000000;"/>
   </g>
   <g id="patch_18">
    <path clip-path="url(#pad36b945f0)" d="
M314.346 388.8
L317.99 388.8
L317.99 387.936
L314.346 387.936
z
" style="fill:#0000ff;opacity:0.5;stroke:#000000;"/>
   </g>
   <g id="patch_19">
    <path clip-path="url(#pad36b945f0)" d="
M328.011 388.8
L331.656 388.8
L331.656 388.8
L328.011 388.8
z
" style="fill:#0000ff;opacity:0.5;stroke:#000000;"/>
   </g>
   <g id="patch_20">
    <path clip-path="url(#pad36b945f0)" d="
M341.677 388.8
L345.321 388.8
L345.321 380.16
L341.677 380.16
z
" style="fill:#0000ff;opacity:0.5;stroke:#000000;"/>
   </g>
   <g id="patch_21">
    <path clip-path="url(#pad36b945f0)" d="
M355.342 388.8
L358.986 388.8
L358.986 388.8
L355.342 388.8
z
" style="fill:#0000ff;opacity:0.5;stroke:#000000;"/>
   </g>
   <g id="patch_22">
    <path clip-path="url(#pad36b945f0)" d="
M369.007 388.8
L372.651 388.8
L372.651 381.888
L369.007 381.888
z
" style="fill:#0000ff;opacity:0.5;stroke:#000000;"/>
   </g>
   <g id="patch_23">
    <path clip-path="url(#pad36b945f0)" d="
M382.673 388.8
L386.317 388.8
L386.317 387.072
L382.673 387.072
z
" style="fill:#0000ff;opacity:0.5;stroke:#000000;"/>
   </g>
   <g id="patch_24">
    <path clip-path="url(#pad36b945f0)" d="
M396.338 388.8
L399.982 388.8
L399.982 388.8
L396.338 388.8
z
" style="fill:#0000ff;opacity:0.5;stroke:#000000;"/>
   </g>
   <g id="patch_25">
    <path clip-path="url(#pad36b945f0)" d="
M410.003 388.8
L413.647 388.8
L413.647 388.8
L410.003 388.8
z
" style="fill:#0000ff;opacity:0.5;stroke:#000000;"/>
   </g>
   <g id="patch_26">
    <path clip-path="url(#pad36b945f0)" d="
M423.669 388.8
L427.313 388.8
L427.313 388.8
L423.669 388.8
z
" style="fill:#0000ff;opacity:0.5;stroke:#000000;"/>
   </g>
   <g id="patch_27">
    <path clip-path="url(#pad36b945f0)" d="
M437.334 388.8
L440.978 388.8
L440.978 388.8
L437.334 388.8
z
" style="fill:#0000ff;opacity:0.5;stroke:#000000;"/>
   </g>
   <g id="patch_28">
    <path clip-path="url(#pad36b945f0)" d="
M450.999 388.8
L454.643 388.8
L454.643 388.8
L450.999 388.8
z
" style="fill:#0000ff;opacity:0.5;stroke:#000000;"/>
   </g>
   <g id="patch_29">
    <path clip-path="url(#pad36b945f0)" d="
M464.664 388.8
L468.309 388.8
L468.309 388.8
L464.664 388.8
z
" style="fill:#0000ff;opacity:0.5;stroke:#000000;"/>
   </g>
   <g id="patch_30">
    <path clip-path="url(#pad36b945f0)" d="
M478.33 388.8
L481.974 388.8
L481.974 388.8
L478.33 388.8
z
" style="fill:#0000ff;opacity:0.5;stroke:#000000;"/>
   </g>
   <g id="patch_31">
    <path clip-path="url(#pad36b945f0)" d="
M491.995 388.8
L495.639 388.8
L495.639 388.8
L491.995 388.8
z
" style="fill:#0000ff;opacity:0.5;stroke:#000000;"/>
   </g>
   <g id="patch_32">
    <path clip-path="url(#pad36b945f0)" d="
M505.66 388.8
L509.304 388.8
L509.304 388.8
L505.66 388.8
z
" style="fill:#0000ff;opacity:0.5;stroke:#000000;"/>
   </g>
   <g id="patch_33">
    <path clip-path="url(#pad36b945f0)" d="
M519.326 388.8
L522.97 388.8
L522.97 388.8
L519.326 388.8
z
" style="fill:#0000ff;opacity:0.5;stroke:#000000;"/>
   </g>
   <g id="patch_34">
    <path clip-path="url(#pad36b945f0)" d="
M532.991 388.8
L536.635 388.8
L536.635 388.8
L532.991 388.8
z
" style="fill:#0000ff;opacity:0.5;stroke:#000000;"/>
   </g>
   <g id="patch_35">
    <path clip-path="url(#pad36b945f0)" d="
M546.656 388.8
L550.3 388.8
L550.3 388.8
L546.656 388.8
z
" style="fill:#0000ff;opacity:0.5;stroke:#000000;"/>
   </g>
   <g id="patch_36">
    <path clip-path="url(#pad36b945f0)" d="
M560.322 388.8
L563.966 388.8
L563.966 388.8
L560.322 388.8
z
" style="fill:#0000ff;opacity:0.5;stroke:#000000;"/>
   </g>
   <g id="patch_37">
    <path clip-path="url(#pad36b945f0)" d="
M573.987 388.8
L577.631 388.8
L577.631 388.8
L573.987 388.8
z
" style="fill:#0000ff;opacity:0.5;stroke:#000000;"/>
   </g>
   <g id="patch_38">
    <path clip-path="url(#pad36b945f0)" d="
M587.652 388.8
L591.296 388.8
L591.296 388.8
L587.652 388.8
z
" style="fill:#0000ff;opacity:0.5;stroke:#000000;"/>
   </g>
   <g id="patch_39">
    <path clip-path="url(#pad36b945f0)" d="
M601.318 388.8
L604.962 388.8
L604.962 388.8
L601.318 388.8
z
" style="fill:#0000ff;opacity:0.5;stroke:#000000;"/>
   </g>
   <g id="patch_40">
    <path clip-path="url(#pad36b945f0)" d="
M614.983 388.8
L618.627 388.8
L618.627 388.8
L614.983 388.8
z
" style="fill:#0000ff;opacity:0.5;stroke:#000000;"/>
   </g>
   <g id="patch_41">
    <path clip-path="url(#pad36b945f0)" d="
M628.648 388.8
L632.292 388.8
L632.292 388.8
L628.648 388.8
z
" style="fill:#0000ff;opacity:0.5;stroke:#000000;"/>
   </g>
   <g id="patch_42">
    <path clip-path="url(#pad36b945f0)" d="
M642.313 388.8
L645.958 388.8
L645.958 388.8
L642.313 388.8
z
" style="fill:#0000ff;opacity:0.5;stroke:#000000;"/>
   </g>
   <g id="patch_43">
    <path clip-path="url(#pad36b945f0)" d="
M655.979 388.8
L659.623 388.8
L659.623 388.8
L655.979 388.8
z
" style="fill:#0000ff;opacity:0.5;stroke:#000000;"/>
   </g>
   <g id="patch_44">
    <path clip-path="url(#pad36b945f0)" d="
M669.644 388.8
L673.288 388.8
L673.288 388.8
L669.644 388.8
z
" style="fill:#0000ff;opacity:0.5;stroke:#000000;"/>
   </g>
   <g id="patch_45">
    <path clip-path="url(#pad36b945f0)" d="
M683.309 388.8
L686.953 388.8
L686.953 388.8
L683.309 388.8
z
" style="fill:#0000ff;opacity:0.5;stroke:#000000;"/>
   </g>
   <g id="patch_46">
    <path clip-path="url(#pad36b945f0)" d="
M696.975 388.8
L700.619 388.8
L700.619 388.8
L696.975 388.8
z
" style="fill:#0000ff;opacity:0.5;stroke:#000000;"/>
   </g>
   <g id="patch_47">
    <path clip-path="url(#pad36b945f0)" d="
M710.64 388.8
L714.284 388.8
L714.284 388.8
L710.64 388.8
z
" style="fill:#0000ff;opacity:0.5;stroke:#000000;"/>
   </g>
   <g id="patch_48">
    <path clip-path="url(#pad36b945f0)" d="
M724.305 388.8
L727.949 388.8
L727.949 388.8
L724.305 388.8
z
" style="fill:#0000ff;opacity:0.5;stroke:#000000;"/>
   </g>
   <g id="patch_49">
    <path clip-path="url(#pad36b945f0)" d="
M737.971 388.8
L741.615 388.8
L741.615 388.8
L737.971 388.8
z
" style="fill:#0000ff;opacity:0.5;stroke:#000000;"/>
   </g>
   <g id="patch_50">
    <path clip-path="url(#pad36b945f0)" d="
M751.636 388.8
L755.28 388.8
L755.28 388.8
L751.636 388.8
z
" style="fill:#0000ff;opacity:0.5;stroke:#000000;"/>
   </g>
   <g id="patch_51">
    <path clip-path="url(#pad36b945f0)" d="
M765.301 388.8
L768.945 388.8
L768.945 388.8
L765.301 388.8
z
" style="fill:#0000ff;opacity:0.5;stroke:#000000;"/>
   </g>
   <g id="patch_52">
    <path clip-path="url(#pad36b945f0)" d="
M113.011 388.8
L116.655 388.8
L116.655 385.344
L113.011 385.344
z
" style="fill:#008000;opacity:0.5;stroke:#000000;"/>
   </g>
   <g id="patch_53">
    <path clip-path="url(#pad36b945f0)" d="
M126.676 388.8
L130.32 388.8
L130.32 384.48
L126.676 384.48
z
" style="fill:#008000;opacity:0.5;stroke:#000000;"/>
   </g>
   <g id="patch_54">
    <path clip-path="url(#pad36b945f0)" d="
M140.341 388.8
L143.985 388.8
L143.985 377.568
L140.341 377.568
z
" style="fill:#008000;opacity:0.5;stroke:#000000;"/>
   </g>
   <g id="patch_55">
    <path clip-path="url(#pad36b945f0)" d="
M154.007 388.8
L157.651 388.8
L157.651 355.968
L154.007 355.968
z
" style="fill:#008000;opacity:0.5;stroke:#000000;"/>
   </g>
   <g id="patch_56">
    <path clip-path="url(#pad36b945f0)" d="
M167.672 388.8
L171.316 388.8
L171.316 348.192
L167.672 348.192
z
" style="fill:#008000;opacity:0.5;stroke:#000000;"/>
   </g>
   <g id="patch_57">
    <path clip-path="url(#pad36b945f0)" d="
M181.337 388.8
L184.981 388.8
L184.981 312.768
L181.337 312.768
z
" style="fill:#008000;opacity:0.5;stroke:#000000;"/>
   </g>
   <g id="patch_58">
    <path clip-path="url(#pad36b945f0)" d="
M195.002 388.8
L198.647 388.8
L198.647 260.064
L195.002 260.064
z
" style="fill:#008000;opacity:0.5;stroke:#000000;"/>
   </g>
   <g id="patch_59">
    <path clip-path="url(#pad36b945f0)" d="
M208.668 388.8
L212.312 388.8
L212.312 251.424
L208.668 251.424
z
" style="fill:#008000;opacity:0.5;stroke:#000000;"/>
   </g>
   <g id="patch_60">
    <path clip-path="url(#pad36b945f0)" d="
M222.333 388.8
L225.977 388.8
L225.977 228.096
L222.333 228.096
z
" style="fill:#008000;opacity:0.5;stroke:#000000;"/>
   </g>
   <g id="patch_61">
    <path clip-path="url(#pad36b945f0)" d="
M235.998 388.8
L239.642 388.8
L239.642 204.768
L235.998 204.768
z
" style="fill:#008000;opacity:0.5;stroke:#000000;"/>
   </g>
   <g id="patch_62">
    <path clip-path="url(#pad36b945f0)" d="
M249.664 388.8
L253.308 388.8
L253.308 255.744
L249.664 255.744
z
" style="fill:#008000;opacity:0.5;stroke:#000000;"/>
   </g>
   <g id="patch_63">
    <path clip-path="url(#pad36b945f0)" d="
M263.329 388.8
L266.973 388.8
L266.973 287.712
L263.329 287.712
z
" style="fill:#008000;opacity:0.5;stroke:#000000;"/>
   </g>
   <g id="patch_64">
    <path clip-path="url(#pad36b945f0)" d="
M276.994 388.8
L280.638 388.8
L280.638 300.672
L276.994 300.672
z
" style="fill:#008000;opacity:0.5;stroke:#000000;"/>
   </g>
   <g id="patch_65">
    <path clip-path="url(#pad36b945f0)" d="
M290.66 388.8
L294.304 388.8
L294.304 309.312
L290.66 309.312
z
" style="fill:#008000;opacity:0.5;stroke:#000000;"/>
   </g>
   <g id="patch_66">
    <path clip-path="url(#pad36b945f0)" d="
M304.325 388.8
L307.969 388.8
L307.969 336.96
L304.325 336.96
z
" style="fill:#008000;opacity:0.5;stroke:#000000;"/>
   </g>
   <g id="patch_67">
    <path clip-path="url(#pad36b945f0)" d="
M317.99 388.8
L321.634 388.8
L321.634 350.784
L317.99 350.784
z
" style="fill:#008000;opacity:0.5;stroke:#000000;"/>
   </g>
   <g id="patch_68">
    <path clip-path="url(#pad36b945f0)" d="
M331.656 388.8
L335.3 388.8
L335.3 362.016
L331.656 362.016
z
" style="fill:#008000;opacity:0.5;stroke:#000000;"/>
   </g>
   <g id="patch_69">
    <path clip-path="url(#pad36b945f0)" d="
M345.321 388.8
L348.965 388.8
L348.965 366.336
L345.321 366.336
z
" style="fill:#008000;opacity:0.5;stroke:#000000;"/>
   </g>
   <g id="patch_70">
    <path clip-path="url(#pad36b945f0)" d="
M358.986 388.8
L362.63 388.8
L362.63 373.248
L358.986 373.248
z
" style="fill:#008000;opacity:0.5;stroke:#000000;"/>
   </g>
   <g id="patch_71">
    <path clip-path="url(#pad36b945f0)" d="
M372.651 388.8
L376.296 388.8
L376.296 382.752
L372.651 382.752
z
" style="fill:#008000;opacity:0.5;stroke:#000000;"/>
   </g>
   <g id="patch_72">
    <path clip-path="url(#pad36b945f0)" d="
M386.317 388.8
L389.961 388.8
L389.961 383.616
L386.317 383.616
z
" style="fill:#008000;opacity:0.5;stroke:#000000;"/>
   </g>
   <g id="patch_73">
    <path clip-path="url(#pad36b945f0)" d="
M399.982 388.8
L403.626 388.8
L403.626 388.8
L399.982 388.8
z
" style="fill:#008000;opacity:0.5;stroke:#000000;"/>
   </g>
   <g id="patch_74">
    <path clip-path="url(#pad36b945f0)" d="
M413.647 388.8
L417.291 388.8
L417.291 387.936
L413.647 387.936
z
" style="fill:#008000;opacity:0.5;stroke:#000000;"/>
   </g>
   <g id="patch_75">
    <path clip-path="url(#pad36b945f0)" d="
M427.313 388.8
L430.957 388.8
L430.957 387.936
L427.313 387.936
z
" style="fill:#008000;opacity:0.5;stroke:#000000;"/>
   </g>
   <g id="patch_76">
    <path clip-path="url(#pad36b945f0)" d="
M440.978 388.8
L444.622 388.8
L444.622 387.936
L440.978 387.936
z
" style="fill:#008000;opacity:0.5;stroke:#000000;"/>
   </g>
   <g id="patch_77">
    <path clip-path="url(#pad36b945f0)" d="
M454.643 388.8
L458.287 388.8
L458.287 388.8
L454.643 388.8
z
" style="fill:#008000;opacity:0.5;stroke:#000000;"/>
   </g>
   <g id="patch_78">
    <path clip-path="url(#pad36b945f0)" d="
M468.309 388.8
L471.953 388.8
L471.953 388.8
L468.309 388.8
z
" style="fill:#008000;opacity:0.5;stroke:#000000;"/>
   </g>
   <g id="patch_79">
    <path clip-path="url(#pad36b945f0)" d="
M481.974 388.8
L485.618 388.8
L485.618 388.8
L481.974 388.8
z
" style="fill:#008000;opacity:0.5;stroke:#000000;"/>
   </g>
   <g id="patch_80">
    <path clip-path="url(#pad36b945f0)" d="
M495.639 388.8
L499.283 388.8
L499.283 388.8
L495.639 388.8
z
" style="fill:#008000;opacity:0.5;stroke:#000000;"/>
   </g>
   <g id="patch_81">
    <path clip-path="url(#pad36b945f0)" d="
M509.304 388.8
L512.949 388.8
L512.949 388.8
L509.304 388.8
z
" style="fill:#008000;opacity:0.5;stroke:#000000;"/>
   </g>
   <g id="patch_82">
    <path clip-path="url(#pad36b945f0)" d="
M522.97 388.8
L526.614 388.8
L526.614 388.8
L522.97 388.8
z
" style="fill:#008000;opacity:0.5;stroke:#000000;"/>
   </g>
   <g id="patch_83">
    <path clip-path="url(#pad36b945f0)" d="
M536.635 388.8
L540.279 388.8
L540.279 388.8
L536.635 388.8
z
" style="fill:#008000;opacity:0.5;stroke:#000000;"/>
   </g>
   <g id="patch_84">
    <path clip-path="url(#pad36b945f0)" d="
M550.3 388.8
L553.944 388.8
L553.944 388.8
L550.3 388.8
z
" style="fill:#008000;opacity:0.5;stroke:#000000;"/>
   </g>
   <g id="patch_85">
    <path clip-path="url(#pad36b945f0)" d="
M563.966 388.8
L567.61 388.8
L567.61 388.8
L563.966 388.8
z
" style="fill:#008000;opacity:0.5;stroke:#000000;"/>
   </g>
   <g id="patch_86">
    <path clip-path="url(#pad36b945f0)" d="
M577.631 388.8
L581.275 388.8
L581.275 388.8
L577.631 388.8
z
" style="fill:#008000;opacity:0.5;stroke:#000000;"/>
   </g>
   <g id="patch_87">
    <path clip-path="url(#pad36b945f0)" d="
M591.296 388.8
L594.94 388.8
L594.94 388.8
L591.296 388.8
z
" style="fill:#008000;opacity:0.5;stroke:#000000;"/>
   </g>
   <g id="patch_88">
    <path clip-path="url(#pad36b945f0)" d="
M604.962 388.8
L608.606 388.8
L608.606 388.8
L604.962 388.8
z
" style="fill:#008000;opacity:0.5;stroke:#000000;"/>
   </g>
   <g id="patch_89">
    <path clip-path="url(#pad36b945f0)" d="
M618.627 388.8
L622.271 388.8
L622.271 388.8
L618.627 388.8
z
" style="fill:#008000;opacity:0.5;stroke:#000000;"/>
   </g>
   <g id="patch_90">
    <path clip-path="url(#pad36b945f0)" d="
M632.292 388.8
L635.936 388.8
L635.936 388.8
L632.292 388.8
z
" style="fill:#008000;opacity:0.5;stroke:#000000;"/>
   </g>
   <g id="patch_91">
    <path clip-path="url(#pad36b945f0)" d="
M645.958 388.8
L649.602 388.8
L649.602 388.8
L645.958 388.8
z
" style="fill:#008000;opacity:0.5;stroke:#000000;"/>
   </g>
   <g id="patch_92">
    <path clip-path="url(#pad36b945f0)" d="
M659.623 388.8
L663.267 388.8
L663.267 388.8
L659.623 388.8
z
" style="fill:#008000;opacity:0.5;stroke:#000000;"/>
   </g>
   <g id="patch_93">
    <path clip-path="url(#pad36b945f0)" d="
M673.288 388.8
L676.932 388.8
L676.932 388.8
L673.288 388.8
z
" style="fill:#008000;opacity:0.5;stroke:#000000;"/>
   </g>
   <g id="patch_94">
    <path clip-path="url(#pad36b945f0)" d="
M686.953 388.8
L690.598 388.8
L690.598 387.936
L686.953 387.936
z
" style="fill:#008000;opacity:0.5;stroke:#000000;"/>
   </g>
   <g id="patch_95">
    <path clip-path="url(#pad36b945f0)" d="
M700.619 388.8
L704.263 388.8
L704.263 387.072
L700.619 387.072
z
" style="fill:#008000;opacity:0.5;stroke:#000000;"/>
   </g>
   <g id="patch_96">
    <path clip-path="url(#pad36b945f0)" d="
M714.284 388.8
L717.928 388.8
L717.928 387.072
L714.284 387.072
z
" style="fill:#008000;opacity:0.5;stroke:#000000;"/>
   </g>
   <g id="patch_97">
    <path clip-path="url(#pad36b945f0)" d="
M727.949 388.8
L731.593 388.8
L731.593 387.936
L727.949 387.936
z
" style="fill:#008000;opacity:0.5;stroke:#000000;"/>
   </g>
   <g id="patch_98">
    <path clip-path="url(#pad36b945f0)" d="
M741.615 388.8
L745.259 388.8
L745.259 388.8
L741.615 388.8
z
" style="fill:#008000;opacity:0.5;stroke:#000000;"/>
   </g>
   <g id="patch_99">
    <path clip-path="url(#pad36b945f0)" d="
M755.28 388.8
L758.924 388.8
L758.924 387.936
L755.28 387.936
z
" style="fill:#008000;opacity:0.5;stroke:#000000;"/>
   </g>
   <g id="patch_100">
    <path clip-path="url(#pad36b945f0)" d="
M768.945 388.8
L772.589 388.8
L772.589 388.8
L768.945 388.8
z
" style="fill:#008000;opacity:0.5;stroke:#000000;"/>
   </g>
   <g id="patch_101">
    <path clip-path="url(#pad36b945f0)" d="
M116.655 388.8
L120.299 388.8
L120.299 388.8
L116.655 388.8
z
" style="fill:#ff0000;opacity:0.5;stroke:#000000;"/>
   </g>
   <g id="patch_102">
    <path clip-path="url(#pad36b945f0)" d="
M130.32 388.8
L133.964 388.8
L133.964 388.8
L130.32 388.8
z
" style="fill:#ff0000;opacity:0.5;stroke:#000000;"/>
   </g>
   <g id="patch_103">
    <path clip-path="url(#pad36b945f0)" d="
M143.985 388.8
L147.629 388.8
L147.629 387.936
L143.985 387.936
z
" style="fill:#ff0000;opacity:0.5;stroke:#000000;"/>
   </g>
   <g id="patch_104">
    <path clip-path="url(#pad36b945f0)" d="
M157.651 388.8
L161.295 388.8
L161.295 386.208
L157.651 386.208
z
" style="fill:#ff0000;opacity:0.5;stroke:#000000;"/>
   </g>
   <g id="patch_105">
    <path clip-path="url(#pad36b945f0)" d="
M171.316 388.8
L174.96 388.8
L174.96 380.16
L171.316 380.16
z
" style="fill:#ff0000;opacity:0.5;stroke:#000000;"/>
   </g>
   <g id="patch_106">
    <path clip-path="url(#pad36b945f0)" d="
M184.981 388.8
L188.625 388.8
L188.625 386.208
L184.981 386.208
z
" style="fill:#ff0000;opacity:0.5;stroke:#000000;"/>
   </g>
   <g id="patch_107">
    <path clip-path="url(#pad36b945f0)" d="
M198.647 388.8
L202.291 388.8
L202.291 379.296
L198.647 379.296
z
" style="fill:#ff0000;opacity:0.5;stroke:#000000;"/>
   </g>
   <g id="patch_108">
    <path clip-path="url(#pad36b945f0)" d="
M212.312 388.8
L215.956 388.8
L215.956 372.384
L212.312 372.384
z
" style="fill:#ff0000;opacity:0.5;stroke:#000000;"/>
   </g>
   <g id="patch_109">
    <path clip-path="url(#pad36b945f0)" d="
M225.977 388.8
L229.621 388.8
L229.621 356.832
L225.977 356.832
z
" style="fill:#ff0000;opacity:0.5;stroke:#000000;"/>
   </g>
   <g id="patch_110">
    <path clip-path="url(#pad36b945f0)" d="
M239.642 388.8
L243.287 388.8
L243.287 335.232
L239.642 335.232
z
" style="fill:#ff0000;opacity:0.5;stroke:#000000;"/>
   </g>
   <g id="patch_111">
    <path clip-path="url(#pad36b945f0)" d="
M253.308 388.8
L256.952 388.8
L256.952 298.08
L253.308 298.08
z
" style="fill:#ff0000;opacity:0.5;stroke:#000000;"/>
   </g>
   <g id="patch_112">
    <path clip-path="url(#pad36b945f0)" d="
M266.973 388.8
L270.617 388.8
L270.617 231.552
L266.973 231.552
z
" style="fill:#ff0000;opacity:0.5;stroke:#000000;"/>
   </g>
   <g id="patch_113">
    <path clip-path="url(#pad36b945f0)" d="
M280.638 388.8
L284.282 388.8
L284.282 221.184
L280.638 221.184
z
" style="fill:#ff0000;opacity:0.5;stroke:#000000;"/>
   </g>
   <g id="patch_114">
    <path clip-path="url(#pad36b945f0)" d="
M294.304 388.8
L297.948 388.8
L297.948 216
L294.304 216
z
" style="fill:#ff0000;opacity:0.5;stroke:#000000;"/>
   </g>
   <g id="patch_115">
    <path clip-path="url(#pad36b945f0)" d="
M307.969 388.8
L311.613 388.8
L311.613 252.288
L307.969 252.288
z
" style="fill:#ff0000;opacity:0.5;stroke:#000000;"/>
   </g>
   <g id="patch_116">
    <path clip-path="url(#pad36b945f0)" d="
M321.634 388.8
L325.278 388.8
L325.278 305.856
L321.634 305.856
z
" style="fill:#ff0000;opacity:0.5;stroke:#000000;"/>
   </g>
   <g id="patch_117">
    <path clip-path="url(#pad36b945f0)" d="
M335.3 388.8
L338.944 388.8
L338.944 321.408
L335.3 321.408
z
" style="fill:#ff0000;opacity:0.5;stroke:#000000;"/>
   </g>
   <g id="patch_118">
    <path clip-path="url(#pad36b945f0)" d="
M348.965 388.8
L352.609 388.8
L352.609 302.4
L348.965 302.4
z
" style="fill:#ff0000;opacity:0.5;stroke:#000000;"/>
   </g>
   <g id="patch_119">
    <path clip-path="url(#pad36b945f0)" d="
M362.63 388.8
L366.274 388.8
L366.274 320.544
L362.63 320.544
z
" style="fill:#ff0000;opacity:0.5;stroke:#000000;"/>
   </g>
   <g id="patch_120">
    <path clip-path="url(#pad36b945f0)" d="
M376.296 388.8
L379.94 388.8
L379.94 321.408
L376.296 321.408
z
" style="fill:#ff0000;opacity:0.5;stroke:#000000;"/>
   </g>
   <g id="patch_121">
    <path clip-path="url(#pad36b945f0)" d="
M389.961 388.8
L393.605 388.8
L393.605 340.416
L389.961 340.416
z
" style="fill:#ff0000;opacity:0.5;stroke:#000000;"/>
   </g>
   <g id="patch_122">
    <path clip-path="url(#pad36b945f0)" d="
M403.626 388.8
L407.27 388.8
L407.27 364.608
L403.626 364.608
z
" style="fill:#ff0000;opacity:0.5;stroke:#000000;"/>
   </g>
   <g id="patch_123">
    <path clip-path="url(#pad36b945f0)" d="
M417.291 388.8
L420.936 388.8
L420.936 372.384
L417.291 372.384
z
" style="fill:#ff0000;opacity:0.5;stroke:#000000;"/>
   </g>
   <g id="patch_124">
    <path clip-path="url(#pad36b945f0)" d="
M430.957 388.8
L434.601 388.8
L434.601 381.888
L430.957 381.888
z
" style="fill:#ff0000;opacity:0.5;stroke:#000000;"/>
   </g>
   <g id="patch_125">
    <path clip-path="url(#pad36b945f0)" d="
M444.622 388.8
L448.266 388.8
L448.266 383.616
L444.622 383.616
z
" style="fill:#ff0000;opacity:0.5;stroke:#000000;"/>
   </g>
   <g id="patch_126">
    <path clip-path="url(#pad36b945f0)" d="
M458.287 388.8
L461.931 388.8
L461.931 385.344
L458.287 385.344
z
" style="fill:#ff0000;opacity:0.5;stroke:#000000;"/>
   </g>
   <g id="patch_127">
    <path clip-path="url(#pad36b945f0)" d="
M471.953 388.8
L475.597 388.8
L475.597 383.616
L471.953 383.616
z
" style="fill:#ff0000;opacity:0.5;stroke:#000000;"/>
   </g>
   <g id="patch_128">
    <path clip-path="url(#pad36b945f0)" d="
M485.618 388.8
L489.262 388.8
L489.262 386.208
L485.618 386.208
z
" style="fill:#ff0000;opacity:0.5;stroke:#000000;"/>
   </g>
   <g id="patch_129">
    <path clip-path="url(#pad36b945f0)" d="
M499.283 388.8
L502.927 388.8
L502.927 385.344
L499.283 385.344
z
" style="fill:#ff0000;opacity:0.5;stroke:#000000;"/>
   </g>
   <g id="patch_130">
    <path clip-path="url(#pad36b945f0)" d="
M512.949 388.8
L516.593 388.8
L516.593 387.936
L512.949 387.936
z
" style="fill:#ff0000;opacity:0.5;stroke:#000000;"/>
   </g>
   <g id="patch_131">
    <path clip-path="url(#pad36b945f0)" d="
M526.614 388.8
L530.258 388.8
L530.258 385.344
L526.614 385.344
z
" style="fill:#ff0000;opacity:0.5;stroke:#000000;"/>
   </g>
   <g id="patch_132">
    <path clip-path="url(#pad36b945f0)" d="
M540.279 388.8
L543.923 388.8
L543.923 387.936
L540.279 387.936
z
" style="fill:#ff0000;opacity:0.5;stroke:#000000;"/>
   </g>
   <g id="patch_133">
    <path clip-path="url(#pad36b945f0)" d="
M553.944 388.8
L557.589 388.8
L557.589 387.936
L553.944 387.936
z
" style="fill:#ff0000;opacity:0.5;stroke:#000000;"/>
   </g>
   <g id="patch_134">
    <path clip-path="url(#pad36b945f0)" d="
M567.61 388.8
L571.254 388.8
L571.254 388.8
L567.61 388.8
z
" style="fill:#ff0000;opacity:0.5;stroke:#000000;"/>
   </g>
   <g id="patch_135">
    <path clip-path="url(#pad36b945f0)" d="
M581.275 388.8
L584.919 388.8
L584.919 384.48
L581.275 384.48
z
" style="fill:#ff0000;opacity:0.5;stroke:#000000;"/>
   </g>
   <g id="patch_136">
    <path clip-path="url(#pad36b945f0)" d="
M594.94 388.8
L598.584 388.8
L598.584 387.936
L594.94 387.936
z
" style="fill:#ff0000;opacity:0.5;stroke:#000000;"/>
   </g>
   <g id="patch_137">
    <path clip-path="url(#pad36b945f0)" d="
M608.606 388.8
L612.25 388.8
L612.25 387.936
L608.606 387.936
z
" style="fill:#ff0000;opacity:0.5;stroke:#000000;"/>
   </g>
   <g id="patch_138">
    <path clip-path="url(#pad36b945f0)" d="
M622.271 388.8
L625.915 388.8
L625.915 388.8
L622.271 388.8
z
" style="fill:#ff0000;opacity:0.5;stroke:#000000;"/>
   </g>
   <g id="patch_139">
    <path clip-path="url(#pad36b945f0)" d="
M635.936 388.8
L639.58 388.8
L639.58 388.8
L635.936 388.8
z
" style="fill:#ff0000;opacity:0.5;stroke:#000000;"/>
   </g>
   <g id="patch_140">
    <path clip-path="url(#pad36b945f0)" d="
M649.602 388.8
L653.246 388.8
L653.246 388.8
L649.602 388.8
z
" style="fill:#ff0000;opacity:0.5;stroke:#000000;"/>
   </g>
   <g id="patch_141">
    <path clip-path="url(#pad36b945f0)" d="
M663.267 388.8
L666.911 388.8
L666.911 388.8
L663.267 388.8
z
" style="fill:#ff0000;opacity:0.5;stroke:#000000;"/>
   </g>
   <g id="patch_142">
    <path clip-path="url(#pad36b945f0)" d="
M676.932 388.8
L680.576 388.8
L680.576 388.8
L676.932 388.8
z
" style="fill:#ff0000;opacity:0.5;stroke:#000000;"/>
   </g>
   <g id="patch_143">
    <path clip-path="url(#pad36b945f0)" d="
M690.598 388.8
L694.242 388.8
L694.242 388.8
L690.598 388.8
z
" style="fill:#ff0000;opacity:0.5;stroke:#000000;"/>
   </g>
   <g id="patch_144">
    <path clip-path="url(#pad36b945f0)" d="
M704.263 388.8
L707.907 388.8
L707.907 388.8
L704.263 388.8
z
" style="fill:#ff0000;opacity:0.5;stroke:#000000;"/>
   </g>
   <g id="patch_145">
    <path clip-path="url(#pad36b945f0)" d="
M717.928 388.8
L721.572 388.8
L721.572 387.072
L717.928 387.072
z
" style="fill:#ff0000;opacity:0.5;stroke:#000000;"/>
   </g>
   <g id="patch_146">
    <path clip-path="url(#pad36b945f0)" d="
M731.593 388.8
L735.238 388.8
L735.238 388.8
L731.593 388.8
z
" style="fill:#ff0000;opacity:0.5;stroke:#000000;"/>
   </g>
   <g id="patch_147">
    <path clip-path="url(#pad36b945f0)" d="
M745.259 388.8
L748.903 388.8
L748.903 388.8
L745.259 388.8
z
" style="fill:#ff0000;opacity:0.5;stroke:#000000;"/>
   </g>
   <g id="patch_148">
    <path clip-path="url(#pad36b945f0)" d="
M758.924 388.8
L762.568 388.8
L762.568 387.936
L758.924 387.936
z
" style="fill:#ff0000;opacity:0.5;stroke:#000000;"/>
   </g>
   <g id="patch_149">
    <path clip-path="url(#pad36b945f0)" d="
M772.589 388.8
L776.233 388.8
L776.233 387.936
L772.589 387.936
z
" style="fill:#ff0000;opacity:0.5;stroke:#000000;"/>
   </g>
   <g id="matplotlib.axis_1">
    <g id="xtick_1">
     <g id="line2d_1">
      <defs>
       <path d="
M0 0
L0 -4" id="mc7db9fdffb" style="stroke:#000000;stroke-width:0.5;"/>
      </defs>
      <g>
       <use style="stroke:#000000;stroke-width:0.5;" x="108.0" xlink:href="#mc7db9fdffb" y="388.8"/>
      </g>
     </g>
     <g id="line2d_2">
      <defs>
       <path d="
M0 0
L0 4" id="m5a7d422ac3" style="stroke:#000000;stroke-width:0.5;"/>
      </defs>
      <g>
       <use style="stroke:#000000;stroke-width:0.5;" x="108.0" xlink:href="#m5a7d422ac3" y="43.2"/>
      </g>
     </g>
     <g id="text_1">
      <!-- 0.0 -->
      <defs>
       <path d="
M10.6875 12.4062
L21 12.4062
L21 0
L10.6875 0
z
" id="BitstreamVeraSans-Roman-2e"/>
       <path d="
M31.7812 66.4062
Q24.1719 66.4062 20.3281 58.9062
Q16.5 51.4219 16.5 36.375
Q16.5 21.3906 20.3281 13.8906
Q24.1719 6.39062 31.7812 6.39062
Q39.4531 6.39062 43.2812 13.8906
Q47.125 21.3906 47.125 36.375
Q47.125 51.4219 43.2812 58.9062
Q39.4531 66.4062 31.7812 66.4062
M31.7812 74.2188
Q44.0469 74.2188 50.5156 64.5156
Q56.9844 54.8281 56.9844 36.375
Q56.9844 17.9688 50.5156 8.26562
Q44.0469 -1.42188 31.7812 -1.42188
Q19.5312 -1.42188 13.0625 8.26562
Q6.59375 17.9688 6.59375 36.375
Q6.59375 54.8281 13.0625 64.5156
Q19.5312 74.2188 31.7812 74.2188" id="BitstreamVeraSans-Roman-30"/>
      </defs>
      <g transform="translate(99.2521875 401.918125)scale(0.12 -0.12)">
       <use xlink:href="#BitstreamVeraSans-Roman-30"/>
       <use x="63.623046875" xlink:href="#BitstreamVeraSans-Roman-2e"/>
       <use x="95.41015625" xlink:href="#BitstreamVeraSans-Roman-30"/>
      </g>
     </g>
    </g>
    <g id="xtick_2">
     <g id="line2d_3">
      <g>
       <use style="stroke:#000000;stroke-width:0.5;" x="219.6" xlink:href="#mc7db9fdffb" y="388.8"/>
      </g>
     </g>
     <g id="line2d_4">
      <g>
       <use style="stroke:#000000;stroke-width:0.5;" x="219.6" xlink:href="#m5a7d422ac3" y="43.2"/>
      </g>
     </g>
     <g id="text_2">
      <!-- 0.5 -->
      <defs>
       <path d="
M10.7969 72.9062
L49.5156 72.9062
L49.5156 64.5938
L19.8281 64.5938
L19.8281 46.7344
Q21.9688 47.4688 24.1094 47.8281
Q26.2656 48.1875 28.4219 48.1875
Q40.625 48.1875 47.75 41.5
Q54.8906 34.8125 54.8906 23.3906
Q54.8906 11.625 47.5625 5.09375
Q40.2344 -1.42188 26.9062 -1.42188
Q22.3125 -1.42188 17.5469 -0.640625
Q12.7969 0.140625 7.71875 1.70312
L7.71875 11.625
Q12.1094 9.23438 16.7969 8.0625
Q21.4844 6.89062 26.7031 6.89062
Q35.1562 6.89062 40.0781 11.3281
Q45.0156 15.7656 45.0156 23.3906
Q45.0156 31 40.0781 35.4375
Q35.1562 39.8906 26.7031 39.8906
Q22.75 39.8906 18.8125 39.0156
Q14.8906 38.1406 10.7969 36.2812
z
" id="BitstreamVeraSans-Roman-35"/>
      </defs>
      <g transform="translate(210.9778125 401.918125)scale(0.12 -0.12)">
       <use xlink:href="#BitstreamVeraSans-Roman-30"/>
       <use x="63.623046875" xlink:href="#BitstreamVeraSans-Roman-2e"/>
       <use x="95.41015625" xlink:href="#BitstreamVeraSans-Roman-35"/>
      </g>
     </g>
    </g>
    <g id="xtick_3">
     <g id="line2d_5">
      <g>
       <use style="stroke:#000000;stroke-width:0.5;" x="331.2" xlink:href="#mc7db9fdffb" y="388.8"/>
      </g>
     </g>
     <g id="line2d_6">
      <g>
       <use style="stroke:#000000;stroke-width:0.5;" x="331.2" xlink:href="#m5a7d422ac3" y="43.2"/>
      </g>
     </g>
     <g id="text_3">
      <!-- 1.0 -->
      <defs>
       <path d="
M12.4062 8.29688
L28.5156 8.29688
L28.5156 63.9219
L10.9844 60.4062
L10.9844 69.3906
L28.4219 72.9062
L38.2812 72.9062
L38.2812 8.29688
L54.3906 8.29688
L54.3906 0
L12.4062 0
z
" id="BitstreamVeraSans-Roman-31"/>
      </defs>
      <g transform="translate(322.715625 401.918125)scale(0.12 -0.12)">
       <use xlink:href="#BitstreamVeraSans-Roman-31"/>
       <use x="63.623046875" xlink:href="#BitstreamVeraSans-Roman-2e"/>
       <use x="95.41015625" xlink:href="#BitstreamVeraSans-Roman-30"/>
      </g>
     </g>
    </g>
    <g id="xtick_4">
     <g id="line2d_7">
      <g>
       <use style="stroke:#000000;stroke-width:0.5;" x="442.8" xlink:href="#mc7db9fdffb" y="388.8"/>
      </g>
     </g>
     <g id="line2d_8">
      <g>
       <use style="stroke:#000000;stroke-width:0.5;" x="442.8" xlink:href="#m5a7d422ac3" y="43.2"/>
      </g>
     </g>
     <g id="text_4">
      <!-- 1.5 -->
      <g transform="translate(434.44125 401.918125)scale(0.12 -0.12)">
       <use xlink:href="#BitstreamVeraSans-Roman-31"/>
       <use x="63.623046875" xlink:href="#BitstreamVeraSans-Roman-2e"/>
       <use x="95.41015625" xlink:href="#BitstreamVeraSans-Roman-35"/>
      </g>
     </g>
    </g>
    <g id="xtick_5">
     <g id="line2d_9">
      <g>
       <use style="stroke:#000000;stroke-width:0.5;" x="554.4" xlink:href="#mc7db9fdffb" y="388.8"/>
      </g>
     </g>
     <g id="line2d_10">
      <g>
       <use style="stroke:#000000;stroke-width:0.5;" x="554.4" xlink:href="#m5a7d422ac3" y="43.2"/>
      </g>
     </g>
     <g id="text_5">
      <!-- 2.0 -->
      <defs>
       <path d="
M19.1875 8.29688
L53.6094 8.29688
L53.6094 0
L7.32812 0
L7.32812 8.29688
Q12.9375 14.1094 22.625 23.8906
Q32.3281 33.6875 34.8125 36.5312
Q39.5469 41.8438 41.4219 45.5312
Q43.3125 49.2188 43.3125 52.7812
Q43.3125 58.5938 39.2344 62.25
Q35.1562 65.9219 28.6094 65.9219
Q23.9688 65.9219 18.8125 64.3125
Q13.6719 62.7031 7.8125 59.4219
L7.8125 69.3906
Q13.7656 71.7812 18.9375 73
Q24.125 74.2188 28.4219 74.2188
Q39.75 74.2188 46.4844 68.5469
Q53.2188 62.8906 53.2188 53.4219
Q53.2188 48.9219 51.5312 44.8906
Q49.8594 40.875 45.4062 35.4062
Q44.1875 33.9844 37.6406 27.2188
Q31.1094 20.4531 19.1875 8.29688" id="BitstreamVeraSans-Roman-32"/>
      </defs>
      <g transform="translate(545.69625 401.918125)scale(0.12 -0.12)">
       <use xlink:href="#BitstreamVeraSans-Roman-32"/>
       <use x="63.623046875" xlink:href="#BitstreamVeraSans-Roman-2e"/>
       <use x="95.41015625" xlink:href="#BitstreamVeraSans-Roman-30"/>
      </g>
     </g>
    </g>
    <g id="xtick_6">
     <g id="line2d_11">
      <g>
       <use style="stroke:#000000;stroke-width:0.5;" x="666.0" xlink:href="#mc7db9fdffb" y="388.8"/>
      </g>
     </g>
     <g id="line2d_12">
      <g>
       <use style="stroke:#000000;stroke-width:0.5;" x="666.0" xlink:href="#m5a7d422ac3" y="43.2"/>
      </g>
     </g>
     <g id="text_6">
      <!-- 2.5 -->
      <g transform="translate(657.421875 401.918125)scale(0.12 -0.12)">
       <use xlink:href="#BitstreamVeraSans-Roman-32"/>
       <use x="63.623046875" xlink:href="#BitstreamVeraSans-Roman-2e"/>
       <use x="95.41015625" xlink:href="#BitstreamVeraSans-Roman-35"/>
      </g>
     </g>
    </g>
    <g id="xtick_7">
     <g id="line2d_13">
      <g>
       <use style="stroke:#000000;stroke-width:0.5;" x="777.6" xlink:href="#mc7db9fdffb" y="388.8"/>
      </g>
     </g>
     <g id="line2d_14">
      <g>
       <use style="stroke:#000000;stroke-width:0.5;" x="777.6" xlink:href="#m5a7d422ac3" y="43.2"/>
      </g>
     </g>
     <g id="text_7">
      <!-- 3.0 -->
      <defs>
       <path d="
M40.5781 39.3125
Q47.6562 37.7969 51.625 33
Q55.6094 28.2188 55.6094 21.1875
Q55.6094 10.4062 48.1875 4.48438
Q40.7656 -1.42188 27.0938 -1.42188
Q22.5156 -1.42188 17.6562 -0.515625
Q12.7969 0.390625 7.625 2.20312
L7.625 11.7188
Q11.7188 9.32812 16.5938 8.10938
Q21.4844 6.89062 26.8125 6.89062
Q36.0781 6.89062 40.9375 10.5469
Q45.7969 14.2031 45.7969 21.1875
Q45.7969 27.6406 41.2812 31.2656
Q36.7656 34.9062 28.7188 34.9062
L20.2188 34.9062
L20.2188 43.0156
L29.1094 43.0156
Q36.375 43.0156 40.2344 45.9219
Q44.0938 48.8281 44.0938 54.2969
Q44.0938 59.9062 40.1094 62.9062
Q36.1406 65.9219 28.7188 65.9219
Q24.6562 65.9219 20.0156 65.0312
Q15.375 64.1562 9.8125 62.3125
L9.8125 71.0938
Q15.4375 72.6562 20.3438 73.4375
Q25.25 74.2188 29.5938 74.2188
Q40.8281 74.2188 47.3594 69.1094
Q53.9062 64.0156 53.9062 55.3281
Q53.9062 49.2656 50.4375 45.0938
Q46.9688 40.9219 40.5781 39.3125" id="BitstreamVeraSans-Roman-33"/>
      </defs>
      <g transform="translate(768.9140625 401.918125)scale(0.12 -0.12)">
       <use xlink:href="#BitstreamVeraSans-Roman-33"/>
       <use x="63.623046875" xlink:href="#BitstreamVeraSans-Roman-2e"/>
       <use x="95.41015625" xlink:href="#BitstreamVeraSans-Roman-30"/>
      </g>
     </g>
    </g>
    <g id="text_8">
     <!-- distances -->
     <defs>
      <path d="
M9.42188 54.6875
L18.4062 54.6875
L18.4062 0
L9.42188 0
z

M9.42188 75.9844
L18.4062 75.9844
L18.4062 64.5938
L9.42188 64.5938
z
" id="BitstreamVeraSans-Roman-69"/>
      <path d="
M56.2031 29.5938
L56.2031 25.2031
L14.8906 25.2031
Q15.4844 15.9219 20.4844 11.0625
Q25.4844 6.20312 34.4219 6.20312
Q39.5938 6.20312 44.4531 7.46875
Q49.3125 8.73438 54.1094 11.2812
L54.1094 2.78125
Q49.2656 0.734375 44.1875 -0.34375
Q39.1094 -1.42188 33.8906 -1.42188
Q20.7969 -1.42188 13.1562 6.1875
Q5.51562 13.8125 5.51562 26.8125
Q5.51562 40.2344 12.7656 48.1094
Q20.0156 56 32.3281 56
Q43.3594 56 49.7812 48.8906
Q56.2031 41.7969 56.2031 29.5938
M47.2188 32.2344
Q47.125 39.5938 43.0938 43.9844
Q39.0625 48.3906 32.4219 48.3906
Q24.9062 48.3906 20.3906 44.1406
Q15.875 39.8906 15.1875 32.1719
z
" id="BitstreamVeraSans-Roman-65"/>
      <path d="
M34.2812 27.4844
Q23.3906 27.4844 19.1875 25
Q14.9844 22.5156 14.9844 16.5
Q14.9844 11.7188 18.1406 8.90625
Q21.2969 6.10938 26.7031 6.10938
Q34.1875 6.10938 38.7031 11.4062
Q43.2188 16.7031 43.2188 25.4844
L43.2188 27.4844
z

M52.2031 31.2031
L52.2031 0
L43.2188 0
L43.2188 8.29688
Q40.1406 3.32812 35.5469 0.953125
Q30.9531 -1.42188 24.3125 -1.42188
Q15.9219 -1.42188 10.9531 3.29688
Q6 8.01562 6 15.9219
Q6 25.1406 12.1719 29.8281
Q18.3594 34.5156 30.6094 34.5156
L43.2188 34.5156
L43.2188 35.4062
Q43.2188 41.6094 39.1406 45
Q35.0625 48.3906 27.6875 48.3906
Q23 48.3906 18.5469 47.2656
Q14.1094 46.1406 10.0156 43.8906
L10.0156 52.2031
Q14.9375 54.1094 19.5781 55.0469
Q24.2188 56 28.6094 56
Q40.4844 56 46.3438 49.8438
Q52.2031 43.7031 52.2031 31.2031" id="BitstreamVeraSans-Roman-61"/>
      <path d="
M44.2812 53.0781
L44.2812 44.5781
Q40.4844 46.5312 36.375 47.5
Q32.2812 48.4844 27.875 48.4844
Q21.1875 48.4844 17.8438 46.4375
Q14.5 44.3906 14.5 40.2812
Q14.5 37.1562 16.8906 35.375
Q19.2812 33.5938 26.5156 31.9844
L29.5938 31.2969
Q39.1562 29.25 43.1875 25.5156
Q47.2188 21.7812 47.2188 15.0938
Q47.2188 7.46875 41.1875 3.01562
Q35.1562 -1.42188 24.6094 -1.42188
Q20.2188 -1.42188 15.4531 -0.5625
Q10.6875 0.296875 5.42188 2
L5.42188 11.2812
Q10.4062 8.6875 15.2344 7.39062
Q20.0625 6.10938 24.8125 6.10938
Q31.1562 6.10938 34.5625 8.28125
Q37.9844 10.4531 37.9844 14.4062
Q37.9844 18.0625 35.5156 20.0156
Q33.0625 21.9688 24.7031 23.7812
L21.5781 24.5156
Q13.2344 26.2656 9.51562 29.9062
Q5.8125 33.5469 5.8125 39.8906
Q5.8125 47.6094 11.2812 51.7969
Q16.75 56 26.8125 56
Q31.7812 56 36.1719 55.2656
Q40.5781 54.5469 44.2812 53.0781" id="BitstreamVeraSans-Roman-73"/>
      <path d="
M48.7812 52.5938
L48.7812 44.1875
Q44.9688 46.2969 41.1406 47.3438
Q37.3125 48.3906 33.4062 48.3906
Q24.6562 48.3906 19.8125 42.8438
Q14.9844 37.3125 14.9844 27.2969
Q14.9844 17.2812 19.8125 11.7344
Q24.6562 6.20312 33.4062 6.20312
Q37.3125 6.20312 41.1406 7.25
Q44.9688 8.29688 48.7812 10.4062
L48.7812 2.09375
Q45.0156 0.34375 40.9844 -0.53125
Q36.9688 -1.42188 32.4219 -1.42188
Q20.0625 -1.42188 12.7812 6.34375
Q5.51562 14.1094 5.51562 27.2969
Q5.51562 40.6719 12.8594 48.3281
Q20.2188 56 33.0156 56
Q37.1562 56 41.1094 55.1406
Q45.0625 54.2969 48.7812 52.5938" id="BitstreamVeraSans-Roman-63"/>
      <path d="
M54.8906 33.0156
L54.8906 0
L45.9062 0
L45.9062 32.7188
Q45.9062 40.4844 42.875 44.3281
Q39.8438 48.1875 33.7969 48.1875
Q26.5156 48.1875 22.3125 43.5469
Q18.1094 38.9219 18.1094 30.9062
L18.1094 0
L9.07812 0
L9.07812 54.6875
L18.1094 54.6875
L18.1094 46.1875
Q21.3438 51.125 25.7031 53.5625
Q30.0781 56 35.7969 56
Q45.2188 56 50.0469 50.1719
Q54.8906 44.3438 54.8906 33.0156" id="BitstreamVeraSans-Roman-6e"/>
      <path d="
M45.4062 46.3906
L45.4062 75.9844
L54.3906 75.9844
L54.3906 0
L45.4062 0
L45.4062 8.20312
Q42.5781 3.32812 38.25 0.953125
Q33.9375 -1.42188 27.875 -1.42188
Q17.9688 -1.42188 11.7344 6.48438
Q5.51562 14.4062 5.51562 27.2969
Q5.51562 40.1875 11.7344 48.0938
Q17.9688 56 27.875 56
Q33.9375 56 38.25 53.625
Q42.5781 51.2656 45.4062 46.3906
M14.7969 27.2969
Q14.7969 17.3906 18.875 11.75
Q22.9531 6.10938 30.0781 6.10938
Q37.2031 6.10938 41.2969 11.75
Q45.4062 17.3906 45.4062 27.2969
Q45.4062 37.2031 41.2969 42.8438
Q37.2031 48.4844 30.0781 48.4844
Q22.9531 48.4844 18.875 42.8438
Q14.7969 37.2031 14.7969 27.2969" id="BitstreamVeraSans-Roman-64"/>
      <path d="
M18.3125 70.2188
L18.3125 54.6875
L36.8125 54.6875
L36.8125 47.7031
L18.3125 47.7031
L18.3125 18.0156
Q18.3125 11.3281 20.1406 9.42188
Q21.9688 7.51562 27.5938 7.51562
L36.8125 7.51562
L36.8125 0
L27.5938 0
Q17.1875 0 13.2344 3.875
Q9.28125 7.76562 9.28125 18.0156
L9.28125 47.7031
L2.6875 47.7031
L2.6875 54.6875
L9.28125 54.6875
L9.28125 70.2188
z
" id="BitstreamVeraSans-Roman-74"/>
     </defs>
     <g transform="translate(414.87375 418.531875)scale(0.12 -0.12)">
      <use xlink:href="#BitstreamVeraSans-Roman-64"/>
      <use x="63.4765625" xlink:href="#BitstreamVeraSans-Roman-69"/>
      <use x="91.259765625" xlink:href="#BitstreamVeraSans-Roman-73"/>
      <use x="143.359375" xlink:href="#BitstreamVeraSans-Roman-74"/>
      <use x="182.568359375" xlink:href="#BitstreamVeraSans-Roman-61"/>
      <use x="243.84765625" xlink:href="#BitstreamVeraSans-Roman-6e"/>
      <use x="307.2265625" xlink:href="#BitstreamVeraSans-Roman-63"/>
      <use x="362.20703125" xlink:href="#BitstreamVeraSans-Roman-65"/>
      <use x="423.73046875" xlink:href="#BitstreamVeraSans-Roman-73"/>
     </g>
    </g>
   </g>
   <g id="matplotlib.axis_2">
    <g id="ytick_1">
     <g id="line2d_15">
      <defs>
       <path d="
M0 0
L4 0" id="md7965d1ba0" style="stroke:#000000;stroke-width:0.5;"/>
      </defs>
      <g>
       <use style="stroke:#000000;stroke-width:0.5;" x="108.0" xlink:href="#md7965d1ba0" y="388.8"/>
      </g>
     </g>
     <g id="line2d_16">
      <defs>
       <path d="
M0 0
L-4 0" id="md9a1c1a7cd" style="stroke:#000000;stroke-width:0.5;"/>
      </defs>
      <g>
       <use style="stroke:#000000;stroke-width:0.5;" x="777.6" xlink:href="#md9a1c1a7cd" y="388.8"/>
      </g>
     </g>
     <g id="text_9">
      <!-- 0 -->
      <g transform="translate(97.953125 392.11125)scale(0.12 -0.12)">
       <use xlink:href="#BitstreamVeraSans-Roman-30"/>
      </g>
     </g>
    </g>
    <g id="ytick_2">
     <g id="line2d_17">
      <g>
       <use style="stroke:#000000;stroke-width:0.5;" x="108.0" xlink:href="#md7965d1ba0" y="345.6"/>
      </g>
     </g>
     <g id="line2d_18">
      <g>
       <use style="stroke:#000000;stroke-width:0.5;" x="777.6" xlink:href="#md9a1c1a7cd" y="345.6"/>
      </g>
     </g>
     <g id="text_10">
      <!-- 50 -->
      <g transform="translate(90.453125 348.91125)scale(0.12 -0.12)">
       <use xlink:href="#BitstreamVeraSans-Roman-35"/>
       <use x="63.623046875" xlink:href="#BitstreamVeraSans-Roman-30"/>
      </g>
     </g>
    </g>
    <g id="ytick_3">
     <g id="line2d_19">
      <g>
       <use style="stroke:#000000;stroke-width:0.5;" x="108.0" xlink:href="#md7965d1ba0" y="302.4"/>
      </g>
     </g>
     <g id="line2d_20">
      <g>
       <use style="stroke:#000000;stroke-width:0.5;" x="777.6" xlink:href="#md9a1c1a7cd" y="302.4"/>
      </g>
     </g>
     <g id="text_11">
      <!-- 100 -->
      <g transform="translate(83.21 305.71125)scale(0.12 -0.12)">
       <use xlink:href="#BitstreamVeraSans-Roman-31"/>
       <use x="63.623046875" xlink:href="#BitstreamVeraSans-Roman-30"/>
       <use x="127.24609375" xlink:href="#BitstreamVeraSans-Roman-30"/>
      </g>
     </g>
    </g>
    <g id="ytick_4">
     <g id="line2d_21">
      <g>
       <use style="stroke:#000000;stroke-width:0.5;" x="108.0" xlink:href="#md7965d1ba0" y="259.2"/>
      </g>
     </g>
     <g id="line2d_22">
      <g>
       <use style="stroke:#000000;stroke-width:0.5;" x="777.6" xlink:href="#md9a1c1a7cd" y="259.2"/>
      </g>
     </g>
     <g id="text_12">
      <!-- 150 -->
      <g transform="translate(83.21 262.51125)scale(0.12 -0.12)">
       <use xlink:href="#BitstreamVeraSans-Roman-31"/>
       <use x="63.623046875" xlink:href="#BitstreamVeraSans-Roman-35"/>
       <use x="127.24609375" xlink:href="#BitstreamVeraSans-Roman-30"/>
      </g>
     </g>
    </g>
    <g id="ytick_5">
     <g id="line2d_23">
      <g>
       <use style="stroke:#000000;stroke-width:0.5;" x="108.0" xlink:href="#md7965d1ba0" y="216.0"/>
      </g>
     </g>
     <g id="line2d_24">
      <g>
       <use style="stroke:#000000;stroke-width:0.5;" x="777.6" xlink:href="#md9a1c1a7cd" y="216.0"/>
      </g>
     </g>
     <g id="text_13">
      <!-- 200 -->
      <g transform="translate(82.77125 219.31125)scale(0.12 -0.12)">
       <use xlink:href="#BitstreamVeraSans-Roman-32"/>
       <use x="63.623046875" xlink:href="#BitstreamVeraSans-Roman-30"/>
       <use x="127.24609375" xlink:href="#BitstreamVeraSans-Roman-30"/>
      </g>
     </g>
    </g>
    <g id="ytick_6">
     <g id="line2d_25">
      <g>
       <use style="stroke:#000000;stroke-width:0.5;" x="108.0" xlink:href="#md7965d1ba0" y="172.8"/>
      </g>
     </g>
     <g id="line2d_26">
      <g>
       <use style="stroke:#000000;stroke-width:0.5;" x="777.6" xlink:href="#md9a1c1a7cd" y="172.8"/>
      </g>
     </g>
     <g id="text_14">
      <!-- 250 -->
      <g transform="translate(82.77125 176.11125)scale(0.12 -0.12)">
       <use xlink:href="#BitstreamVeraSans-Roman-32"/>
       <use x="63.623046875" xlink:href="#BitstreamVeraSans-Roman-35"/>
       <use x="127.24609375" xlink:href="#BitstreamVeraSans-Roman-30"/>
      </g>
     </g>
    </g>
    <g id="ytick_7">
     <g id="line2d_27">
      <g>
       <use style="stroke:#000000;stroke-width:0.5;" x="108.0" xlink:href="#md7965d1ba0" y="129.6"/>
      </g>
     </g>
     <g id="line2d_28">
      <g>
       <use style="stroke:#000000;stroke-width:0.5;" x="777.6" xlink:href="#md9a1c1a7cd" y="129.6"/>
      </g>
     </g>
     <g id="text_15">
      <!-- 300 -->
      <g transform="translate(82.806875 132.91125)scale(0.12 -0.12)">
       <use xlink:href="#BitstreamVeraSans-Roman-33"/>
       <use x="63.623046875" xlink:href="#BitstreamVeraSans-Roman-30"/>
       <use x="127.24609375" xlink:href="#BitstreamVeraSans-Roman-30"/>
      </g>
     </g>
    </g>
    <g id="ytick_8">
     <g id="line2d_29">
      <g>
       <use style="stroke:#000000;stroke-width:0.5;" x="108.0" xlink:href="#md7965d1ba0" y="86.4"/>
      </g>
     </g>
     <g id="line2d_30">
      <g>
       <use style="stroke:#000000;stroke-width:0.5;" x="777.6" xlink:href="#md9a1c1a7cd" y="86.4"/>
      </g>
     </g>
     <g id="text_16">
      <!-- 350 -->
      <g transform="translate(82.806875 89.71125)scale(0.12 -0.12)">
       <use xlink:href="#BitstreamVeraSans-Roman-33"/>
       <use x="63.623046875" xlink:href="#BitstreamVeraSans-Roman-35"/>
       <use x="127.24609375" xlink:href="#BitstreamVeraSans-Roman-30"/>
      </g>
     </g>
    </g>
    <g id="ytick_9">
     <g id="line2d_31">
      <g>
       <use style="stroke:#000000;stroke-width:0.5;" x="108.0" xlink:href="#md7965d1ba0" y="43.2"/>
      </g>
     </g>
     <g id="line2d_32">
      <g>
       <use style="stroke:#000000;stroke-width:0.5;" x="777.6" xlink:href="#md9a1c1a7cd" y="43.2"/>
      </g>
     </g>
     <g id="text_17">
      <!-- 400 -->
      <defs>
       <path d="
M37.7969 64.3125
L12.8906 25.3906
L37.7969 25.3906
z

M35.2031 72.9062
L47.6094 72.9062
L47.6094 25.3906
L58.0156 25.3906
L58.0156 17.1875
L47.6094 17.1875
L47.6094 0
L37.7969 0
L37.7969 17.1875
L4.89062 17.1875
L4.89062 26.7031
z
" id="BitstreamVeraSans-Roman-34"/>
      </defs>
      <g transform="translate(82.47875 46.51125)scale(0.12 -0.12)">
       <use xlink:href="#BitstreamVeraSans-Roman-34"/>
       <use x="63.623046875" xlink:href="#BitstreamVeraSans-Roman-30"/>
       <use x="127.24609375" xlink:href="#BitstreamVeraSans-Roman-30"/>
      </g>
     </g>
    </g>
    <g id="text_18">
     <!-- N of pairs -->
     <defs>
      <path id="BitstreamVeraSans-Roman-20"/>
      <path d="
M9.8125 72.9062
L23.0938 72.9062
L55.4219 11.9219
L55.4219 72.9062
L64.9844 72.9062
L64.9844 0
L51.7031 0
L19.3906 60.9844
L19.3906 0
L9.8125 0
z
" id="BitstreamVeraSans-Roman-4e"/>
      <path d="
M41.1094 46.2969
Q39.5938 47.1719 37.8125 47.5781
Q36.0312 48 33.8906 48
Q26.2656 48 22.1875 43.0469
Q18.1094 38.0938 18.1094 28.8125
L18.1094 0
L9.07812 0
L9.07812 54.6875
L18.1094 54.6875
L18.1094 46.1875
Q20.9531 51.1719 25.4844 53.5781
Q30.0312 56 36.5312 56
Q37.4531 56 38.5781 55.875
Q39.7031 55.7656 41.0625 55.5156
z
" id="BitstreamVeraSans-Roman-72"/>
      <path d="
M18.1094 8.20312
L18.1094 -20.7969
L9.07812 -20.7969
L9.07812 54.6875
L18.1094 54.6875
L18.1094 46.3906
Q20.9531 51.2656 25.2656 53.625
Q29.5938 56 35.5938 56
Q45.5625 56 51.7812 48.0938
Q58.0156 40.1875 58.0156 27.2969
Q58.0156 14.4062 51.7812 6.48438
Q45.5625 -1.42188 35.5938 -1.42188
Q29.5938 -1.42188 25.2656 0.953125
Q20.9531 3.32812 18.1094 8.20312
M48.6875 27.2969
Q48.6875 37.2031 44.6094 42.8438
Q40.5312 48.4844 33.4062 48.4844
Q26.2656 48.4844 22.1875 42.8438
Q18.1094 37.2031 18.1094 27.2969
Q18.1094 17.3906 22.1875 11.75
Q26.2656 6.10938 33.4062 6.10938
Q40.5312 6.10938 44.6094 11.75
Q48.6875 17.3906 48.6875 27.2969" id="BitstreamVeraSans-Roman-70"/>
      <path d="
M30.6094 48.3906
Q23.3906 48.3906 19.1875 42.75
Q14.9844 37.1094 14.9844 27.2969
Q14.9844 17.4844 19.1562 11.8438
Q23.3438 6.20312 30.6094 6.20312
Q37.7969 6.20312 41.9844 11.8594
Q46.1875 17.5312 46.1875 27.2969
Q46.1875 37.0156 41.9844 42.7031
Q37.7969 48.3906 30.6094 48.3906
M30.6094 56
Q42.3281 56 49.0156 48.375
Q55.7188 40.7656 55.7188 27.2969
Q55.7188 13.875 49.0156 6.21875
Q42.3281 -1.42188 30.6094 -1.42188
Q18.8438 -1.42188 12.1719 6.21875
Q5.51562 13.875 5.51562 27.2969
Q5.51562 40.7656 12.1719 48.375
Q18.8438 56 30.6094 56" id="BitstreamVeraSans-Roman-6f"/>
      <path d="
M37.1094 75.9844
L37.1094 68.5
L28.5156 68.5
Q23.6875 68.5 21.7969 66.5469
Q19.9219 64.5938 19.9219 59.5156
L19.9219 54.6875
L34.7188 54.6875
L34.7188 47.7031
L19.9219 47.7031
L19.9219 0
L10.8906 0
L10.8906 47.7031
L2.29688 47.7031
L2.29688 54.6875
L10.8906 54.6875
L10.8906 58.5
Q10.8906 67.625 15.1406 71.7969
Q19.3906 75.9844 28.6094 75.9844
z
" id="BitstreamVeraSans-Roman-66"/>
     </defs>
     <g transform="translate(74.983125 244.5384375)rotate(-90.0)scale(0.12 -0.12)">
      <use xlink:href="#BitstreamVeraSans-Roman-4e"/>
      <use x="74.8046875" xlink:href="#BitstreamVeraSans-Roman-20"/>
      <use x="106.591796875" xlink:href="#BitstreamVeraSans-Roman-6f"/>
      <use x="167.7734375" xlink:href="#BitstreamVeraSans-Roman-66"/>
      <use x="202.978515625" xlink:href="#BitstreamVeraSans-Roman-20"/>
      <use x="234.765625" xlink:href="#BitstreamVeraSans-Roman-70"/>
      <use x="298.2421875" xlink:href="#BitstreamVeraSans-Roman-61"/>
      <use x="359.521484375" xlink:href="#BitstreamVeraSans-Roman-69"/>
      <use x="387.3046875" xlink:href="#BitstreamVeraSans-Roman-72"/>
      <use x="428.41796875" xlink:href="#BitstreamVeraSans-Roman-73"/>
     </g>
    </g>
   </g>
   <g id="patch_150">
    <path d="
M108 388.8
L777.6 388.8" style="fill:none;stroke:#000000;"/>
   </g>
   <g id="patch_151">
    <path d="
M108 388.8
L108 43.2" style="fill:none;stroke:#000000;"/>
   </g>
   <g id="patch_152">
    <path d="
M108 43.2
L777.6 43.2" style="fill:none;stroke:#000000;"/>
   </g>
   <g id="patch_153">
    <path d="
M777.6 388.8
L777.6 43.2" style="fill:none;stroke:#000000;"/>
   </g>
   <g id="text_19">
    <!-- Pairwise evolutionary distances between species -->
    <defs>
     <path d="
M32.1719 -5.07812
Q28.375 -14.8438 24.75 -17.8125
Q21.1406 -20.7969 15.0938 -20.7969
L7.90625 -20.7969
L7.90625 -13.2812
L13.1875 -13.2812
Q16.8906 -13.2812 18.9375 -11.5156
Q21 -9.76562 23.4844 -3.21875
L25.0938 0.875
L2.98438 54.6875
L12.5 54.6875
L29.5938 11.9219
L46.6875 54.6875
L56.2031 54.6875
z
" id="BitstreamVeraSans-Roman-79"/>
     <path d="
M19.6719 64.7969
L19.6719 37.4062
L32.0781 37.4062
Q38.9688 37.4062 42.7188 40.9688
Q46.4844 44.5312 46.4844 51.125
Q46.4844 57.6719 42.7188 61.2344
Q38.9688 64.7969 32.0781 64.7969
z

M9.8125 72.9062
L32.0781 72.9062
Q44.3438 72.9062 50.6094 67.3594
Q56.8906 61.8125 56.8906 51.125
Q56.8906 40.3281 50.6094 34.8125
Q44.3438 29.2969 32.0781 29.2969
L19.6719 29.2969
L19.6719 0
L9.8125 0
z
" id="BitstreamVeraSans-Roman-50"/>
     <path d="
M9.42188 75.9844
L18.4062 75.9844
L18.4062 0
L9.42188 0
z
" id="BitstreamVeraSans-Roman-6c"/>
     <path d="
M48.6875 27.2969
Q48.6875 37.2031 44.6094 42.8438
Q40.5312 48.4844 33.4062 48.4844
Q26.2656 48.4844 22.1875 42.8438
Q18.1094 37.2031 18.1094 27.2969
Q18.1094 17.3906 22.1875 11.75
Q26.2656 6.10938 33.4062 6.10938
Q40.5312 6.10938 44.6094 11.75
Q48.6875 17.3906 48.6875 27.2969
M18.1094 46.3906
Q20.9531 51.2656 25.2656 53.625
Q29.5938 56 35.5938 56
Q45.5625 56 51.7812 48.0938
Q58.0156 40.1875 58.0156 27.2969
Q58.0156 14.4062 51.7812 6.48438
Q45.5625 -1.42188 35.5938 -1.42188
Q29.5938 -1.42188 25.2656 0.953125
Q20.9531 3.32812 18.1094 8.20312
L18.1094 0
L9.07812 0
L9.07812 75.9844
L18.1094 75.9844
z
" id="BitstreamVeraSans-Roman-62"/>
     <path d="
M2.98438 54.6875
L12.5 54.6875
L29.5938 8.79688
L46.6875 54.6875
L56.2031 54.6875
L35.6875 0
L23.4844 0
z
" id="BitstreamVeraSans-Roman-76"/>
     <path d="
M4.20312 54.6875
L13.1875 54.6875
L24.4219 12.0156
L35.5938 54.6875
L46.1875 54.6875
L57.4219 12.0156
L68.6094 54.6875
L77.5938 54.6875
L63.2812 0
L52.6875 0
L40.9219 44.8281
L29.1094 0
L18.5 0
z
" id="BitstreamVeraSans-Roman-77"/>
     <path d="
M8.5 21.5781
L8.5 54.6875
L17.4844 54.6875
L17.4844 21.9219
Q17.4844 14.1562 20.5 10.2656
Q23.5312 6.39062 29.5938 6.39062
Q36.8594 6.39062 41.0781 11.0312
Q45.3125 15.6719 45.3125 23.6875
L45.3125 54.6875
L54.2969 54.6875
L54.2969 0
L45.3125 0
L45.3125 8.40625
Q42.0469 3.42188 37.7188 1
Q33.4062 -1.42188 27.6875 -1.42188
Q18.2656 -1.42188 13.375 4.4375
Q8.5 10.2969 8.5 21.5781" id="BitstreamVeraSans-Roman-75"/>
    </defs>
    <g transform="translate(267.166125 38.2)scale(0.144 -0.144)">
     <use xlink:href="#BitstreamVeraSans-Roman-50"/>
     <use x="55.802734375" xlink:href="#BitstreamVeraSans-Roman-61"/>
     <use x="117.08203125" xlink:href="#BitstreamVeraSans-Roman-69"/>
     <use x="144.865234375" xlink:href="#BitstreamVeraSans-Roman-72"/>
     <use x="185.978515625" xlink:href="#BitstreamVeraSans-Roman-77"/>
     <use x="267.765625" xlink:href="#BitstreamVeraSans-Roman-69"/>
     <use x="295.548828125" xlink:href="#BitstreamVeraSans-Roman-73"/>
     <use x="347.6484375" xlink:href="#BitstreamVeraSans-Roman-65"/>
     <use x="409.171875" xlink:href="#BitstreamVeraSans-Roman-20"/>
     <use x="440.958984375" xlink:href="#BitstreamVeraSans-Roman-65"/>
     <use x="502.482421875" xlink:href="#BitstreamVeraSans-Roman-76"/>
     <use x="561.662109375" xlink:href="#BitstreamVeraSans-Roman-6f"/>
     <use x="622.84375" xlink:href="#BitstreamVeraSans-Roman-6c"/>
     <use x="650.626953125" xlink:href="#BitstreamVeraSans-Roman-75"/>
     <use x="714.005859375" xlink:href="#BitstreamVeraSans-Roman-74"/>
     <use x="753.21484375" xlink:href="#BitstreamVeraSans-Roman-69"/>
     <use x="780.998046875" xlink:href="#BitstreamVeraSans-Roman-6f"/>
     <use x="842.1796875" xlink:href="#BitstreamVeraSans-Roman-6e"/>
     <use x="905.55859375" xlink:href="#BitstreamVeraSans-Roman-61"/>
     <use x="966.837890625" xlink:href="#BitstreamVeraSans-Roman-72"/>
     <use x="1007.951171875" xlink:href="#BitstreamVeraSans-Roman-79"/>
     <use x="1067.130859375" xlink:href="#BitstreamVeraSans-Roman-20"/>
     <use x="1098.91796875" xlink:href="#BitstreamVeraSans-Roman-64"/>
     <use x="1162.39453125" xlink:href="#BitstreamVeraSans-Roman-69"/>
     <use x="1190.177734375" xlink:href="#BitstreamVeraSans-Roman-73"/>
     <use x="1242.27734375" xlink:href="#BitstreamVeraSans-Roman-74"/>
     <use x="1281.486328125" xlink:href="#BitstreamVeraSans-Roman-61"/>
     <use x="1342.765625" xlink:href="#BitstreamVeraSans-Roman-6e"/>
     <use x="1406.14453125" xlink:href="#BitstreamVeraSans-Roman-63"/>
     <use x="1461.125" xlink:href="#BitstreamVeraSans-Roman-65"/>
     <use x="1522.6484375" xlink:href="#BitstreamVeraSans-Roman-73"/>
     <use x="1574.748046875" xlink:href="#BitstreamVeraSans-Roman-20"/>
     <use x="1606.53515625" xlink:href="#BitstreamVeraSans-Roman-62"/>
     <use x="1670.01171875" xlink:href="#BitstreamVeraSans-Roman-65"/>
     <use x="1731.53515625" xlink:href="#BitstreamVeraSans-Roman-74"/>
     <use x="1770.744140625" xlink:href="#BitstreamVeraSans-Roman-77"/>
     <use x="1852.53125" xlink:href="#BitstreamVeraSans-Roman-65"/>
     <use x="1914.0546875" xlink:href="#BitstreamVeraSans-Roman-65"/>
     <use x="1975.578125" xlink:href="#BitstreamVeraSans-Roman-6e"/>
     <use x="2038.95703125" xlink:href="#BitstreamVeraSans-Roman-20"/>
     <use x="2070.744140625" xlink:href="#BitstreamVeraSans-Roman-73"/>
     <use x="2122.84375" xlink:href="#BitstreamVeraSans-Roman-70"/>
     <use x="2186.3203125" xlink:href="#BitstreamVeraSans-Roman-65"/>
     <use x="2247.84375" xlink:href="#BitstreamVeraSans-Roman-63"/>
     <use x="2302.82421875" xlink:href="#BitstreamVeraSans-Roman-69"/>
     <use x="2330.607421875" xlink:href="#BitstreamVeraSans-Roman-65"/>
     <use x="2392.130859375" xlink:href="#BitstreamVeraSans-Roman-73"/>
    </g>
   </g>
   <g id="legend_1">
    <g id="patch_154">
     <path d="
M674.876 118.129
L770.4 118.129
L770.4 50.4
L674.876 50.4
L674.876 118.129
z
" style="fill:#ffffff;stroke:#000000;"/>
    </g>
    <g id="patch_155">
     <path d="
M680.636 67.1017
L709.436 67.1017
L709.436 57.0217
L680.636 57.0217
z
" style="fill:#0000ff;opacity:0.5;stroke:#000000;"/>
    </g>
    <g id="text_20">
     <!-- genus -->
     <defs>
      <path d="
M45.4062 27.9844
Q45.4062 37.75 41.375 43.1094
Q37.3594 48.4844 30.0781 48.4844
Q22.8594 48.4844 18.8281 43.1094
Q14.7969 37.75 14.7969 27.9844
Q14.7969 18.2656 18.8281 12.8906
Q22.8594 7.51562 30.0781 7.51562
Q37.3594 7.51562 41.375 12.8906
Q45.4062 18.2656 45.4062 27.9844
M54.3906 6.78125
Q54.3906 -7.17188 48.1875 -13.9844
Q42 -20.7969 29.2031 -20.7969
Q24.4688 -20.7969 20.2656 -20.0938
Q16.0625 -19.3906 12.1094 -17.9219
L12.1094 -9.1875
Q16.0625 -11.3281 19.9219 -12.3438
Q23.7812 -13.375 27.7812 -13.375
Q36.625 -13.375 41.0156 -8.76562
Q45.4062 -4.15625 45.4062 5.17188
L45.4062 9.625
Q42.625 4.78125 38.2812 2.39062
Q33.9375 0 27.875 0
Q17.8281 0 11.6719 7.65625
Q5.51562 15.3281 5.51562 27.9844
Q5.51562 40.6719 11.6719 48.3281
Q17.8281 56 27.875 56
Q33.9375 56 38.2812 53.6094
Q42.625 51.2188 45.4062 46.3906
L45.4062 54.6875
L54.3906 54.6875
z
" id="BitstreamVeraSans-Roman-67"/>
     </defs>
     <g transform="translate(720.95625 67.10175)scale(0.144 -0.144)">
      <use xlink:href="#BitstreamVeraSans-Roman-67"/>
      <use x="63.4765625" xlink:href="#BitstreamVeraSans-Roman-65"/>
      <use x="125.0" xlink:href="#BitstreamVeraSans-Roman-6e"/>
      <use x="188.37890625" xlink:href="#BitstreamVeraSans-Roman-75"/>
      <use x="251.7578125" xlink:href="#BitstreamVeraSans-Roman-73"/>
     </g>
    </g>
    <g id="patch_156">
     <path d="
M680.636 88.2382
L709.436 88.2382
L709.436 78.1582
L680.636 78.1582
z
" style="fill:#008000;opacity:0.5;stroke:#000000;"/>
    </g>
    <g id="text_21">
     <!-- family -->
     <defs>
      <path d="
M52 44.1875
Q55.375 50.25 60.0625 53.125
Q64.75 56 71.0938 56
Q79.6406 56 84.2812 50.0156
Q88.9219 44.0469 88.9219 33.0156
L88.9219 0
L79.8906 0
L79.8906 32.7188
Q79.8906 40.5781 77.0938 44.375
Q74.3125 48.1875 68.6094 48.1875
Q61.625 48.1875 57.5625 43.5469
Q53.5156 38.9219 53.5156 30.9062
L53.5156 0
L44.4844 0
L44.4844 32.7188
Q44.4844 40.625 41.7031 44.4062
Q38.9219 48.1875 33.1094 48.1875
Q26.2188 48.1875 22.1562 43.5312
Q18.1094 38.875 18.1094 30.9062
L18.1094 0
L9.07812 0
L9.07812 54.6875
L18.1094 54.6875
L18.1094 46.1875
Q21.1875 51.2188 25.4844 53.6094
Q29.7812 56 35.6875 56
Q41.6562 56 45.8281 52.9688
Q50 49.9531 52 44.1875" id="BitstreamVeraSans-Roman-6d"/>
     </defs>
     <g transform="translate(720.95625 88.23825)scale(0.144 -0.144)">
      <use xlink:href="#BitstreamVeraSans-Roman-66"/>
      <use x="35.205078125" xlink:href="#BitstreamVeraSans-Roman-61"/>
      <use x="96.484375" xlink:href="#BitstreamVeraSans-Roman-6d"/>
      <use x="193.896484375" xlink:href="#BitstreamVeraSans-Roman-69"/>
      <use x="221.6796875" xlink:href="#BitstreamVeraSans-Roman-6c"/>
      <use x="249.462890625" xlink:href="#BitstreamVeraSans-Roman-79"/>
     </g>
    </g>
    <g id="patch_157">
     <path d="
M680.636 109.375
L709.436 109.375
L709.436 99.2947
L680.636 99.2947
z
" style="fill:#ff0000;opacity:0.5;stroke:#000000;"/>
    </g>
    <g id="text_22">
     <!-- order -->
     <g transform="translate(720.95625 109.37475)scale(0.144 -0.144)">
      <use xlink:href="#BitstreamVeraSans-Roman-6f"/>
      <use x="61.181640625" xlink:href="#BitstreamVeraSans-Roman-72"/>
      <use x="100.544921875" xlink:href="#BitstreamVeraSans-Roman-64"/>
      <use x="164.021484375" xlink:href="#BitstreamVeraSans-Roman-65"/>
      <use x="225.544921875" xlink:href="#BitstreamVeraSans-Roman-72"/>
     </g>
    </g>
   </g>
  </g>
 </g>
 <defs>
  <clipPath id="pad36b945f0">
   <rect height="345.6" width="669.6" x="108.0" y="43.2"/>
  </clipPath>
 </defs>
</svg>
